<svg width="59" height="59" viewBox="0 0 59 59" fill="none" xmlns="http://www.w3.org/2000/svg">
<mask id="mask0_419_2074" style="mask-type:alpha" maskUnits="userSpaceOnUse" x="0" y="0" width="59" height="59">
<rect width="59" height="59" fill="#D9D9D9"/>
</mask>
<g mask="url(#mask0_419_2074)">
<path d="M13.8051 49.167C12.6734 49.167 11.7286 48.788 10.9706 48.03C10.2126 47.272 9.83362 46.3272 9.83362 45.1955V13.8051C9.83362 12.6734 10.2126 11.7286 10.9706 10.9706C11.7286 10.2126 12.6734 9.83362 13.8051 9.83362H32.7152C32.1477 10.7727 31.7222 11.7591 31.4387 12.7928C31.1552 13.8266 31.0134 14.8888 31.0134 15.9795C31.0134 19.3171 32.1803 22.1527 34.5141 24.4865C36.8478 26.8203 39.6835 27.9872 43.0211 27.9872C44.1118 27.9872 45.174 27.8454 46.2077 27.5619C47.2415 27.2784 48.2279 26.8529 49.167 26.2854V45.1955C49.167 46.3272 48.788 47.272 48.03 48.03C47.272 48.788 46.3272 49.167 45.1955 49.167H13.8051ZM16.6414 40.2789H42.3592L34.417 29.6896L27.042 39.003L22.1253 33.0931L16.6414 40.2789ZM41.792 22.1253V17.2086H36.8753V14.7503H41.792V9.83362H44.2503V14.7503H49.167V17.2086H44.2503V22.1253H41.792Z" fill="#80559A"/>
</g>
</svg>
