<svg width="26" height="26" viewBox="0 0 26 26" fill="none" xmlns="http://www.w3.org/2000/svg">
<mask id="mask0_855_743" style="mask-type:alpha" maskUnits="userSpaceOnUse" x="0" y="0" width="26" height="26">
<rect width="25.0435" height="25.0435" fill="#D9D9D9"/>
</mask>
<g mask="url(#mask0_855_743)">
<path d="M19.8261 7.30433V5.21737H17.7391V3.13041H19.8261V1.04346H21.913V3.13041H24V5.21737H21.913V7.30433H19.8261ZM11.4782 18.2608C12.7826 18.2608 13.8913 17.8043 14.8043 16.8913C15.7174 15.9782 16.1739 14.8695 16.1739 13.5652C16.1739 12.2608 15.7174 11.1522 14.8043 10.2391C13.8913 9.32607 12.7826 8.86954 11.4782 8.86954C10.1739 8.86954 9.0652 9.32607 8.15215 10.2391C7.23911 11.1522 6.78259 12.2608 6.78259 13.5652C6.78259 14.8695 7.23911 15.9782 8.15215 16.8913C9.0652 17.8043 10.1739 18.2608 11.4782 18.2608ZM11.4782 16.1739C10.7478 16.1739 10.1304 15.9217 9.62607 15.4174C9.12172 14.913 8.86954 14.2956 8.86954 13.5652C8.86954 12.8348 9.12172 12.2174 9.62607 11.713C10.1304 11.2087 10.7478 10.9565 11.4782 10.9565C12.2087 10.9565 12.8261 11.2087 13.3304 11.713C13.8348 12.2174 14.0869 12.8348 14.0869 13.5652C14.0869 14.2956 13.8348 14.913 13.3304 15.4174C12.8261 15.9217 12.2087 16.1739 11.4782 16.1739ZM3.13041 21.913C2.5565 21.913 2.0652 21.7087 1.6565 21.3C1.2478 20.8913 1.04346 20.4 1.04346 19.8261V7.30433C1.04346 6.73041 1.2478 6.23911 1.6565 5.83041C2.0652 5.42172 2.5565 5.21737 3.13041 5.21737H6.41737L8.34781 3.13041H15.6522V7.30433H17.7391V9.39128H21.913V19.8261C21.913 20.4 21.7087 20.8913 21.3 21.3C20.8913 21.7087 20.4 21.913 19.8261 21.913H3.13041Z" fill="white"/>
</g>
</svg>
