<svg width="59" height="59" viewBox="0 0 59 59" fill="none" xmlns="http://www.w3.org/2000/svg">
<mask id="mask0_1126_631" style="mask-type:alpha" maskUnits="userSpaceOnUse" x="0" y="0" width="59" height="59">
<rect width="59" height="59" fill="#D9D9D9"/>
</mask>
<g mask="url(#mask0_1126_631)">
<path d="M13.8049 49.1673C12.6733 49.1673 11.7285 48.7883 10.9705 48.0303C10.2125 47.2724 9.8335 46.3275 9.8335 45.1959V13.8054C9.8335 12.6738 10.2125 11.729 10.9705 10.971C11.7285 10.213 12.6733 9.83398 13.8049 9.83398H32.7151C32.1476 10.7731 31.7221 11.7595 31.4386 12.7932C31.155 13.8269 31.0133 14.8891 31.0133 15.9798C31.0133 19.3174 32.1802 22.1531 34.5139 24.4869C36.8477 26.8207 39.6834 27.9876 43.021 27.9876C44.1117 27.9876 45.1739 27.8458 46.2076 27.5623C47.2413 27.2787 48.2278 26.8532 49.1668 26.2858V45.1959C49.1668 46.3275 48.7878 47.2724 48.0299 48.0303C47.2719 48.7883 46.3271 49.1673 45.1954 49.1673H13.8049ZM16.6412 40.2792H42.3591L34.4168 29.6899L27.0418 39.0033L22.1252 33.0935L16.6412 40.2792ZM41.7918 22.1257V17.209H36.8752V14.7507H41.7918V9.83398H44.2502V14.7507H49.1668V17.209H44.2502V22.1257H41.7918Z" fill="#C9C9C9"/>
</g>
</svg>
