<svg width="36" height="36" viewBox="0 0 36 36" fill="none" xmlns="http://www.w3.org/2000/svg">
<rect width="36" height="36" rx="8" fill="#FF2222"/>
<mask id="mask0_649_284" style="mask-type:alpha" maskUnits="userSpaceOnUse" x="6" y="5" width="26" height="26">
<rect x="6" y="5" width="26" height="26" fill="#D9D9D9"/>
</mask>
<g mask="url(#mask0_649_284)">
<path d="M23.3333 20.1667C22.4306 20.1667 21.6632 19.8507 21.0312 19.2188C20.3993 18.5868 20.0833 17.8195 20.0833 16.9167C20.0833 16.0139 20.3993 15.2466 21.0312 14.6146C21.6632 13.9827 22.4306 13.6667 23.3333 13.6667C24.2361 13.6667 25.0035 13.9827 25.6354 14.6146C26.2674 15.2466 26.5833 16.0139 26.5833 16.9167C26.5833 17.8195 26.2674 18.5868 25.6354 19.2188C25.0035 19.8507 24.2361 20.1667 23.3333 20.1667ZM16.8333 26.6667V24.6084C16.8333 24.2292 16.9236 23.8681 17.1042 23.525C17.2847 23.182 17.5375 22.9112 17.8625 22.7125C18.675 22.225 19.5372 21.8594 20.449 21.6157C21.3608 21.3719 22.3222 21.25 23.3333 21.25C24.3444 21.25 25.3059 21.3719 26.2177 21.6157C27.1295 21.8594 27.9917 22.225 28.8042 22.7125C29.1292 22.9112 29.3819 23.182 29.5625 23.525C29.7431 23.8681 29.8333 24.2292 29.8333 24.6084V26.6667H16.8333ZM19.1625 24.5H27.5042C26.8722 24.1389 26.2042 23.8681 25.5 23.6875C24.7958 23.507 24.0736 23.4167 23.3333 23.4167C22.5931 23.4167 21.8708 23.507 21.1667 23.6875C20.4625 23.8681 19.7944 24.1389 19.1625 24.5ZM23.3333 18C23.6403 18 23.8976 17.8962 24.1052 17.6886C24.3128 17.4809 24.4167 17.2237 24.4167 16.9167C24.4167 16.6098 24.3128 16.3525 24.1052 16.1448C23.8976 15.9372 23.6403 15.8334 23.3333 15.8334C23.0264 15.8334 22.7691 15.9372 22.5615 16.1448C22.3538 16.3525 22.25 16.6098 22.25 16.9167C22.25 17.2237 22.3538 17.4809 22.5615 17.6886C22.7691 17.8962 23.0264 18 23.3333 18ZM9.25 20.1667V18H17.9167V20.1667H9.25ZM9.25 11.5V9.33337H22.25V11.5H9.25ZM18.025 15.8334H9.25V13.6667H19C18.7472 13.9737 18.5441 14.3077 18.3906 14.6688C18.2372 15.0299 18.1153 15.4181 18.025 15.8334Z" fill="white"/>
</g>
</svg>
