<svg width="16" height="16" viewBox="0 0 16 16" fill="none" xmlns="http://www.w3.org/2000/svg">
<mask id="mask0_419_1573" style="mask-type:alpha" maskUnits="userSpaceOnUse" x="0" y="0" width="16" height="16">
<rect width="16" height="16" fill="#D9D9D9"/>
</mask>
<g mask="url(#mask0_419_1573)">
<path d="M12 10.5002C12 11.6557 11.5944 12.6391 10.7833 13.4502C9.97218 14.2613 8.98885 14.6668 7.83329 14.6668C6.67774 14.6668 5.6944 14.2613 4.88329 13.4502C4.07218 12.6391 3.66663 11.6557 3.66663 10.5002V4.3335C3.66663 3.50016 3.95829 2.79183 4.54163 2.2085C5.12496 1.62516 5.83329 1.3335 6.66663 1.3335C7.49996 1.3335 8.20829 1.62516 8.79163 2.2085C9.37496 2.79183 9.66663 3.50016 9.66663 4.3335V10.1668C9.66663 10.6779 9.48885 11.1113 9.13329 11.4668C8.77774 11.8224 8.34441 12.0002 7.83329 12.0002C7.32218 12.0002 6.88885 11.8224 6.53329 11.4668C6.17774 11.1113 5.99996 10.6779 5.99996 10.1668V4.00016H7.33329V10.1668C7.33329 10.3113 7.38052 10.4307 7.47496 10.5252C7.56941 10.6196 7.68885 10.6668 7.83329 10.6668C7.97774 10.6668 8.09718 10.6196 8.19163 10.5252C8.28607 10.4307 8.33329 10.3113 8.33329 10.1668V4.3335C8.32218 3.86683 8.15829 3.47238 7.84163 3.15016C7.52496 2.82794 7.13329 2.66683 6.66663 2.66683C6.19996 2.66683 5.80552 2.82794 5.48329 3.15016C5.16107 3.47238 4.99996 3.86683 4.99996 4.3335V10.5002C4.98885 11.2891 5.26107 11.9585 5.81663 12.5085C6.37218 13.0585 7.0444 13.3335 7.83329 13.3335C8.61107 13.3335 9.27218 13.0585 9.81663 12.5085C10.3611 11.9585 10.6444 11.2891 10.6666 10.5002V4.00016H12V10.5002Z" fill="black"/>
</g>
</svg>
