<svg width="42" height="42" viewBox="0 0 42 42" fill="none" xmlns="http://www.w3.org/2000/svg">
<rect width="42" height="42" rx="8" fill="#EBEFFF"/>
<mask id="mask0_1153_2129" style="mask-type:alpha" maskUnits="userSpaceOnUse" x="5" y="5" width="32" height="32">
<rect x="5.83347" y="5.8335" width="30.3333" height="30.3333" fill="#D9D9D9"/>
</mask>
<g mask="url(#mask0_1153_2129)">
<path d="M17.2084 26.6876C16.3237 26.6876 15.5759 26.3822 14.965 25.7713C14.3541 25.1604 14.0487 24.4126 14.0487 23.5279C14.0487 22.6432 14.3541 21.8954 14.965 21.2845C15.5759 20.6736 16.3237 20.3682 17.2084 20.3682C18.0931 20.3682 18.8409 20.6736 19.4518 21.2845C20.0627 21.8954 20.3681 22.6432 20.3681 23.5279C20.3681 24.4126 20.0627 25.1604 19.4518 25.7713C18.8409 26.3822 18.0931 26.6876 17.2084 26.6876ZM12.1529 33.639C11.4577 33.639 10.8626 33.3915 10.3676 32.8965C9.87259 32.4014 9.62508 31.8063 9.62508 31.1112V13.4168C9.62508 12.7216 9.87259 12.1265 10.3676 11.6315C10.8626 11.1365 11.4577 10.889 12.1529 10.889H13.4167V8.36121H15.9445V10.889H26.0556V8.36121H28.5834V10.889H29.8473C30.5424 10.889 31.1375 11.1365 31.6325 11.6315C32.1276 12.1265 32.3751 12.7216 32.3751 13.4168V31.1112C32.3751 31.8063 32.1276 32.4014 31.6325 32.8965C31.1375 33.3915 30.5424 33.639 29.8473 33.639H12.1529ZM12.1529 31.1112H29.8473V18.4723H12.1529V31.1112ZM12.1529 15.9445H29.8473V13.4168H12.1529V15.9445Z" fill="#233681"/>
</g>
</svg>
