<svg width="34" height="34" viewBox="0 0 34 34" fill="none" xmlns="http://www.w3.org/2000/svg">
<path d="M4.0481 33.6191C3.03296 33.6191 2.16394 33.2577 1.44104 32.5348C0.71814 31.8119 0.356689 30.9429 0.356689 29.9277V4.08789C0.356689 3.07275 0.71814 2.20374 1.44104 1.48084C2.16394 0.757935 3.03296 0.396484 4.0481 0.396484H29.8879C30.9031 0.396484 31.7721 0.757935 32.495 1.48084C33.2179 2.20374 33.5793 3.07275 33.5793 4.08789V29.9277C33.5793 30.9429 33.2179 31.8119 32.495 32.5348C31.7721 33.2577 30.9031 33.6191 29.8879 33.6191H4.0481ZM5.8938 18.0691L13.2766 10.6863L20.6594 18.0691L28.0422 10.6863L29.8879 12.532V4.08789H4.0481V16.2234L5.8938 18.0691ZM4.0481 29.9277H29.8879V17.7461L28.0422 15.9004L20.6594 23.2832L13.2766 15.9004L5.8938 23.2832L4.0481 21.4375V29.9277ZM4.0481 29.9277V17.7461V21.4375V4.08789V29.9277Z" fill="#059989"/>
</svg>
