<svg width="12" height="14" viewBox="0 0 12 14" fill="none" xmlns="http://www.w3.org/2000/svg">
<path d="M1.33333 13.6693C0.966667 13.6693 0.652778 13.5387 0.391667 13.2776C0.130556 13.0165 0 12.7026 0 12.3359V3.0026C0 2.63594 0.130556 2.32205 0.391667 2.06094C0.652778 1.79983 0.966667 1.66927 1.33333 1.66927H2V0.335938H3.33333V1.66927H8.66667V0.335938H10V1.66927H10.6667C11.0333 1.66927 11.3472 1.79983 11.6083 2.06094C11.8694 2.32205 12 2.63594 12 3.0026V12.3359C12 12.7026 11.8694 13.0165 11.6083 13.2776C11.3472 13.5387 11.0333 13.6693 10.6667 13.6693H1.33333ZM1.33333 12.3359H10.6667V5.66927H1.33333V12.3359ZM1.33333 4.33594H10.6667V3.0026H1.33333V4.33594Z" fill="#00B58D"/>
</svg>
