<svg width="33" height="33" viewBox="0 0 33 33" fill="none" xmlns="http://www.w3.org/2000/svg">
<mask id="mask0_755_85" style="mask-type:alpha" maskUnits="userSpaceOnUse" x="0" y="0" width="33" height="33">
<rect width="33" height="33" fill="#1B2A64"/>
</mask>
<g mask="url(#mask0_755_85)">
<path d="M8.34268 31.6066C7.51182 31.6066 6.80054 31.3108 6.20887 30.7191C5.61719 30.1274 5.32135 29.4162 5.32135 28.5853V7.43598C5.32135 6.60511 5.61719 5.89384 6.20887 5.30216C6.80054 4.71048 7.51182 4.41464 8.34268 4.41464H9.85335V2.90398C9.85335 2.47596 9.99812 2.11717 10.2877 1.82763C10.5772 1.53808 10.936 1.39331 11.364 1.39331C11.792 1.39331 12.1508 1.53808 12.4404 1.82763C12.7299 2.11717 12.8747 2.47596 12.8747 2.90398V4.41464H24.96V2.90398C24.96 2.47596 25.1048 2.11717 25.3943 1.82763C25.6839 1.53808 26.0427 1.39331 26.4707 1.39331C26.8987 1.39331 27.2575 1.53808 27.547 1.82763C27.8366 2.11717 27.9814 2.47596 27.9814 2.90398V4.41464H29.492C30.3229 4.41464 31.0342 4.71048 31.6258 5.30216C32.2175 5.89384 32.5134 6.60511 32.5134 7.43598V28.5853C32.5134 29.4162 32.2175 30.1274 31.6258 30.7191C31.0342 31.3108 30.3229 31.6066 29.492 31.6066H8.34268ZM8.34268 28.5853H29.492V13.4786H8.34268V28.5853ZM8.34268 10.4573H29.492V7.43598H8.34268V10.4573ZM18.9174 19.5213C18.4893 19.5213 18.1305 19.3765 17.841 19.087C17.5515 18.7974 17.4067 18.4387 17.4067 18.0106C17.4067 17.5826 17.5515 17.2238 17.841 16.9343C18.1305 16.6447 18.4893 16.5 18.9174 16.5C19.3454 16.5 19.7042 16.6447 19.9937 16.9343C20.2832 17.2238 20.428 17.5826 20.428 18.0106C20.428 18.4387 20.2832 18.7974 19.9937 19.087C19.7042 19.3765 19.3454 19.5213 18.9174 19.5213ZM12.8747 19.5213C12.4467 19.5213 12.0879 19.3765 11.7983 19.087C11.5088 18.7974 11.364 18.4387 11.364 18.0106C11.364 17.5826 11.5088 17.2238 11.7983 16.9343C12.0879 16.6447 12.4467 16.5 12.8747 16.5C13.3027 16.5 13.6615 16.6447 13.951 16.9343C14.2406 17.2238 14.3854 17.5826 14.3854 18.0106C14.3854 18.4387 14.2406 18.7974 13.951 19.087C13.6615 19.3765 13.3027 19.5213 12.8747 19.5213ZM24.96 19.5213C24.532 19.5213 24.1732 19.3765 23.8837 19.087C23.5941 18.7974 23.4494 18.4387 23.4494 18.0106C23.4494 17.5826 23.5941 17.2238 23.8837 16.9343C24.1732 16.6447 24.532 16.5 24.96 16.5C25.388 16.5 25.7468 16.6447 26.0364 16.9343C26.3259 17.2238 26.4707 17.5826 26.4707 18.0106C26.4707 18.4387 26.3259 18.7974 26.0364 19.087C25.7468 19.3765 25.388 19.5213 24.96 19.5213ZM18.9174 25.564C18.4893 25.564 18.1305 25.4192 17.841 25.1297C17.5515 24.8401 17.4067 24.4813 17.4067 24.0533C17.4067 23.6253 17.5515 23.2665 17.841 22.977C18.1305 22.6874 18.4893 22.5426 18.9174 22.5426C19.3454 22.5426 19.7042 22.6874 19.9937 22.977C20.2832 23.2665 20.428 23.6253 20.428 24.0533C20.428 24.4813 20.2832 24.8401 19.9937 25.1297C19.7042 25.4192 19.3454 25.564 18.9174 25.564ZM12.8747 25.564C12.4467 25.564 12.0879 25.4192 11.7983 25.1297C11.5088 24.8401 11.364 24.4813 11.364 24.0533C11.364 23.6253 11.5088 23.2665 11.7983 22.977C12.0879 22.6874 12.4467 22.5426 12.8747 22.5426C13.3027 22.5426 13.6615 22.6874 13.951 22.977C14.2406 23.2665 14.3854 23.6253 14.3854 24.0533C14.3854 24.4813 14.2406 24.8401 13.951 25.1297C13.6615 25.4192 13.3027 25.564 12.8747 25.564ZM24.96 25.564C24.532 25.564 24.1732 25.4192 23.8837 25.1297C23.5941 24.8401 23.4494 24.4813 23.4494 24.0533C23.4494 23.6253 23.5941 23.2665 23.8837 22.977C24.1732 22.6874 24.532 22.5426 24.96 22.5426C25.388 22.5426 25.7468 22.6874 26.0364 22.977C26.3259 23.2665 26.4707 23.6253 26.4707 24.0533C26.4707 24.4813 26.3259 24.8401 26.0364 25.1297C25.7468 25.4192 25.388 25.564 24.96 25.564Z" fill="#1B2A64"/>
</g>
</svg>
