<svg width="26" height="26" viewBox="0 0 26 26" fill="none" xmlns="http://www.w3.org/2000/svg">
<mask id="mask0_620_194" style="mask-type:alpha" maskUnits="userSpaceOnUse" x="0" y="0" width="26" height="26">
<rect width="26" height="26" fill="#D9D9D9"/>
</mask>
<g mask="url(#mask0_620_194)">
<path d="M6.49999 15.1667H19.5V13.0001H6.49999V15.1667ZM6.49999 11.9167H19.5V9.75008H6.49999V11.9167ZM6.49999 8.66675H19.5V6.50008H6.49999V8.66675ZM23.8333 23.8334L19.5 19.5001H4.33332C3.73749 19.5001 3.22742 19.2879 2.80311 18.8636C2.37881 18.4393 2.16666 17.9292 2.16666 17.3334V4.33341C2.16666 3.73758 2.37881 3.22751 2.80311 2.80321C3.22742 2.3789 3.73749 2.16675 4.33332 2.16675H21.6667C22.2625 2.16675 22.7726 2.3789 23.1969 2.80321C23.6212 3.22751 23.8333 3.73758 23.8333 4.33341V23.8334ZM4.33332 17.3334H20.4208L21.6667 18.5522V4.33341H4.33332V17.3334Z" fill="white"/>
</g>
</svg>
