<svg width="26" height="26" viewBox="0 0 26 26" fill="none" xmlns="http://www.w3.org/2000/svg">
<mask id="mask0_419_1996" style="mask-type:alpha" maskUnits="userSpaceOnUse" x="0" y="0" width="26" height="26">
<rect width="26" height="26" fill="#D9D9D9"/>
</mask>
<g mask="url(#mask0_419_1996)">
<path d="M5.41667 22.75C4.82083 22.75 4.31076 22.5378 3.88646 22.1135C3.46215 21.6892 3.25 21.1792 3.25 20.5833V16.25C3.25 15.6542 3.46215 15.1441 3.88646 14.7198C4.31076 14.2955 4.82083 14.0833 5.41667 14.0833H20.5833C21.1792 14.0833 21.6892 14.2955 22.1135 14.7198C22.5378 15.1441 22.75 15.6542 22.75 16.25H5.41667V20.5833H16.25V22.75H5.41667ZM5.41667 11.9167C4.82083 11.9167 4.31076 11.7045 3.88646 11.2802C3.46215 10.8559 3.25 10.3458 3.25 9.75V5.41667C3.25 4.82083 3.46215 4.31076 3.88646 3.88646C4.31076 3.46215 4.82083 3.25 5.41667 3.25H20.5833C21.1792 3.25 21.6892 3.46215 22.1135 3.88646C22.5378 4.31076 22.75 4.82083 22.75 5.41667V9.75C22.75 10.3458 22.5378 10.8559 22.1135 11.2802C21.6892 11.7045 21.1792 11.9167 20.5833 11.9167H5.41667ZM5.41667 9.75H20.5833V5.41667H5.41667V9.75ZM20.5833 24.9167V22.75H18.4167V20.5833H20.5833V18.4167H22.75V20.5833H24.9167V22.75H22.75V24.9167H20.5833Z" fill="#1B2A64"/>
</g>
</svg>
