<svg width="14" height="14" viewBox="0 0 14 14" fill="none" xmlns="http://www.w3.org/2000/svg">
<path d="M11.3345 12.4453H1.55684V2.66768H7.4323L8.32117 1.77881H1.55684C1.3211 1.77881 1.09501 1.87246 0.928314 2.03915C0.761618 2.20585 0.667969 2.43194 0.667969 2.66768V12.4453C0.667969 12.681 0.761618 12.9071 0.928314 13.0738C1.09501 13.2405 1.3211 13.3342 1.55684 13.3342H11.3345C11.5702 13.3342 11.7963 13.2405 11.963 13.0738C12.1297 12.9071 12.2233 12.681 12.2233 12.4453V5.77874L11.3345 6.66761V12.4453Z" fill="#6FC7B7"/>
<path d="M13.7906 1.70802L12.2929 0.210271C12.2264 0.143619 12.1474 0.0907372 12.0605 0.0546551C11.9735 0.018573 11.8803 0 11.7862 0C11.6921 0 11.5989 0.018573 11.5119 0.0546551C11.425 0.0907372 11.346 0.143619 11.2795 0.210271L5.18631 6.33906L4.69299 8.4768C4.67197 8.58042 4.67418 8.68742 4.69946 8.79008C4.72474 8.89275 4.77245 8.98854 4.83917 9.07057C4.9059 9.15259 4.98997 9.21881 5.08534 9.26445C5.18072 9.3101 5.28502 9.33404 5.39075 9.33456C5.4454 9.34058 5.50055 9.34058 5.5552 9.33456L7.71072 8.85901L13.7906 2.72134C13.8573 2.65487 13.9101 2.5759 13.9462 2.48896C13.9823 2.40202 14.0009 2.30881 14.0009 2.21468C14.0009 2.12055 13.9823 2.02734 13.9462 1.9404C13.9101 1.85346 13.8573 1.77449 13.7906 1.70802ZM7.2485 8.03681L5.62186 8.3968L5.99963 6.78349L10.5862 2.16579L11.8395 3.41911L7.2485 8.03681ZM12.3417 2.91689L11.0884 1.66358L11.7773 0.961369L13.0395 2.22357L12.3417 2.91689Z" fill="#6FC7B7"/>
</svg>
