<svg width="14" height="14" viewBox="0 0 14 14" fill="none" xmlns="http://www.w3.org/2000/svg">
<path d="M6.99992 6.99967C6.43325 6.99967 5.95825 6.80801 5.57492 6.42467C5.19159 6.04134 4.99992 5.56634 4.99992 4.99967C4.99992 4.44412 5.19159 3.9719 5.57492 3.58301C5.95825 3.19412 6.43325 2.99967 6.99992 2.99967C7.55547 2.99967 8.0277 3.19412 8.41658 3.58301C8.80547 3.9719 8.99992 4.44412 8.99992 4.99967C8.99992 5.56634 8.80547 6.04134 8.41658 6.42467C8.0277 6.80801 7.55547 6.99967 6.99992 6.99967ZM6.99992 5.66634C7.18881 5.66634 7.34714 5.60245 7.47492 5.47467C7.6027 5.3469 7.66658 5.18856 7.66658 4.99967C7.66658 4.81079 7.6027 4.65245 7.47492 4.52467C7.34714 4.3969 7.18881 4.33301 6.99992 4.33301C6.81103 4.33301 6.6527 4.3969 6.52492 4.52467C6.39714 4.65245 6.33325 4.81079 6.33325 4.99967C6.33325 5.18856 6.39714 5.3469 6.52492 5.47467C6.6527 5.60245 6.81103 5.66634 6.99992 5.66634ZM2.99992 10.9997V9.73301C2.99992 9.49967 3.05825 9.28023 3.17492 9.07467C3.29159 8.86912 3.44992 8.70523 3.64992 8.58301C4.16103 8.28301 4.69714 8.05523 5.25825 7.89967C5.81936 7.74412 6.39992 7.66634 6.99992 7.66634C7.59992 7.66634 8.18047 7.74412 8.74158 7.89967C9.3027 8.05523 9.83881 8.28301 10.3499 8.58301C10.5499 8.70523 10.7083 8.86912 10.8249 9.07467C10.9416 9.28023 10.9999 9.49967 10.9999 9.73301V10.9997H2.99992ZM6.99992 8.99967C6.54436 8.99967 6.09992 9.05523 5.66658 9.16634C5.23325 9.27745 4.82214 9.44412 4.43325 9.66634H9.56658C9.1777 9.44412 8.76658 9.27745 8.33325 9.16634C7.89992 9.05523 7.45547 8.99967 6.99992 8.99967ZM1.66659 13.6663C1.29992 13.6663 0.98603 13.5358 0.724919 13.2747C0.463808 13.0136 0.333252 12.6997 0.333252 12.333V9.66634H1.66659V12.333H4.33325V13.6663H1.66659ZM0.333252 4.33301V1.66634C0.333252 1.29967 0.463808 0.985786 0.724919 0.724674C0.98603 0.463563 1.29992 0.333008 1.66659 0.333008H4.33325V1.66634H1.66659V4.33301H0.333252ZM9.66658 13.6663V12.333H12.3333V9.66634H13.6666V12.333C13.6666 12.6997 13.536 13.0136 13.2749 13.2747C13.0138 13.5358 12.6999 13.6663 12.3333 13.6663H9.66658ZM12.3333 4.33301V1.66634H9.66658V0.333008H12.3333C12.6999 0.333008 13.0138 0.463563 13.2749 0.724674C13.536 0.985786 13.6666 1.29967 13.6666 1.66634V4.33301H12.3333Z" fill="#059989"/>
</svg>
