<svg width="26" height="26" viewBox="0 0 26 26" fill="none" xmlns="http://www.w3.org/2000/svg">
<mask id="mask0_620_161" style="mask-type:alpha" maskUnits="userSpaceOnUse" x="0" y="0" width="26" height="26">
<rect width="26" height="26" fill="#2E2E2E"/>
</mask>
<g mask="url(#mask0_620_161)">
<path d="M8.66669 15.1667H17.3334V14.5709C17.3334 13.7765 16.9361 13.1355 16.1417 12.648C15.3472 12.1605 14.3 11.9167 13 11.9167C11.7 11.9167 10.6528 12.1605 9.85835 12.648C9.06391 13.1355 8.66669 13.7765 8.66669 14.5709V15.1667ZM13 10.8334C13.5959 10.8334 14.1059 10.6213 14.5302 10.197C14.9545 9.77265 15.1667 9.26258 15.1667 8.66675C15.1667 8.07091 14.9545 7.56084 14.5302 7.13654C14.1059 6.71223 13.5959 6.50008 13 6.50008C12.4042 6.50008 11.8941 6.71223 11.4698 7.13654C11.0455 7.56084 10.8334 8.07091 10.8334 8.66675C10.8334 9.26258 11.0455 9.77265 11.4698 10.197C11.8941 10.6213 12.4042 10.8334 13 10.8334ZM2.16669 23.8334V4.33341C2.16669 3.73758 2.37884 3.22751 2.80315 2.80321C3.22745 2.3789 3.73752 2.16675 4.33335 2.16675H21.6667C22.2625 2.16675 22.7726 2.3789 23.1969 2.80321C23.6212 3.22751 23.8334 3.73758 23.8334 4.33341V17.3334C23.8334 17.9292 23.6212 18.4393 23.1969 18.8636C22.7726 19.2879 22.2625 19.5001 21.6667 19.5001H6.50002L2.16669 23.8334ZM5.57919 17.3334H21.6667V4.33341H4.33335V18.5522L5.57919 17.3334Z" fill="#2E2E2E"/>
</g>
</svg>
