<svg width="25" height="25" viewBox="0 0 25 25" fill="none" xmlns="http://www.w3.org/2000/svg">
<mask id="mask0_813_303" style="mask-type:alpha" maskUnits="userSpaceOnUse" x="0" y="0" width="25" height="25">
<rect x="0.147217" y="0.117676" width="24.7059" height="24.7059" fill="#D9D9D9"/>
</mask>
<g mask="url(#mask0_813_303)">
<path d="M1.17676 20.7059V16.5883C1.17676 16.005 1.37835 15.516 1.78154 15.1214C2.18472 14.7268 2.6694 14.5295 3.23558 14.5295H6.6069C6.95004 14.5295 7.27602 14.6153 7.58485 14.7868C7.89367 14.9584 8.14244 15.19 8.33117 15.4817C8.82872 16.1508 9.44208 16.6741 10.1712 17.0515C10.9004 17.429 11.6768 17.6177 12.5003 17.6177C13.341 17.6177 14.1259 17.429 14.8551 17.0515C15.5842 16.6741 16.189 16.1508 16.6694 15.4817C16.8924 15.19 17.1541 14.9584 17.4543 14.7868C17.7546 14.6153 18.0677 14.5295 18.3937 14.5295H21.765C22.3483 14.5295 22.8373 14.7268 23.2319 15.1214C23.6265 15.516 23.8238 16.005 23.8238 16.5883V20.7059H16.6179V18.364C16.0174 18.793 15.3698 19.1189 14.6749 19.342C13.9801 19.565 13.2552 19.6765 12.5003 19.6765C11.7625 19.6765 11.042 19.5607 10.3385 19.3291C9.63509 19.0975 8.98313 18.7672 8.38264 18.3383V20.7059H1.17676ZM12.5003 16.5883C11.8483 16.5883 11.2307 16.4382 10.6473 16.1379C10.064 15.8377 9.57504 15.4216 9.18043 14.8898C8.88877 14.4608 8.52418 14.122 8.08668 13.8732C7.64918 13.6244 7.17308 13.5001 6.65838 13.5001C7.03583 12.8653 7.83362 12.3634 9.05176 11.9945C10.2699 11.6257 11.4194 11.4412 12.5003 11.4412C13.5812 11.4412 14.7307 11.6257 15.9488 11.9945C17.167 12.3634 17.9648 12.8653 18.3422 13.5001C17.8447 13.5001 17.3728 13.6244 16.9268 13.8732C16.4807 14.122 16.1118 14.4608 15.8201 14.8898C15.4427 15.4388 14.9623 15.8591 14.379 16.1508C13.7956 16.4425 13.1694 16.5883 12.5003 16.5883ZM4.26499 13.5001C3.40715 13.5001 2.67798 13.1998 2.07749 12.5993C1.477 11.9988 1.17676 11.2697 1.17676 10.4118C1.17676 9.53682 1.477 8.80337 2.07749 8.21145C2.67798 7.61954 3.40715 7.32359 4.26499 7.32359C5.13999 7.32359 5.87345 7.61954 6.46536 8.21145C7.05727 8.80337 7.35323 9.53682 7.35323 10.4118C7.35323 11.2697 7.05727 11.9988 6.46536 12.5993C5.87345 13.1998 5.13999 13.5001 4.26499 13.5001ZM20.7356 13.5001C19.8777 13.5001 19.1486 13.1998 18.5481 12.5993C17.9476 11.9988 17.6473 11.2697 17.6473 10.4118C17.6473 9.53682 17.9476 8.80337 18.5481 8.21145C19.1486 7.61954 19.8777 7.32359 20.7356 7.32359C21.6106 7.32359 22.344 7.61954 22.936 8.21145C23.5279 8.80337 23.8238 9.53682 23.8238 10.4118C23.8238 11.2697 23.5279 11.9988 22.936 12.5993C22.344 13.1998 21.6106 13.5001 20.7356 13.5001ZM12.5003 10.4118C11.6424 10.4118 10.9133 10.1116 10.3128 9.51109C9.7123 8.9106 9.41205 8.18143 9.41205 7.32359C9.41205 6.44859 9.7123 5.71513 10.3128 5.12322C10.9133 4.53131 11.6424 4.23535 12.5003 4.23535C13.3753 4.23535 14.1087 4.53131 14.7007 5.12322C15.2926 5.71513 15.5885 6.44859 15.5885 7.32359C15.5885 8.18143 15.2926 8.9106 14.7007 9.51109C14.1087 10.1116 13.3753 10.4118 12.5003 10.4118Z" fill="#E8DFFD"/>
</g>
</svg>
