<svg width="36" height="36" viewBox="0 0 36 36" fill="none" xmlns="http://www.w3.org/2000/svg">
<rect width="36" height="36" rx="8" fill="#4E81EE"/>
<mask id="mask0_649_283" style="mask-type:alpha" maskUnits="userSpaceOnUse" x="6" y="5" width="26" height="26">
<rect x="6" y="5" width="26" height="26" fill="#D9D9D9"/>
</mask>
<g mask="url(#mask0_649_283)">
<path d="M15.75 25.5833V23.4166H28.75V25.5833H15.75ZM15.75 19.0833V16.9166H28.75V19.0833H15.75ZM15.75 12.5833V10.4166H28.75V12.5833H15.75ZM11.4167 26.6666C10.8208 26.6666 10.3108 26.4544 9.88646 26.0301C9.46215 25.6058 9.25 25.0958 9.25 24.4999C9.25 23.9041 9.46215 23.394 9.88646 22.9697C10.3108 22.5454 10.8208 22.3333 11.4167 22.3333C12.0125 22.3333 12.5226 22.5454 12.9469 22.9697C13.3712 23.394 13.5833 23.9041 13.5833 24.4999C13.5833 25.0958 13.3712 25.6058 12.9469 26.0301C12.5226 26.4544 12.0125 26.6666 11.4167 26.6666ZM11.4167 20.1666C10.8208 20.1666 10.3108 19.9544 9.88646 19.5301C9.46215 19.1058 9.25 18.5958 9.25 17.9999C9.25 17.4041 9.46215 16.894 9.88646 16.4697C10.3108 16.0454 10.8208 15.8333 11.4167 15.8333C12.0125 15.8333 12.5226 16.0454 12.9469 16.4697C13.3712 16.894 13.5833 17.4041 13.5833 17.9999C13.5833 18.5958 13.3712 19.1058 12.9469 19.5301C12.5226 19.9544 12.0125 20.1666 11.4167 20.1666ZM11.4167 13.6666C10.8208 13.6666 10.3108 13.4544 9.88646 13.0301C9.46215 12.6058 9.25 12.0958 9.25 11.4999C9.25 10.9041 9.46215 10.394 9.88646 9.96971C10.3108 9.5454 10.8208 9.33325 11.4167 9.33325C12.0125 9.33325 12.5226 9.5454 12.9469 9.96971C13.3712 10.394 13.5833 10.9041 13.5833 11.4999C13.5833 12.0958 13.3712 12.6058 12.9469 13.0301C12.5226 13.4544 12.0125 13.6666 11.4167 13.6666Z" fill="white"/>
</g>
</svg>
