<svg width="20" height="20" viewBox="0 0 20 20" fill="none" xmlns="http://www.w3.org/2000/svg">
<mask id="mask0_938_2826" style="mask-type:alpha" maskUnits="userSpaceOnUse" x="0" y="0" width="20" height="20">
<rect width="20" height="20" fill="#D9D9D9"/>
</mask>
<g mask="url(#mask0_938_2826)">
<path d="M6.66634 16.6665H13.333V14.1665C13.333 13.2498 13.0066 12.4651 12.3538 11.8123C11.7011 11.1596 10.9163 10.8332 9.99967 10.8332C9.08301 10.8332 8.29829 11.1596 7.64551 11.8123C6.99273 12.4651 6.66634 13.2498 6.66634 14.1665V16.6665ZM9.99967 9.1665C10.9163 9.1665 11.7011 8.84011 12.3538 8.18734C13.0066 7.53456 13.333 6.74984 13.333 5.83317V3.33317H6.66634V5.83317C6.66634 6.74984 6.99273 7.53456 7.64551 8.18734C8.29829 8.84011 9.08301 9.1665 9.99967 9.1665ZM3.33301 18.3332V16.6665H4.99967V14.1665C4.99967 13.3193 5.19759 12.5241 5.59342 11.7811C5.98926 11.038 6.54134 10.4443 7.24967 9.99984C6.54134 9.55539 5.98926 8.96164 5.59342 8.21859C5.19759 7.47553 4.99967 6.68039 4.99967 5.83317V3.33317H3.33301V1.6665H16.6663V3.33317H14.9997V5.83317C14.9997 6.68039 14.8018 7.47553 14.4059 8.21859C14.0101 8.96164 13.458 9.55539 12.7497 9.99984C13.458 10.4443 14.0101 11.038 14.4059 11.7811C14.8018 12.5241 14.9997 13.3193 14.9997 14.1665V16.6665H16.6663V18.3332H3.33301Z" fill="white"/>
</g>
</svg>
