<svg width="14" height="16" viewBox="0 0 14 16" fill="none" xmlns="http://www.w3.org/2000/svg">
<path d="M7.00101 6.876C7.84141 6.876 8.56084 6.57677 9.15931 5.9783C9.75777 5.37983 10.057 4.6604 10.057 3.82V1.528H3.94501V3.82C3.94501 4.6604 4.24424 5.37983 4.84271 5.9783C5.44117 6.57677 6.16061 6.876 7.00101 6.876ZM0.889008 15.28V13.752H2.41701V11.46C2.41701 10.6833 2.59846 9.95428 2.96136 9.27305C3.32426 8.59182 3.83041 8.04747 4.47981 7.64C3.83041 7.23253 3.32426 6.68818 2.96136 6.00695C2.59846 5.32572 2.41701 4.59673 2.41701 3.82V1.528H0.889008V0H13.113V1.528H11.585V3.82C11.585 4.59673 11.4036 5.32572 11.0407 6.00695C10.6778 6.68818 10.1716 7.23253 9.52221 7.64C10.1716 8.04747 10.6778 8.59182 11.0407 9.27305C11.4036 9.95428 11.585 10.6833 11.585 11.46V13.752H13.113V15.28H0.889008Z" fill="#FF0004"/>
</svg>
