<svg width="31" height="32" viewBox="0 0 31 32" fill="none" xmlns="http://www.w3.org/2000/svg">
<mask id="mask0_1153_2126" style="mask-type:alpha" maskUnits="userSpaceOnUse" x="0" y="0" width="31" height="32">
<rect x="0.000137329" y="0.833496" width="30.3333" height="30.3333" fill="#D9D9D9"/>
</mask>
<g mask="url(#mask0_1153_2126)">
<path d="M14.0001 14.7362C15.3904 14.7362 16.5806 14.2412 17.5706 13.2511C18.5607 12.2611 19.0557 11.0709 19.0557 9.68065V5.88898H8.94456V9.68065C8.94456 11.0709 9.43959 12.2611 10.4296 13.2511C11.4197 14.2412 12.6098 14.7362 14.0001 14.7362ZM3.88901 28.639V26.1112H6.41679V22.3195C6.41679 21.0346 6.71696 19.8286 7.31731 18.7017C7.91765 17.5747 8.75498 16.6742 9.82929 16.0001C8.75498 15.326 7.91765 14.4255 7.31731 13.2985C6.71696 12.1716 6.41679 10.9656 6.41679 9.68065V5.88898H3.88901V3.36121H24.1112V5.88898H21.5835V9.68065C21.5835 10.9656 21.2833 12.1716 20.6829 13.2985C20.0826 14.4255 19.2453 15.326 18.171 16.0001C19.2453 16.6742 20.0826 17.5747 20.6829 18.7017C21.2833 19.8286 21.5835 21.0346 21.5835 22.3195V26.1112H24.1112V28.639H3.88901Z" fill="#FF0004"/>
</g>
</svg>
