<svg width="26" height="26" viewBox="0 0 26 26" fill="none" xmlns="http://www.w3.org/2000/svg">
<mask id="mask0_1420_143" style="mask-type:alpha" maskUnits="userSpaceOnUse" x="0" y="0" width="26" height="26">
<rect x="10.5356" width="18" height="18" transform="rotate(34.3324 10.5356 0)" fill="#D9D9D9"/>
</mask>
<g mask="url(#mask0_1420_143)">
<path d="M15.3698 14.2L15.7625 16.2847L14.9165 17.5233L11.8198 15.4084L9.28185 19.1244L8.23952 19.3207L8.04318 18.2784L10.5811 14.5624L7.48447 12.4474L8.33046 11.2087L10.4151 10.8161L13.3761 6.48072L12.7567 6.05772L13.6027 4.81905L19.7961 9.049L18.9501 10.2877L18.3308 9.86467L15.3698 14.2ZM10.0956 12.4143L13.9974 15.0791L13.7716 13.8805L17.0921 9.01868L14.6147 7.3267L11.2942 12.1885L10.0956 12.4143Z" fill="white"/>
</g>
</svg>
