<svg width="27" height="27" viewBox="0 0 27 27" fill="none" xmlns="http://www.w3.org/2000/svg">
<rect width="27" height="27" rx="8" fill="#FCAE16"/>
<mask id="mask0_1139_1681" style="mask-type:alpha" maskUnits="userSpaceOnUse" x="4" y="3" width="20" height="21">
<rect x="4.50006" y="3.74988" width="19.5" height="19.5" fill="#D9D9D9"/>
</mask>
<g mask="url(#mask0_1139_1681)">
<path d="M21.1563 17.1561C20.8178 17.1561 20.53 17.0376 20.293 16.8007C20.0561 16.5637 19.9376 16.2759 19.9376 15.9374V13.9061C19.9376 13.5676 20.0561 13.2798 20.293 13.0428C20.53 12.8059 20.8178 12.6874 21.1563 12.6874C21.4949 12.6874 21.7826 12.8059 22.0196 13.0428C22.2566 13.2798 22.3751 13.5676 22.3751 13.9061V15.9374C22.3751 16.2759 22.2566 16.5637 22.0196 16.8007C21.7826 17.0376 21.4949 17.1561 21.1563 17.1561ZM20.7501 19.9999V18.7405C20.0594 18.6322 19.4805 18.3173 19.0133 17.796C18.5462 17.2746 18.3126 16.6551 18.3126 15.9374H19.1251C19.1251 16.5061 19.3214 16.9869 19.7141 17.3796C20.1068 17.7723 20.5876 17.9686 21.1563 17.9686C21.7251 17.9686 22.2058 17.7723 22.5985 17.3796C22.9912 16.9869 23.1876 16.5061 23.1876 15.9374H24.0001C24.0001 16.6551 23.7665 17.2746 23.2993 17.796C22.8321 18.3173 22.2532 18.6322 21.5626 18.7405V19.9999H20.7501ZM11.8126 13.4999C10.9188 13.4999 10.1537 13.1816 9.51725 12.5452C8.88079 11.9087 8.56256 11.1436 8.56256 10.2499C8.56256 9.35613 8.88079 8.59102 9.51725 7.95457C10.1537 7.31811 10.9188 6.99988 11.8126 6.99988C12.0021 6.99988 12.1883 7.01342 12.3712 7.0405C12.554 7.06759 12.7334 7.11498 12.9094 7.18269C12.5574 7.60248 12.2865 8.07306 12.0969 8.59441C11.9074 9.11576 11.8126 9.66759 11.8126 10.2499C11.8126 10.8322 11.9074 11.384 12.0969 11.9053C12.2865 12.4267 12.5574 12.8973 12.9094 13.3171C12.7334 13.3848 12.554 13.4322 12.3712 13.4593C12.1883 13.4863 12.0021 13.4999 11.8126 13.4999ZM5.31256 19.9999V17.7452C5.31256 17.2848 5.42767 16.8582 5.65787 16.4655C5.88808 16.0728 6.20631 15.7749 6.61256 15.5718C7.12714 15.3009 7.68574 15.0673 8.28834 14.871C8.89095 14.6746 9.5511 14.5223 10.2688 14.4139C9.72714 14.7931 9.30735 15.2738 9.00944 15.8561C8.71152 16.4384 8.56256 17.0681 8.56256 17.7452V19.9999H5.31256ZM16.6876 13.4999C15.7938 13.4999 15.0287 13.1816 14.3922 12.5452C13.7558 11.9087 13.4376 11.1436 13.4376 10.2499C13.4376 9.35613 13.7558 8.59102 14.3922 7.95457C15.0287 7.31811 15.7938 6.99988 16.6876 6.99988C17.5813 6.99988 18.3464 7.31811 18.9829 7.95457C19.6193 8.59102 19.9376 9.35613 19.9376 10.2499C19.9376 11.1436 19.6193 11.9087 18.9829 12.5452C18.3464 13.1816 17.5813 13.4999 16.6876 13.4999ZM16.6876 11.8749C17.1344 11.8749 17.517 11.7158 17.8352 11.3975C18.1534 11.0793 18.3126 10.6968 18.3126 10.2499C18.3126 9.803 18.1534 9.42045 17.8352 9.10222C17.517 8.78399 17.1344 8.62488 16.6876 8.62488C16.2407 8.62488 15.8581 8.78399 15.5399 9.10222C15.2217 9.42045 15.0626 9.803 15.0626 10.2499C15.0626 10.6968 15.2217 11.0793 15.5399 11.3975C15.8581 11.7158 16.2407 11.8749 16.6876 11.8749ZM10.1876 19.9999V17.7452C10.1876 17.2848 10.3027 16.8582 10.5329 16.4655C10.7631 16.0728 11.0813 15.7749 11.4876 15.5718C12.1782 15.2197 12.9602 14.9218 13.8337 14.678C14.7071 14.4343 15.6584 14.3124 16.6876 14.3124C16.8501 14.3124 17.0092 14.3158 17.1649 14.3225C17.3206 14.3293 17.473 14.3395 17.6219 14.353C17.4865 14.5968 17.3748 14.8507 17.2868 15.1147C17.1988 15.3788 17.1412 15.653 17.1141 15.9374H16.6876C15.7126 15.9374 14.8493 16.0593 14.0977 16.303C13.3462 16.5468 12.7266 16.7905 12.2391 17.0343C12.1037 17.102 11.9988 17.2001 11.9243 17.3288C11.8498 17.4574 11.8126 17.5962 11.8126 17.7452V18.3749H17.6423C17.8454 18.727 18.0959 19.0384 18.3938 19.3093C18.6917 19.5801 19.0235 19.8103 19.3891 19.9999H10.1876Z" fill="white"/>
</g>
</svg>
