<svg width="36" height="36" viewBox="0 0 36 36" fill="none" xmlns="http://www.w3.org/2000/svg">
<rect width="36" height="36" rx="8" fill="#634D95"/>
<mask id="mask0_1128_1162" style="mask-type:alpha" maskUnits="userSpaceOnUse" x="6" y="5" width="26" height="26">
<rect x="6" y="5" width="26" height="26" fill="#D9D9D9"/>
</mask>
<g mask="url(#mask0_1128_1162)">
<path d="M24.9583 27.75H26.0417V25.0416H28.75V23.9583H26.0417V21.25H24.9583V23.9583H22.25V25.0416H24.9583V27.75ZM25.5 29.9166C24.0014 29.9166 22.724 29.3885 21.6677 28.3323C20.6115 27.276 20.0833 25.9986 20.0833 24.5C20.0833 23.0014 20.6115 21.7239 21.6677 20.6677C22.724 19.6114 24.0014 19.0833 25.5 19.0833C26.9986 19.0833 28.276 19.6114 29.3323 20.6677C30.3885 21.7239 30.9167 23.0014 30.9167 24.5C30.9167 25.9986 30.3885 27.276 29.3323 28.3323C28.276 29.3885 26.9986 29.9166 25.5 29.9166ZM15.75 12.5833V10.4166H28.75V12.5833H15.75ZM11.4167 26.6666C10.8208 26.6666 10.3108 26.4545 9.88646 26.0302C9.46215 25.6059 9.25 25.0958 9.25 24.5C9.25 23.9041 9.46215 23.3941 9.88646 22.9698C10.3108 22.5455 10.8208 22.3333 11.4167 22.3333C12.0125 22.3333 12.5226 22.5455 12.9469 22.9698C13.3712 23.3941 13.5833 23.9041 13.5833 24.5C13.5833 25.0958 13.3712 25.6059 12.9469 26.0302C12.5226 26.4545 12.0125 26.6666 11.4167 26.6666ZM11.4167 20.1666C10.8208 20.1666 10.3108 19.9545 9.88646 19.5302C9.46215 19.1059 9.25 18.5958 9.25 18C9.25 17.4041 9.46215 16.8941 9.88646 16.4698C10.3108 16.0455 10.8208 15.8333 11.4167 15.8333C12.0125 15.8333 12.5226 16.0455 12.9469 16.4698C13.3712 16.8941 13.5833 17.4041 13.5833 18C13.5833 18.5958 13.3712 19.1059 12.9469 19.5302C12.5226 19.9545 12.0125 20.1666 11.4167 20.1666ZM11.4167 13.6666C10.8208 13.6666 10.3108 13.4545 9.88646 13.0302C9.46215 12.6059 9.25 12.0958 9.25 11.5C9.25 10.9041 9.46215 10.3941 9.88646 9.96977C10.3108 9.54547 10.8208 9.33331 11.4167 9.33331C12.0125 9.33331 12.5226 9.54547 12.9469 9.96977C13.3712 10.3941 13.5833 10.9041 13.5833 11.5C13.5833 12.0958 13.3712 12.6059 12.9469 13.0302C12.5226 13.4545 12.0125 13.6666 11.4167 13.6666ZM15.75 25.5833V23.4166H17.9979C17.9437 23.7778 17.9167 24.1389 17.9167 24.5C17.9167 24.8611 17.9437 25.2222 17.9979 25.5833H15.75ZM15.75 19.0833V16.9166H25.5C24.4708 16.9166 23.5049 17.1107 22.6021 17.4989C21.6993 17.8871 20.9049 18.4153 20.2187 19.0833H15.75Z" fill="white"/>
</g>
</svg>
