<svg width="22" height="22" viewBox="0 0 22 22" fill="none" xmlns="http://www.w3.org/2000/svg">
<mask id="mask0_1466_630" style="mask-type:alpha" maskUnits="userSpaceOnUse" x="0" y="0" width="22" height="22">
<rect width="22" height="22" fill="#D9D9D9"/>
</mask>
<g mask="url(#mask0_1466_630)">
<path d="M13.9335 10.0382L9.671 5.77565C9.88488 5.68398 10.1026 5.61523 10.3241 5.5694C10.5456 5.52357 10.771 5.50065 11.0002 5.50065C11.9016 5.50065 12.6616 5.81003 13.2804 6.42878C13.8991 7.04753 14.2085 7.8076 14.2085 8.70898C14.2085 8.93815 14.1856 9.1635 14.1397 9.38503C14.0939 9.60655 14.0252 9.82426 13.9335 10.0382ZM5.36266 15.6757C6.14183 15.0798 7.01266 14.61 7.97516 14.2663C8.93766 13.9225 9.946 13.7507 11.0002 13.7507C11.2752 13.7507 11.5387 13.7621 11.7908 13.785C12.0429 13.8079 12.3064 13.8423 12.5814 13.8882L10.5647 11.8715C9.84669 11.7798 9.23176 11.4781 8.71995 10.9663C8.20815 10.4545 7.90641 9.83954 7.81475 9.12148L5.20225 6.50898C4.71336 7.13537 4.33523 7.82669 4.06787 8.58294C3.80051 9.33919 3.66683 10.1451 3.66683 11.0007C3.66683 11.902 3.81579 12.75 4.1137 13.5444C4.41162 14.3388 4.82794 15.0493 5.36266 15.6757ZM16.7752 15.4923C17.2641 14.8659 17.646 14.1746 17.921 13.4184C18.196 12.6621 18.3335 11.8562 18.3335 11.0007C18.3335 8.96871 17.6193 7.2385 16.1908 5.81003C14.7623 4.38155 13.0321 3.66732 11.0002 3.66732C10.1446 3.66732 9.3387 3.80482 8.58245 4.07982C7.8262 4.35482 7.13488 4.73676 6.5085 5.22565L16.7752 15.4923ZM11.0002 20.1673C9.74738 20.1673 8.56336 19.9267 7.44808 19.4454C6.3328 18.9642 5.35884 18.3072 4.5262 17.4746C3.69357 16.642 3.03662 15.668 2.55537 14.5527C2.07412 13.4375 1.8335 12.2534 1.8335 11.0007C1.8335 9.73259 2.07412 8.54475 2.55537 7.43711C3.03662 6.32947 3.69357 5.35933 4.5262 4.52669C5.35884 3.69405 6.3328 3.03711 7.44808 2.55586C8.56336 2.07461 9.74738 1.83398 11.0002 1.83398C12.2682 1.83398 13.4561 2.07461 14.5637 2.55586C15.6713 3.03711 16.6415 3.69405 17.4741 4.52669C18.3068 5.35933 18.9637 6.32947 19.445 7.43711C19.9262 8.54475 20.1668 9.73259 20.1668 11.0007C20.1668 12.2534 19.9262 13.4375 19.445 14.5527C18.9637 15.668 18.3068 16.642 17.4741 17.4746C16.6415 18.3072 15.6713 18.9642 14.5637 19.4454C13.4561 19.9267 12.2682 20.1673 11.0002 20.1673ZM11.0002 18.334C11.8099 18.334 12.5738 18.2156 13.2918 17.9788C14.0099 17.742 14.6668 17.402 15.2627 16.959C14.6668 16.5159 14.0099 16.176 13.2918 15.9392C12.5738 15.7024 11.8099 15.584 11.0002 15.584C10.1904 15.584 9.42655 15.7024 8.7085 15.9392C7.99044 16.176 7.3335 16.5159 6.73766 16.959C7.3335 17.402 7.99044 17.742 8.7085 17.9788C9.42655 18.2156 10.1904 18.334 11.0002 18.334Z" fill="#263B8D"/>
</g>
</svg>
