<svg width="41" height="41" viewBox="0 0 41 41" fill="none" xmlns="http://www.w3.org/2000/svg">
<path d="M4.80493 40.1673C3.67328 40.1673 2.72846 39.7883 1.97048 39.0303C1.21249 38.2724 0.833496 37.3275 0.833496 36.1959V4.80542C0.833496 3.67377 1.21249 2.72895 1.97048 1.97096C2.72846 1.21298 3.67328 0.833984 4.80493 0.833984H23.7151C23.1476 1.77307 22.7221 2.75948 22.4386 3.79321C22.155 4.82693 22.0133 5.88914 22.0133 6.97982C22.0133 10.3174 23.1802 13.1531 25.5139 15.4869C27.8477 17.8207 30.6834 18.9876 34.021 18.9876C35.1117 18.9876 36.1739 18.8458 37.2076 18.5623C38.2413 18.2787 39.2278 17.8532 40.1668 17.2858V36.1959C40.1668 37.3275 39.7878 38.2724 39.0299 39.0303C38.2719 39.7883 37.3271 40.1673 36.1954 40.1673H4.80493ZM7.64124 31.2792H33.3591L25.4168 20.6899L18.0418 30.0033L13.1252 24.0935L7.64124 31.2792ZM32.7918 13.1257V8.20899H27.8752V5.75065H32.7918V0.833984H35.2502V5.75065H40.1668V8.20899H35.2502V13.1257H32.7918Z" fill="#C9C9C9"/>
</svg>
