<svg width="36" height="36" viewBox="0 0 36 36" fill="none" xmlns="http://www.w3.org/2000/svg">
<rect width="36" height="36" rx="8" fill="#14CB76"/>
<mask id="mask0_649_286" style="mask-type:alpha" maskUnits="userSpaceOnUse" x="7" y="4" width="26" height="26">
<rect x="7" y="4" width="26" height="26" fill="#D9D9D9"/>
</mask>
<g mask="url(#mask0_649_286)">
<path d="M10.25 25.6667V23.5H23.25V25.6667H10.25ZM24.3333 18.0833C22.8347 18.0833 21.5573 17.5552 20.501 16.499C19.4448 15.4427 18.9167 14.1653 18.9167 12.6667C18.9167 11.1681 19.4448 9.89062 20.501 8.83437C21.5573 7.77812 22.8347 7.25 24.3333 7.25C25.8319 7.25 27.1094 7.77812 28.1656 8.83437C29.2219 9.89062 29.75 11.1681 29.75 12.6667C29.75 14.1653 29.2219 15.4427 28.1656 16.499C27.1094 17.5552 25.8319 18.0833 24.3333 18.0833ZM10.25 17V14.8333H17.075C17.2014 15.2306 17.3458 15.6097 17.5083 15.9708C17.6708 16.3319 17.8694 16.675 18.1042 17H10.25ZM10.25 21.3333V19.1667H20.4333C20.8486 19.4194 21.291 19.6316 21.7604 19.8031C22.2299 19.9747 22.7264 20.0965 23.25 20.1687V21.3333H10.25ZM23.7917 15.9167H24.875V11.5833H23.7917V15.9167ZM24.3333 10.5C24.4778 10.5 24.6042 10.4458 24.7125 10.3375C24.8208 10.2292 24.875 10.1028 24.875 9.95833C24.875 9.81389 24.8208 9.6875 24.7125 9.57917C24.6042 9.47083 24.4778 9.41667 24.3333 9.41667C24.1889 9.41667 24.0625 9.47083 23.9542 9.57917C23.8458 9.6875 23.7917 9.81389 23.7917 9.95833C23.7917 10.1028 23.8458 10.2292 23.9542 10.3375C24.0625 10.4458 24.1889 10.5 24.3333 10.5Z" fill="white"/>
</g>
</svg>
