<svg width="27" height="27" viewBox="0 0 27 27" fill="none" xmlns="http://www.w3.org/2000/svg">
<rect width="27" height="27" rx="8" fill="#8458FF"/>
<mask id="mask0_1139_1667" style="mask-type:alpha" maskUnits="userSpaceOnUse" x="5" y="5" width="18" height="18">
<rect x="5" y="5" width="18" height="18" fill="#D9D9D9"/>
</mask>
<g mask="url(#mask0_1139_1667)">
<path d="M9.50012 20.75L14.0001 16.25L18.5001 20.75H9.50012ZM6.50012 17.75V8.75C6.50012 8.3375 6.647 7.98438 6.94075 7.69063C7.2345 7.39688 7.58762 7.25 8.00012 7.25H20.0001C20.4126 7.25 20.7657 7.39688 21.0595 7.69063C21.3532 7.98438 21.5001 8.3375 21.5001 8.75V17.75C21.5001 18.1625 21.3532 18.5156 21.0595 18.8094C20.7657 19.1031 20.4126 19.25 20.0001 19.25H17.7501V17.75H20.0001V8.75H8.00012V17.75H10.2501V19.25H8.00012C7.58762 19.25 7.2345 19.1031 6.94075 18.8094C6.647 18.5156 6.50012 18.1625 6.50012 17.75Z" fill="white"/>
</g>
</svg>
