<svg width="25" height="25" viewBox="0 0 25 25" fill="none" xmlns="http://www.w3.org/2000/svg">
<mask id="mask0_887_2139" style="mask-type:alpha" maskUnits="userSpaceOnUse" x="0" y="0" width="25" height="25">
<rect x="0.0839844" y="0.425293" width="24" height="24" fill="#D9D9D9"/>
</mask>
<g mask="url(#mask0_887_2139)">
<path d="M15.084 19.4253L13.684 18.0003L17.259 14.4253H7.58398C6.33398 14.4253 5.27148 13.9878 4.39648 13.1128C3.52148 12.2378 3.08398 11.1753 3.08398 9.92529C3.08398 8.67529 3.52148 7.61279 4.39648 6.73779C5.27148 5.86279 6.33398 5.42529 7.58398 5.42529H8.08398V7.42529H7.58398C6.88398 7.42529 6.29232 7.66696 5.80898 8.15029C5.32565 8.63363 5.08398 9.22529 5.08398 9.92529C5.08398 10.6253 5.32565 11.217 5.80898 11.7003C6.29232 12.1836 6.88398 12.4253 7.58398 12.4253H17.259L13.684 8.82529L15.084 7.42529L21.084 13.4253L15.084 19.4253Z" fill="#757575"/>
</g>
</svg>
