<svg width="25" height="25" viewBox="0 0 25 25" fill="none" xmlns="http://www.w3.org/2000/svg">
<mask id="mask0_938_2842" style="mask-type:alpha" maskUnits="userSpaceOnUse" x="0" y="0" width="25" height="25">
<rect x="24.084" y="24.4253" width="24" height="24" transform="rotate(-180 24.084 24.4253)" fill="#D9D9D9"/>
</mask>
<g mask="url(#mask0_938_2842)">
<path d="M9.08399 5.42529L10.484 6.85029L6.90898 10.4253L16.584 10.4253C17.834 10.4253 18.8965 10.8628 19.7715 11.7378C20.6465 12.6128 21.084 13.6753 21.084 14.9253C21.084 16.1753 20.6465 17.2378 19.7715 18.1128C18.8965 18.9878 17.834 19.4253 16.584 19.4253L16.084 19.4253L16.084 17.4253L16.584 17.4253C17.284 17.4253 17.8757 17.1836 18.359 16.7003C18.8423 16.217 19.084 15.6253 19.084 14.9253C19.084 14.2253 18.8423 13.6336 18.359 13.1503C17.8757 12.667 17.284 12.4253 16.584 12.4253L6.90898 12.4253L10.484 16.0253L9.08398 17.4253L3.08399 11.4253L9.08399 5.42529Z" fill="#757575"/>
</g>
</svg>
