<svg width="12" height="14" viewBox="0 0 12 14" fill="none" xmlns="http://www.w3.org/2000/svg">
<path d="M2.00033 13.6667C1.63366 13.6667 1.31977 13.5362 1.05866 13.275C0.797548 13.0139 0.666992 12.7 0.666992 12.3334V4.33337L4.66699 0.333374H10.0003C10.367 0.333374 10.6809 0.46393 10.942 0.725041C11.2031 0.986152 11.3337 1.30004 11.3337 1.66671V12.3334C11.3337 12.7 11.2031 13.0139 10.942 13.275C10.6809 13.5362 10.367 13.6667 10.0003 13.6667H2.00033ZM2.00033 12.3334H10.0003V1.66671H5.23366L2.00033 4.90004V12.3334ZM6.00033 10.3334C6.18921 10.3334 6.34755 10.2695 6.47533 10.1417C6.6031 10.0139 6.66699 9.8556 6.66699 9.66671C6.66699 9.47782 6.6031 9.31948 6.47533 9.19171C6.34755 9.06393 6.18921 9.00004 6.00033 9.00004C5.81144 9.00004 5.6531 9.06393 5.52533 9.19171C5.39755 9.31948 5.33366 9.47782 5.33366 9.66671C5.33366 9.8556 5.39755 10.0139 5.52533 10.1417C5.6531 10.2695 5.81144 10.3334 6.00033 10.3334ZM5.33366 7.66671H6.66699V4.33337H5.33366V7.66671Z" fill="#FF2929"/>
</svg>
