<svg width="24" height="24" viewBox="0 0 24 24" fill="none" xmlns="http://www.w3.org/2000/svg">
<mask id="mask0_798_91" style="mask-type:alpha" maskUnits="userSpaceOnUse" x="0" y="0" width="24" height="24">
<rect x="24" width="24" height="24" transform="rotate(90 24 0)" fill="#D9D9D9"/>
</mask>
<g mask="url(#mask0_798_91)">
<path d="M3 19.6L9.3 13.3C8.9 12.8 8.58333 12.225 8.35 11.575C8.11667 10.925 8 10.2333 8 9.5C8 7.68333 8.62917 6.14583 9.8875 4.8875C11.1458 3.62917 12.6833 3 14.5 3C16.3167 3 17.8542 3.62917 19.1125 4.8875C20.3708 6.14583 21 7.68333 21 9.5C21 11.3167 20.3708 12.8542 19.1125 14.1125C17.8542 15.3708 16.3167 16 14.5 16C13.7667 16 13.075 15.8833 12.425 15.65C11.775 15.4167 11.2 15.1 10.7 14.7L4.4 21L3 19.6ZM10 9.5C10 10.75 10.4375 11.8125 11.3125 12.6875C12.1875 13.5625 13.25 14 14.5 14C15.75 14 16.8125 13.5625 17.6875 12.6875C18.5625 11.8125 19 10.75 19 9.5C19 8.25 18.5625 7.1875 17.6875 6.3125C16.8125 5.4375 15.75 5 14.5 5C13.25 5 12.1875 5.4375 11.3125 6.3125C10.4375 7.1875 10 8.25 10 9.5Z" fill="#674FA3"/>
</g>
</svg>
