<svg width="22" height="22" viewBox="0 0 22 22" fill="none" xmlns="http://www.w3.org/2000/svg">
<mask id="mask0_419_980" style="mask-type:alpha" maskUnits="userSpaceOnUse" x="0" y="0" width="22" height="22">
<rect width="22" height="22" fill="#D9D9D9"/>
</mask>
<g mask="url(#mask0_419_980)">
<path d="M8.25 2.74996V0.916626H13.75V2.74996H8.25ZM10.0833 12.8333H11.9167V7.33329H10.0833V12.8333ZM11 20.1666C9.86944 20.1666 8.80382 19.9489 7.80313 19.5135C6.80243 19.0781 5.92778 18.4861 5.17917 17.7375C4.43056 16.9888 3.83854 16.1142 3.40313 15.1135C2.96771 14.1128 2.75 13.0472 2.75 11.9166C2.75 10.7861 2.96771 9.72045 3.40313 8.71975C3.83854 7.71906 4.43056 6.8444 5.17917 6.09579C5.92778 5.34718 6.80243 4.75517 7.80313 4.31975C8.80382 3.88433 9.86944 3.66663 11 3.66663C11.9472 3.66663 12.8563 3.8194 13.7271 4.12496C14.5979 4.43052 15.4153 4.87357 16.1792 5.45413L17.4625 4.17079L18.7458 5.45413L17.4625 6.73746C18.0431 7.50135 18.4861 8.31871 18.7917 9.18954C19.0972 10.0604 19.25 10.9694 19.25 11.9166C19.25 13.0472 19.0323 14.1128 18.5969 15.1135C18.1615 16.1142 17.5694 16.9888 16.8208 17.7375C16.0722 18.4861 15.1976 19.0781 14.1969 19.5135C13.1962 19.9489 12.1306 20.1666 11 20.1666ZM11 18.3333C12.7722 18.3333 14.2847 17.7069 15.5375 16.4541C16.7903 15.2013 17.4167 13.6888 17.4167 11.9166C17.4167 10.1444 16.7903 8.6319 15.5375 7.37913C14.2847 6.12635 12.7722 5.49996 11 5.49996C9.22778 5.49996 7.71528 6.12635 6.4625 7.37913C5.20972 8.6319 4.58333 10.1444 4.58333 11.9166C4.58333 13.6888 5.20972 15.2013 6.4625 16.4541C7.71528 17.7069 9.22778 18.3333 11 18.3333Z" fill="white"/>
</g>
</svg>
