<svg width="32" height="32" viewBox="0 0 32 32" fill="none" xmlns="http://www.w3.org/2000/svg">
<mask id="mask0_1153_2131" style="mask-type:alpha" maskUnits="userSpaceOnUse" x="0" y="0" width="32" height="32">
<rect x="0.833473" y="0.833496" width="30.3333" height="30.3333" fill="#D9D9D9"/>
</mask>
<g mask="url(#mask0_1153_2131)">
<path d="M12.2084 21.6876C11.3237 21.6876 10.5759 21.3822 9.96501 20.7713C9.35413 20.1604 9.04869 19.4126 9.04869 18.5279C9.04869 17.6432 9.35413 16.8954 9.96501 16.2845C10.5759 15.6736 11.3237 15.3682 12.2084 15.3682C13.0931 15.3682 13.8409 15.6736 14.4518 16.2845C15.0627 16.8954 15.3681 17.6432 15.3681 18.5279C15.3681 19.4126 15.0627 20.1604 14.4518 20.7713C13.8409 21.3822 13.0931 21.6876 12.2084 21.6876ZM7.15286 28.639C6.45772 28.639 5.86264 28.3915 5.36761 27.8965C4.87259 27.4014 4.62508 26.8063 4.62508 26.1112V8.41676C4.62508 7.72162 4.87259 7.12654 5.36761 6.63152C5.86264 6.1365 6.45772 5.88898 7.15286 5.88898H8.41675V3.36121H10.9445V5.88898H21.0556V3.36121H23.5834V5.88898H24.8473C25.5424 5.88898 26.1375 6.1365 26.6325 6.63152C27.1276 7.12654 27.3751 7.72162 27.3751 8.41676V26.1112C27.3751 26.8063 27.1276 27.4014 26.6325 27.8965C26.1375 28.3915 25.5424 28.639 24.8473 28.639H7.15286ZM7.15286 26.1112H24.8473V13.4723H7.15286V26.1112ZM7.15286 10.9445H24.8473V8.41676H7.15286V10.9445Z" fill="#1867D2"/>
</g>
</svg>
