<svg width="27" height="27" viewBox="0 0 27 27" fill="none" xmlns="http://www.w3.org/2000/svg">
<rect width="27" height="27" rx="8" fill="#14CB76"/>
<path d="M10.665 16.3334H13.9983M10.665 12.1667H17.3317" stroke="white" stroke-width="1.5" stroke-linecap="round"/>
<path d="M10.25 5.91669C8.95351 5.95558 8.18052 6.09989 7.64566 6.63525C6.91342 7.36816 6.91342 8.54777 6.91342 10.907V16.3287C6.91342 18.6879 6.91342 19.8675 7.64566 20.6004C8.37789 21.3334 9.55641 21.3334 11.9134 21.3334H16.0801C18.4371 21.3334 19.6156 21.3334 20.3478 20.6004C21.0801 19.8675 21.0801 18.6879 21.0801 16.3287V10.907C21.0801 8.54777 21.0801 7.36816 20.3478 6.63525C19.813 6.09989 19.04 5.95558 17.7435 5.91669" stroke="white" stroke-width="1.5"/>
<path d="M10.2467 6.12502C10.2467 5.3196 10.8997 4.66669 11.7051 4.66669H16.2884C17.0938 4.66669 17.7467 5.3196 17.7467 6.12502C17.7467 6.93044 17.0938 7.58335 16.2884 7.58335H11.7051C10.8997 7.58335 10.2467 6.93044 10.2467 6.12502Z" stroke="white" stroke-width="1.5" stroke-linejoin="round"/>
</svg>
