<svg width="42" height="42" viewBox="0 0 42 42" fill="none" xmlns="http://www.w3.org/2000/svg">
<rect width="42" height="42" rx="8" fill="#FFBABB"/>
<mask id="mask0_1153_2124" style="mask-type:alpha" maskUnits="userSpaceOnUse" x="7" y="5" width="31" height="32">
<rect x="7.00014" y="5.8335" width="30.3333" height="30.3333" fill="#D9D9D9"/>
</mask>
<g mask="url(#mask0_1153_2124)">
<path d="M21.0001 19.7362C22.3904 19.7362 23.5806 19.2412 24.5706 18.2511C25.5607 17.2611 26.0557 16.0709 26.0557 14.6807V10.889H15.9446V14.6807C15.9446 16.0709 16.4396 17.2611 17.4296 18.2511C18.4197 19.2412 19.6098 19.7362 21.0001 19.7362ZM10.889 33.639V31.1112H13.4168V27.3195C13.4168 26.0346 13.717 24.8286 14.3173 23.7017C14.9177 22.5747 15.755 21.6742 16.8293 21.0001C15.755 20.326 14.9177 19.4255 14.3173 18.2985C13.717 17.1716 13.4168 15.9656 13.4168 14.6807V10.889H10.889V8.36121H31.1112V10.889H28.5835V14.6807C28.5835 15.9656 28.2833 17.1716 27.6829 18.2985C27.0826 19.4255 26.2453 20.326 25.171 21.0001C26.2453 21.6742 27.0826 22.5747 27.6829 23.7017C28.2833 24.8286 28.5835 26.0346 28.5835 27.3195V31.1112H31.1112V33.639H10.889Z" fill="#FF0004"/>
</g>
</svg>
