<svg width="20" height="20" viewBox="0 0 20 20" fill="none" xmlns="http://www.w3.org/2000/svg">
<mask id="mask0_366_394" style="mask-type:alpha" maskUnits="userSpaceOnUse" x="0" y="0" width="20" height="20">
<rect width="20" height="20" fill="#D9D9D9"/>
</mask>
<g mask="url(#mask0_366_394)">
<path d="M10.8334 10.5V7.5C10.8334 7.26389 10.7536 7.06597 10.5938 6.90625C10.4341 6.74653 10.2362 6.66667 10.0001 6.66667C9.76397 6.66667 9.56605 6.74653 9.40633 6.90625C9.24661 7.06597 9.16675 7.26389 9.16675 7.5V10.8125C9.16675 10.9236 9.18758 11.0313 9.22925 11.1354C9.27092 11.2396 9.33342 11.3333 9.41675 11.4167L11.7501 13.75C11.9029 13.9028 12.0973 13.9792 12.3334 13.9792C12.5695 13.9792 12.764 13.9028 12.9167 13.75C13.0695 13.5972 13.1459 13.4028 13.1459 13.1667C13.1459 12.9306 13.0695 12.7361 12.9167 12.5833L10.8334 10.5ZM10.0001 18.3333C8.95842 18.3333 7.98272 18.1354 7.073 17.7396C6.16328 17.3438 5.37161 16.809 4.698 16.1354C4.02439 15.4618 3.48966 14.6701 3.09383 13.7604C2.698 12.8507 2.50008 11.875 2.50008 10.8333C2.50008 9.79167 2.698 8.81597 3.09383 7.90625C3.48966 6.99653 4.02439 6.20486 4.698 5.53125C5.37161 4.85764 6.16328 4.32292 7.073 3.92708C7.98272 3.53125 8.95842 3.33333 10.0001 3.33333C11.0417 3.33333 12.0174 3.53125 12.9272 3.92708C13.8369 4.32292 14.6286 4.85764 15.3022 5.53125C15.9758 6.20486 16.5105 6.99653 16.9063 7.90625C17.3022 8.81597 17.5001 9.79167 17.5001 10.8333C17.5001 11.875 17.3022 12.8507 16.9063 13.7604C16.5105 14.6701 15.9758 15.4618 15.3022 16.1354C14.6286 16.809 13.8369 17.3438 12.9272 17.7396C12.0174 18.1354 11.0417 18.3333 10.0001 18.3333ZM1.70841 6.08333C1.55564 5.93056 1.47925 5.73611 1.47925 5.5C1.47925 5.26389 1.55564 5.06944 1.70841 4.91667L4.08341 2.54167C4.23619 2.38889 4.43064 2.3125 4.66675 2.3125C4.90286 2.3125 5.0973 2.38889 5.25008 2.54167C5.40286 2.69444 5.47925 2.88889 5.47925 3.125C5.47925 3.36111 5.40286 3.55556 5.25008 3.70833L2.87508 6.08333C2.7223 6.23611 2.52786 6.3125 2.29175 6.3125C2.05564 6.3125 1.86119 6.23611 1.70841 6.08333ZM18.2917 6.08333C18.139 6.23611 17.9445 6.3125 17.7084 6.3125C17.4723 6.3125 17.2779 6.23611 17.1251 6.08333L14.7501 3.70833C14.5973 3.55556 14.5209 3.36111 14.5209 3.125C14.5209 2.88889 14.5973 2.69444 14.7501 2.54167C14.9029 2.38889 15.0973 2.3125 15.3334 2.3125C15.5695 2.3125 15.764 2.38889 15.9167 2.54167L18.2917 4.91667C18.4445 5.06944 18.5209 5.26389 18.5209 5.5C18.5209 5.73611 18.4445 5.93056 18.2917 6.08333ZM10.0001 16.6667C11.6251 16.6667 13.0036 16.1007 14.1355 14.9688C15.2674 13.8368 15.8334 12.4583 15.8334 10.8333C15.8334 9.20833 15.2674 7.82986 14.1355 6.69792C13.0036 5.56597 11.6251 5 10.0001 5C8.37508 5 6.99661 5.56597 5.86467 6.69792C4.73272 7.82986 4.16675 9.20833 4.16675 10.8333C4.16675 12.4583 4.73272 13.8368 5.86467 14.9688C6.99661 16.1007 8.37508 16.6667 10.0001 16.6667Z" fill="#FF2222"/>
</g>
</svg>
