<svg width="19" height="19" viewBox="0 0 19 19" fill="none" xmlns="http://www.w3.org/2000/svg">
<g id="File / attachment">
<mask id="mask0_256_32441" style="mask-type:alpha" maskUnits="userSpaceOnUse" x="0" y="5" width="19" height="9">
<g id="Icon Mask">
<path id="Round" d="M13.6582 12.6667H5.28239C3.6278 12.6667 2.1553 11.4555 1.99697 9.80879C1.81489 7.92462 3.2953 6.33337 5.1478 6.33337H14.9328C15.9699 6.33337 16.912 7.07754 17.0149 8.10671C17.1336 9.29421 16.2074 10.2917 15.0436 10.2917H6.73114C6.29572 10.2917 5.93947 9.93546 5.93947 9.50004C5.93947 9.06462 6.29572 8.70837 6.73114 8.70837H13.6582C13.9828 8.70837 14.252 8.43921 14.252 8.11462C14.252 7.79004 13.9828 7.52087 13.6582 7.52087H6.84197C5.80489 7.52087 4.8628 8.26504 4.75989 9.29421C4.64114 10.4817 5.56739 11.4792 6.73114 11.4792H14.9091C16.5636 11.4792 18.0361 10.268 18.1945 8.62129C18.3766 6.72921 16.8961 5.14587 15.0436 5.14587H5.32989C3.0578 5.14587 1.02322 6.80837 0.809471 9.07254C0.571971 11.6771 2.59864 13.8542 5.1478 13.8542H13.6582C13.9828 13.8542 14.252 13.585 14.252 13.2605C14.252 12.9359 13.9828 12.6667 13.6582 12.6667Z" fill="black"/>
</g>
</mask>
<g mask="url(#mask0_256_32441)">
<rect id="Color Fill" width="19" height="19" fill="white"/>
</g>
</g>
</svg>
