<svg width="21" height="21" viewBox="0 0 21 21" fill="none" xmlns="http://www.w3.org/2000/svg">
<mask id="mask0_366_373" style="mask-type:alpha" maskUnits="userSpaceOnUse" x="0" y="0" width="21" height="21">
<rect width="21" height="21" fill="#D9D9D9"/>
</mask>
<g mask="url(#mask0_366_373)">
<path d="M7.21899 15.7501C5.70233 15.7501 4.4117 15.2178 3.34712 14.1532C2.28254 13.0887 1.75024 11.798 1.75024 10.2814C1.75024 8.76471 2.28254 7.47408 3.34712 6.4095C4.4117 5.34491 5.70233 4.81262 7.21899 4.81262H15.3127C16.4065 4.81262 17.3362 5.19543 18.1018 5.96106C18.8674 6.72668 19.2502 7.65637 19.2502 8.75012C19.2502 9.84387 18.8674 10.7736 18.1018 11.5392C17.3362 12.3048 16.4065 12.6876 15.3127 12.6876H7.65649C6.98566 12.6876 6.41691 12.4543 5.95024 11.9876C5.48358 11.521 5.25024 10.9522 5.25024 10.2814C5.25024 9.61054 5.48358 9.04179 5.95024 8.57512C6.41691 8.10846 6.98566 7.87512 7.65649 7.87512H15.7502V9.62512H7.65649C7.46691 9.62512 7.31014 9.6871 7.18618 9.81106C7.06222 9.93502 7.00024 10.0918 7.00024 10.2814C7.00024 10.471 7.06222 10.6277 7.18618 10.7517C7.31014 10.8756 7.46691 10.9376 7.65649 10.9376H15.3127C15.9252 10.923 16.443 10.7079 16.8659 10.2923C17.2888 9.87669 17.5002 9.36262 17.5002 8.75012C17.5002 8.13762 17.2888 7.61991 16.8659 7.197C16.443 6.77408 15.9252 6.56262 15.3127 6.56262H7.21899C6.18358 6.54804 5.30493 6.90533 4.58306 7.6345C3.86118 8.36366 3.50024 9.24596 3.50024 10.2814C3.50024 11.3022 3.86118 12.1699 4.58306 12.8845C5.30493 13.5991 6.18358 13.971 7.21899 14.0001H15.7502V15.7501H7.21899Z" fill="#3760FF"/>
</g>
</svg>
