<svg width="20" height="20" viewBox="0 0 20 20" fill="none" xmlns="http://www.w3.org/2000/svg">
<mask id="mask0_365_330" style="mask-type:alpha" maskUnits="userSpaceOnUse" x="0" y="0" width="20" height="20">
<rect width="20" height="20" fill="#059989"/>
</mask>
<g mask="url(#mask0_365_330)">
<path d="M4.94586 19.1558C4.4423 19.1558 4.01123 18.9765 3.65264 18.618C3.29404 18.2594 3.11475 17.8283 3.11475 17.3247V4.50695C3.11475 4.00339 3.29404 3.57232 3.65264 3.21373C4.01123 2.85513 4.4423 2.67584 4.94586 2.67584H5.86141V1.76028C5.86141 1.50087 5.94915 1.28343 6.12464 1.10795C6.30012 0.932467 6.51756 0.844727 6.77697 0.844727C7.03638 0.844727 7.25382 0.932467 7.4293 1.10795C7.60478 1.28343 7.69252 1.50087 7.69252 1.76028V2.67584H15.017V1.76028C15.017 1.50087 15.1047 1.28343 15.2802 1.10795C15.4557 0.932467 15.6731 0.844727 15.9325 0.844727C16.1919 0.844727 16.4094 0.932467 16.5849 1.10795C16.7603 1.28343 16.8481 1.50087 16.8481 1.76028V2.67584H17.7636C18.2672 2.67584 18.6983 2.85513 19.0569 3.21373C19.4155 3.57232 19.5947 4.00339 19.5947 4.50695V17.3247C19.5947 17.8283 19.4155 18.2594 19.0569 18.618C18.6983 18.9765 18.2672 19.1558 17.7636 19.1558H4.94586ZM4.94586 17.3247H17.7636V8.16917H4.94586V17.3247ZM4.94586 6.33806H17.7636V4.50695H4.94586V6.33806ZM11.3547 11.8314C11.0953 11.8314 10.8779 11.7437 10.7024 11.5682C10.5269 11.3927 10.4392 11.1752 10.4392 10.9158C10.4392 10.6564 10.5269 10.439 10.7024 10.2635C10.8779 10.088 11.0953 10.0003 11.3547 10.0003C11.6142 10.0003 11.8316 10.088 12.0071 10.2635C12.1826 10.439 12.2703 10.6564 12.2703 10.9158C12.2703 11.1752 12.1826 11.3927 12.0071 11.5682C11.8316 11.7437 11.6142 11.8314 11.3547 11.8314ZM7.69252 11.8314C7.43312 11.8314 7.21567 11.7437 7.04019 11.5682C6.86471 11.3927 6.77697 11.1752 6.77697 10.9158C6.77697 10.6564 6.86471 10.439 7.04019 10.2635C7.21567 10.088 7.43312 10.0003 7.69252 10.0003C7.95193 10.0003 8.16938 10.088 8.34486 10.2635C8.52034 10.439 8.60808 10.6564 8.60808 10.9158C8.60808 11.1752 8.52034 11.3927 8.34486 11.5682C8.16938 11.7437 7.95193 11.8314 7.69252 11.8314ZM15.017 11.8314C14.7576 11.8314 14.5401 11.7437 14.3646 11.5682C14.1892 11.3927 14.1014 11.1752 14.1014 10.9158C14.1014 10.6564 14.1892 10.439 14.3646 10.2635C14.5401 10.088 14.7576 10.0003 15.017 10.0003C15.2764 10.0003 15.4938 10.088 15.6693 10.2635C15.8448 10.439 15.9325 10.6564 15.9325 10.9158C15.9325 11.1752 15.8448 11.3927 15.6693 11.5682C15.4938 11.7437 15.2764 11.8314 15.017 11.8314ZM11.3547 15.4936C11.0953 15.4936 10.8779 15.4059 10.7024 15.2304C10.5269 15.0549 10.4392 14.8375 10.4392 14.5781C10.4392 14.3187 10.5269 14.1012 10.7024 13.9257C10.8779 13.7502 11.0953 13.6625 11.3547 13.6625C11.6142 13.6625 11.8316 13.7502 12.0071 13.9257C12.1826 14.1012 12.2703 14.3187 12.2703 14.5781C12.2703 14.8375 12.1826 15.0549 12.0071 15.2304C11.8316 15.4059 11.6142 15.4936 11.3547 15.4936ZM7.69252 15.4936C7.43312 15.4936 7.21567 15.4059 7.04019 15.2304C6.86471 15.0549 6.77697 14.8375 6.77697 14.5781C6.77697 14.3187 6.86471 14.1012 7.04019 13.9257C7.21567 13.7502 7.43312 13.6625 7.69252 13.6625C7.95193 13.6625 8.16938 13.7502 8.34486 13.9257C8.52034 14.1012 8.60808 14.3187 8.60808 14.5781C8.60808 14.8375 8.52034 15.0549 8.34486 15.2304C8.16938 15.4059 7.95193 15.4936 7.69252 15.4936ZM15.017 15.4936C14.7576 15.4936 14.5401 15.4059 14.3646 15.2304C14.1892 15.0549 14.1014 14.8375 14.1014 14.5781C14.1014 14.3187 14.1892 14.1012 14.3646 13.9257C14.5401 13.7502 14.7576 13.6625 15.017 13.6625C15.2764 13.6625 15.4938 13.7502 15.6693 13.9257C15.8448 14.1012 15.9325 14.3187 15.9325 14.5781C15.9325 14.8375 15.8448 15.0549 15.6693 15.2304C15.4938 15.4059 15.2764 15.4936 15.017 15.4936Z" fill="#059989"/>
</g>
</svg>
