<svg width="17" height="21" viewBox="0 0 17 21" fill="none" xmlns="http://www.w3.org/2000/svg">
<path d="M0.166748 17.7917V15.7083H2.25008V8.41668C2.25008 6.9757 2.68411 5.69966 3.55217 4.58855C4.42022 3.46008 5.54869 2.72223 6.93758 2.37501V1.64584C6.93758 1.21182 7.08515 0.847232 7.38029 0.552092C7.69279 0.239593 8.06605 0.0833435 8.50008 0.0833435C8.93411 0.0833435 9.29869 0.239593 9.59383 0.552092C9.90633 0.847232 10.0626 1.21182 10.0626 1.64584V2.37501C11.4515 2.72223 12.5799 3.46008 13.448 4.58855C14.3161 5.69966 14.7501 6.9757 14.7501 8.41668V15.7083H16.8334V17.7917H0.166748ZM8.50008 20.9167C7.92717 20.9167 7.43237 20.717 7.01571 20.3177C6.6164 19.9011 6.41675 19.4063 6.41675 18.8333H10.5834C10.5834 19.4063 10.3751 19.9011 9.95842 20.3177C9.55911 20.717 9.073 20.9167 8.50008 20.9167ZM4.33342 15.7083H12.6667V8.41668C12.6667 7.27084 12.2588 6.28994 11.4428 5.47397C10.6268 4.658 9.64592 4.25001 8.50008 4.25001C7.35425 4.25001 6.37335 4.658 5.55737 5.47397C4.7414 6.28994 4.33342 7.27084 4.33342 8.41668V15.7083Z" fill="#80559A"/>
</svg>
