<svg width="140" height="163" viewBox="0 0 140 163" fill="none" xmlns="http://www.w3.org/2000/svg">
<path fill-rule="evenodd" clip-rule="evenodd" d="M19.9176 93.9969L46.5744 99.6248L73.3765 116.643L95.5893 102.506L114.397 96.055L122.986 94.2719L122.393 81.9161L99.7354 42.7978L51.1637 37.7163L30.1355 55.425L20.5099 77.7981L19.9176 93.9969Z" fill="#80559A"/>
<path fill-rule="evenodd" clip-rule="evenodd" d="M94.5792 72.758C91.932 72.758 89.7845 74.8269 89.7845 77.3811C89.7845 79.9335 91.9338 82.0042 94.5792 82.0042C97.2263 82.0042 99.3756 79.9335 99.3756 77.3811C99.3756 74.8269 97.2263 72.758 94.5792 72.758ZM70.9547 62.5789C67.8133 62.5789 65.2698 65.4028 65.2698 68.8881C65.2698 72.3698 67.8152 75.1954 70.9547 75.1954C74.0924 75.1954 76.6378 72.3698 76.6378 68.8881C76.6378 65.4028 74.0942 62.5789 70.9547 62.5789ZM20.8006 90.8244C26.9106 95.9831 43.0715 93.0461 51.8124 93.1881C60.5514 93.3319 65.4242 104.516 65.4242 104.516C65.4242 104.516 59.623 68.8162 57.9987 63.0822C56.3745 57.3483 46.1674 48.9595 44.852 56.7749C43.5348 64.5885 53.3585 70.1067 53.3585 70.1067C53.3585 70.1067 47.1721 58.2093 51.1946 60.0715C55.2153 61.9355 59.5449 75.9863 51.7361 84.0156C43.9236 92.0431 20.8006 90.8262 20.8006 90.8262V90.8244ZM63.2567 76.8455C69.6756 86.5949 68.7472 105.805 68.7472 105.805H71.6869C71.6869 105.805 72.072 85.4482 84.4466 76.1984C96.8211 66.9522 102.39 49.6048 92.8005 53.2609C83.2111 56.9169 83.3638 68.8881 83.3638 68.8881C83.3638 68.8881 100.998 44.802 91.4069 62.5789C81.8176 80.3577 63.2567 76.8455 63.2567 76.8455ZM75.8638 104.516C75.8638 104.444 79.7301 104.444 79.7301 104.444C83.133 91.6135 119.635 93.3337 119.635 93.3337V90.4667C92.4916 94.768 86.149 78.7813 86.149 78.7813C75.7857 87.0964 75.8638 104.518 75.8638 104.518V104.516ZM44.078 72.7598C41.0039 72.7598 38.5094 75.2799 38.5094 78.3859C38.5094 81.4955 41.0039 84.0138 44.078 84.0138C47.154 84.0138 49.6467 81.4937 49.6467 78.3859C49.6467 75.2799 47.154 72.7598 44.078 72.7598ZM68.5619 27.0681C101.227 27.0681 127.708 51.6126 127.708 81.891C127.708 92.9274 124.188 103.2 118.135 111.801C113.26 115.295 109.793 117.06 109.793 117.06L115.969 97.9298C96.287 102.134 81.2508 122.206 74.8355 136.149C72.0611 136.521 70.5586 136.716 68.5601 136.716C66.5652 136.716 67.8406 136.687 66.7505 136.629C60.5641 122.674 45.715 101.217 25.2864 96.8549L31.093 115.987C31.093 115.987 23.1062 111.542 13.8711 102.796C11.0023 96.3552 9.4162 89.2947 9.4162 81.8928C9.4162 51.6144 35.8968 27.0699 68.5619 27.0699V27.0681Z" fill="#FFC630"/>
<path fill-rule="evenodd" clip-rule="evenodd" d="M69.8446 151.717C69.8446 151.717 57.8497 109.989 29.565 103.949L34.8975 121.518C34.8975 121.518 10.9078 109.302 2.02163 85.556C2.02163 85.556 -0.0513988 124.403 29.8612 135.795C57.8188 146.443 69.2178 160.088 70.5895 161.826C70.604 162.605 70.6531 163 70.6531 163C70.6531 163 81.6123 148.176 111.527 136.784C141.441 125.391 139.366 86.5464 139.366 86.5464C130.48 110.291 106.492 122.508 106.492 122.508L111.823 104.936C83.5363 110.978 71.5433 152.704 71.5433 152.704C71.1109 154.884 70.8675 156.73 70.7312 158.233C70.624 156.581 70.3769 154.401 69.8446 151.715V151.717Z" fill="#80559A"/>
<path fill-rule="evenodd" clip-rule="evenodd" d="M72.3427 25.0891C72.3427 25.0891 89.75 1.56737 73.7944 0.0503104C59.652 -1.2942 71.9794 24.7529 72.3427 25.0891Z" fill="#FFC630"/>
<path fill-rule="evenodd" clip-rule="evenodd" d="M100.927 33.4006C100.927 33.4006 120.671 18.0592 108.169 13.5098C97.0918 9.47986 100.716 33.0537 100.927 33.4006Z" fill="#FFC630"/>
<path fill-rule="evenodd" clip-rule="evenodd" d="M120.544 50.7946C120.544 50.7946 142.044 41.1386 131.912 34.4251C122.933 28.4772 120.438 50.4387 120.544 50.7946Z" fill="#FFC630"/>
<path fill-rule="evenodd" clip-rule="evenodd" d="M128.509 65.2751C128.509 65.2751 144.326 62.1744 138.848 56.2356C133.996 50.9744 128.501 65.0234 128.509 65.2751Z" fill="#FFC630"/>
<path fill-rule="evenodd" clip-rule="evenodd" d="M43.5275 29.243C43.5275 29.243 23.7838 13.9016 36.2856 9.35225C47.3629 5.32233 43.7365 28.8961 43.5275 29.243Z" fill="#FFC630"/>
<path fill-rule="evenodd" clip-rule="evenodd" d="M22.4266 44.5736C22.4266 44.5736 0.926064 34.9176 11.0586 28.2041C20.0375 22.2562 22.532 44.2177 22.4266 44.5736Z" fill="#FFC630"/>
<path fill-rule="evenodd" clip-rule="evenodd" d="M11.491 61.1175C11.491 61.1175 -4.32463 58.0169 1.15317 52.0781C6.00597 46.8169 11.5001 60.8659 11.491 61.1175Z" fill="#FFC630"/>
</svg>
