<svg width="20" height="20" viewBox="0 0 20 20" fill="none" xmlns="http://www.w3.org/2000/svg">
<mask id="mask0_536_9818" style="mask-type:alpha" maskUnits="userSpaceOnUse" x="0" y="0" width="20" height="20">
<rect width="20" height="20" fill="#D9D9D9"/>
</mask>
<g mask="url(#mask0_536_9818)">
<path d="M7.70833 14.3757C7.94444 14.3757 8.14236 14.2958 8.30208 14.1361C8.46181 13.9763 8.54167 13.7784 8.54167 13.5423V8.12565C8.54167 7.88954 8.46181 7.69162 8.30208 7.5319C8.14236 7.37218 7.94444 7.29232 7.70833 7.29232H6.66667C6.43056 7.29232 6.23264 7.37218 6.07292 7.5319C5.91319 7.69162 5.83333 7.88954 5.83333 8.12565C5.83333 8.36176 5.91319 8.55968 6.07292 8.7194C6.23264 8.87912 6.43056 8.95898 6.66667 8.95898H6.875V13.5423C6.875 13.7784 6.95486 13.9763 7.11458 14.1361C7.27431 14.2958 7.47222 14.3757 7.70833 14.3757ZM11.0417 14.3757H12.2917C12.75 14.3757 13.1424 14.2125 13.4688 13.8861C13.7951 13.5597 13.9583 13.1673 13.9583 12.709V8.95898C13.9583 8.50065 13.7951 8.10829 13.4688 7.7819C13.1424 7.45551 12.75 7.29232 12.2917 7.29232H11.0417C10.5833 7.29232 10.191 7.45551 9.86458 7.7819C9.53819 8.10829 9.375 8.50065 9.375 8.95898V12.709C9.375 13.1673 9.53819 13.5597 9.86458 13.8861C10.191 14.2125 10.5833 14.3757 11.0417 14.3757ZM11.0417 12.709V8.95898H12.2917V12.709H11.0417ZM10 16.6673C11.6111 16.6673 12.9861 16.0979 14.125 14.959C15.2639 13.8201 15.8333 12.4451 15.8333 10.834C15.8333 9.22287 15.2639 7.84787 14.125 6.70898C12.9861 5.5701 11.6111 5.00065 10 5.00065C8.38889 5.00065 7.01389 5.5701 5.875 6.70898C4.73611 7.84787 4.16667 9.22287 4.16667 10.834C4.16667 12.4451 4.73611 13.8201 5.875 14.959C7.01389 16.0979 8.38889 16.6673 10 16.6673ZM8.33333 2.50065C8.09722 2.50065 7.89931 2.42079 7.73958 2.26107C7.57986 2.10135 7.5 1.90343 7.5 1.66732C7.5 1.43121 7.57986 1.23329 7.73958 1.07357C7.89931 0.913845 8.09722 0.833984 8.33333 0.833984H11.6667C11.9028 0.833984 12.1007 0.913845 12.2604 1.07357C12.4201 1.23329 12.5 1.43121 12.5 1.66732C12.5 1.90343 12.4201 2.10135 12.2604 2.26107C12.1007 2.42079 11.9028 2.50065 11.6667 2.50065H8.33333ZM10 18.334C8.97222 18.334 8.00347 18.1361 7.09375 17.7402C6.18403 17.3444 5.38889 16.8062 4.70833 16.1257C4.02778 15.4451 3.48958 14.65 3.09375 13.7402C2.69792 12.8305 2.5 11.8618 2.5 10.834C2.5 9.80621 2.69792 8.83746 3.09375 7.92773C3.48958 7.01801 4.02778 6.22287 4.70833 5.54232C5.38889 4.86176 6.18403 4.32357 7.09375 3.92773C8.00347 3.5319 8.97222 3.33398 10 3.33398C10.8611 3.33398 11.6875 3.47287 12.4792 3.75065C13.2708 4.02843 14.0139 4.43121 14.7083 4.95898L15.2917 4.37565C15.4444 4.22287 15.6389 4.14648 15.875 4.14648C16.1111 4.14648 16.3056 4.22287 16.4583 4.37565C16.6111 4.52843 16.6875 4.72287 16.6875 4.95898C16.6875 5.1951 16.6111 5.38954 16.4583 5.54232L15.875 6.12565C16.4028 6.8201 16.8056 7.56315 17.0833 8.35482C17.3611 9.14648 17.5 9.97287 17.5 10.834C17.5 11.8618 17.3021 12.8305 16.9062 13.7402C16.5104 14.65 15.9722 15.4451 15.2917 16.1257C14.6111 16.8062 13.816 17.3444 12.9062 17.7402C11.9965 18.1361 11.0278 18.334 10 18.334Z" fill="#3760FF"/>
</g>
</svg>
