<svg width="17" height="18" viewBox="0 0 17 18" fill="none" xmlns="http://www.w3.org/2000/svg">
<path fill-rule="evenodd" clip-rule="evenodd" d="M15.5957 3.375C15.5957 2.68464 15.0361 2.125 14.3457 2.125H11.8457V0.875H10.5957V2.125H5.5957V0.875H4.3457V2.125H1.8457C1.15535 2.125 0.595703 2.68464 0.595703 3.375V15.875C0.595703 16.5654 1.15535 17.125 1.8457 17.125H4.3457V15.875H1.8457V3.375H4.3457V4.625H5.5957V3.375H10.5957V4.625H11.8457V3.375H14.3457V7.125H15.5957V3.375ZM6.2207 12.75C6.2207 15.5114 8.45928 17.75 11.2207 17.75C13.9821 17.75 16.2207 15.5114 16.2207 12.75C16.2207 9.98858 13.9821 7.75 11.2207 7.75C8.45928 7.75 6.2207 9.98858 6.2207 12.75ZM10.5957 13.6313L12.2145 15.25L13.0957 14.3687L11.8457 13.1187V10.875H10.5957V13.6313ZM7.4707 12.75C7.4707 10.6789 9.14964 9 11.2207 9C13.2918 9 14.9707 10.6789 14.9707 12.75C14.9707 14.8211 13.2918 16.5 11.2207 16.5C9.14964 16.5 7.4707 14.8211 7.4707 12.75Z" fill="#E0E0E0"/>
</svg>
