<svg width="26" height="26" viewBox="0 0 26 26" fill="none" xmlns="http://www.w3.org/2000/svg">
<g clip-path="url(#clip0_13513_405385)">
<path d="M6.96191 22.5859C6.55717 22.5859 6.22949 22.9136 6.22949 23.3184V24.7832C6.22949 25.1879 6.55717 25.5156 6.96191 25.5156C7.36665 25.5156 7.69434 25.1879 7.69434 24.7832V23.3184C7.69434 22.9136 7.36665 22.5859 6.96191 22.5859Z" fill="white"/>
<path d="M10.4094 21.3396C10.1233 21.0535 9.65986 21.0535 9.37376 21.3396C9.08765 21.6257 9.08765 22.0892 9.37376 22.3753L10.8386 23.8401C10.9817 23.9832 11.169 24.0547 11.3564 24.0547C11.5437 24.0547 11.7312 23.9832 11.8743 23.8401C12.1604 23.554 12.1604 23.0905 11.8743 22.8044L10.4094 21.3396Z" fill="white"/>
<path d="M3.51438 21.3396L2.04954 22.8044C1.76344 23.0905 1.76344 23.554 2.04954 23.8401C2.33564 24.1262 2.79913 24.1262 3.08523 23.8401L4.55007 22.3753C4.83617 22.0892 4.83617 21.6257 4.55007 21.3396C4.26397 21.0535 3.80048 21.0535 3.51438 21.3396Z" fill="white"/>
<path d="M18.6807 3.44531C19.0854 3.44531 19.4131 3.11763 19.4131 2.71289V1.24805C19.4131 0.843308 19.0854 0.515625 18.6807 0.515625C18.2759 0.515625 17.9482 0.843308 17.9482 1.24805V2.71289C17.9482 3.11763 18.2759 3.44531 18.6807 3.44531Z" fill="white"/>
<path d="M22.1282 4.74636L23.593 3.28152C23.8791 2.99541 23.8791 2.53193 23.593 2.24583C23.3069 1.95972 22.8435 1.95972 22.5574 2.24583L21.0925 3.71067C20.8064 3.99677 20.8064 4.46026 21.0925 4.74636C21.3786 5.03246 21.8421 5.03246 22.1282 4.74636Z" fill="white"/>
<path d="M15.2331 4.74636C15.5192 5.03246 15.9827 5.03246 16.2688 4.74636C16.5549 4.46026 16.5549 3.99677 16.2688 3.71067L14.804 2.24583C14.5179 1.95972 14.0544 1.95972 13.7683 2.24583C13.4822 2.53193 13.4822 2.99541 13.7683 3.28152L15.2331 4.74636Z" fill="white"/>
<path d="M15.0186 13.0137C15.0186 12.2046 14.3628 11.5488 13.5537 11.5488H12.8213C12.4167 11.5488 12.0889 11.221 12.0889 10.8164V6.42188H8.42676V5.68945C8.42676 4.47791 7.44104 3.49219 6.22949 3.49219C5.01794 3.49219 4.03223 4.47791 4.03223 5.68945V6.42188H1.05371C0.648972 6.42188 0.321289 6.74956 0.321289 7.1543V10.8164C0.321289 11.221 0.649162 11.5488 1.05371 11.5488H1.83496C2.64406 11.5488 3.2998 12.2046 3.2998 13.0137C3.2998 13.8228 2.64406 14.4785 1.83496 14.4785H1.05371C0.649162 14.4785 0.321289 14.8064 0.321289 15.2109V18.873C0.321289 19.2778 0.648972 19.6055 1.05371 19.6055H4.03223C4.43678 19.6055 4.76465 19.2776 4.76465 18.873V18.1406C4.76465 17.3315 5.42039 16.6758 6.22949 16.6758C7.03859 16.6758 7.69434 17.3315 7.69434 18.1406V18.873C7.69434 19.2778 8.02202 19.6055 8.42676 19.6055H12.0889V15.2109C12.0889 14.8064 12.4167 14.4785 12.8213 14.4785H13.5537C14.3628 14.4785 15.0186 13.8228 15.0186 13.0137Z" fill="white"/>
<path d="M23.8076 11.5488H24.5889C24.9934 11.5488 25.3213 11.221 25.3213 10.8164V7.1543C25.3213 6.74956 24.9936 6.42188 24.5889 6.42188H21.6104C21.2058 6.42188 20.8779 6.74975 20.8779 7.1543V7.88672C20.8779 8.69582 20.2222 9.35156 19.4131 9.35156C18.604 9.35156 17.9482 8.69582 17.9482 7.88672V7.1543C17.9482 6.74956 17.6206 6.42188 17.2158 6.42188H13.5537V10.084C15.2184 10.084 16.4834 11.4722 16.4834 13.0137C16.4834 14.5554 15.2186 15.9434 13.5537 15.9434V19.6055H17.2158V20.3379C17.2158 21.5494 18.2015 22.5352 19.4131 22.5352C20.6246 22.5352 21.6104 21.5494 21.6104 20.3379V19.6055H24.5889C24.9936 19.6055 25.3213 19.2778 25.3213 18.873V15.2109C25.3213 14.8064 24.9934 14.4785 24.5889 14.4785H23.8076C22.9985 14.4785 22.3428 13.8228 22.3428 13.0137C22.3428 12.2046 22.9985 11.5488 23.8076 11.5488Z" fill="white"/>
</g>
<defs>
<clipPath id="clip0_13513_405385">
<rect width="25" height="25" fill="white" transform="translate(0.321289 0.515625)"/>
</clipPath>
</defs>
</svg>
