<svg width="24" height="24" viewBox="0 0 24 24" fill="none" xmlns="http://www.w3.org/2000/svg">
<path d="M10.9395 3.75L9 5.6895V7.0605L9.08325 7.14375L1.5 17.76V19.0605L4.9395 22.5H6.24L9.8565 19.917L12.4395 22.5H14.5605L15.75 21.3105V19.1895L13.719 17.1585L16.857 14.9175L16.9395 15H18.3105L20.25 13.0605V11.6895L12.3105 3.75H10.9395ZM14.25 19.8105V20.6895L13.9395 21H13.0605L11.094 19.0335L12.4815 18.042L14.25 19.8105ZM5.76 21H5.5605L3 18.4395V18.24L10.158 8.2185L15.783 13.8435L5.76 21ZM18.75 12.4395L17.6895 13.5H17.5605L10.5 6.4395V6.3105L11.5605 5.25H11.6895L18.75 12.3105V12.4395Z" fill="#9E9E9E"/>
<path d="M17.4675 5.47119L21.2169 1.72179L22.2774 2.78229L18.528 6.53169L17.4675 5.47119Z" fill="#9E9E9E"/>
<path d="M15 1.5H16.5V4.5H15V1.5Z" fill="#9E9E9E"/>
<path d="M19.5 7.5H22.5V9H19.5V7.5Z" fill="#9E9E9E"/>
</svg>
