<svg width="29" height="28" viewBox="0 0 29 28" fill="none" xmlns="http://www.w3.org/2000/svg">
<g clip-path="url(#clip0_1_1804)">
<path d="M7.9375 24.4297C7.48419 24.4297 7.11719 24.7836 7.11719 25.2207V26.8027C7.11719 27.2399 7.48419 27.5938 7.9375 27.5938C8.39081 27.5938 8.75781 27.2399 8.75781 26.8027V25.2207C8.75781 24.7836 8.39081 24.4297 7.9375 24.4297Z" fill="white"/>
<path d="M11.7987 23.0794C11.4783 22.7704 10.9592 22.7704 10.6388 23.0794C10.3183 23.3884 10.3183 23.889 10.6388 24.1979L12.2794 25.78C12.4396 25.9345 12.6494 26.0117 12.8594 26.0117C13.0692 26.0117 13.2791 25.9345 13.4394 25.78C13.7598 25.471 13.7598 24.9704 13.4394 24.6614L11.7987 23.0794Z" fill="white"/>
<path d="M4.07626 23.0794L2.43564 24.6614C2.1152 24.9704 2.1152 25.471 2.43564 25.78C2.75607 26.089 3.27518 26.089 3.59561 25.78L5.23624 24.1979C5.55667 23.889 5.55667 23.3884 5.23624 23.0794C4.9158 22.7704 4.3967 22.7704 4.07626 23.0794Z" fill="white"/>
<path d="M21.0625 3.75781C21.5158 3.75781 21.8828 3.40392 21.8828 2.9668V1.38477C21.8828 0.947647 21.5158 0.59375 21.0625 0.59375C20.6092 0.59375 20.2422 0.947647 20.2422 1.38477V2.9668C20.2422 3.40392 20.6092 3.75781 21.0625 3.75781Z" fill="white"/>
<path d="M24.9237 5.16084L26.5644 3.5788C26.8848 3.26981 26.8848 2.76925 26.5644 2.46026C26.2439 2.15127 25.7248 2.15127 25.4044 2.46026L23.7638 4.04229C23.4433 4.35128 23.4433 4.85184 23.7638 5.16084C24.0842 5.46983 24.6033 5.46983 24.9237 5.16084Z" fill="white"/>
<path d="M17.2013 5.16084C17.5217 5.46983 18.0408 5.46983 18.3612 5.16084C18.6817 4.85184 18.6817 4.35128 18.3612 4.04229L16.7206 2.46026C16.4002 2.15127 15.8811 2.15127 15.5606 2.46026C15.2402 2.76925 15.2402 3.26981 15.5606 3.5788L17.2013 5.16084Z" fill="white"/>
<path d="M16.9609 14.0938C16.9609 13.2199 16.2265 12.5117 15.3203 12.5117H14.5C14.0469 12.5117 13.6797 12.1576 13.6797 11.7207V6.97461H9.57812V6.18359C9.57812 4.87512 8.47412 3.81055 7.11719 3.81055C5.76025 3.81055 4.65625 4.87512 4.65625 6.18359V6.97461H1.32031C0.867004 6.97461 0.5 7.32851 0.5 7.76562V11.7207C0.5 12.1576 0.867218 12.5117 1.32031 12.5117H2.19531C3.1015 12.5117 3.83594 13.2199 3.83594 14.0938C3.83594 14.9676 3.1015 15.6758 2.19531 15.6758H1.32031C0.867218 15.6758 0.5 16.0299 0.5 16.4668V20.4219C0.5 20.859 0.867004 21.2129 1.32031 21.2129H4.65625C5.10934 21.2129 5.47656 20.8588 5.47656 20.4219V19.6309C5.47656 18.757 6.211 18.0488 7.11719 18.0488C8.02338 18.0488 8.75781 18.757 8.75781 19.6309V20.4219C8.75781 20.859 9.12482 21.2129 9.57812 21.2129H13.6797V16.4668C13.6797 16.0299 14.0469 15.6758 14.5 15.6758H15.3203C16.2265 15.6758 16.9609 14.9676 16.9609 14.0938Z" fill="white"/>
<path d="M26.8047 12.5117H27.6797C28.1328 12.5117 28.5 12.1576 28.5 11.7207V7.76562C28.5 7.32851 28.133 6.97461 27.6797 6.97461H24.3438C23.8907 6.97461 23.5234 7.32871 23.5234 7.76562V8.55664C23.5234 9.43047 22.789 10.1387 21.8828 10.1387C20.9766 10.1387 20.2422 9.43047 20.2422 8.55664V7.76562C20.2422 7.32851 19.8752 6.97461 19.4219 6.97461H15.3203V10.9297C17.1848 10.9297 18.6016 12.4289 18.6016 14.0938C18.6016 15.7588 17.185 17.2578 15.3203 17.2578V21.2129H19.4219V22.0039C19.4219 23.3124 20.5259 24.377 21.8828 24.377C23.2397 24.377 24.3438 23.3124 24.3438 22.0039V21.2129H27.6797C28.133 21.2129 28.5 20.859 28.5 20.4219V16.4668C28.5 16.0299 28.1328 15.6758 27.6797 15.6758H26.8047C25.8985 15.6758 25.1641 14.9676 25.1641 14.0938C25.1641 13.2199 25.8985 12.5117 26.8047 12.5117Z" fill="white"/>
</g>
<defs>
<clipPath id="clip0_1_1804">
<rect width="28" height="27" fill="white" transform="translate(0.5 0.59375)"/>
</clipPath>
</defs>
</svg>
