<svg width="48" height="48" viewBox="0 0 48 48" fill="none" xmlns="http://www.w3.org/2000/svg">
<g clip-path="url(#clip0_1070_49768)">
<path d="M33.4184 1.05655e-09C25.7765 -9.37489e-05 19.5705 6.23878 19.6089 13.8805C19.6264 17.3492 20.923 20.5151 23.0509 22.9315C23.255 23.1634 23.3061 23.494 23.1721 23.7724C22.6337 24.8909 22.0243 25.7343 21.6125 26.24C21.3845 26.5199 21.5542 26.9416 21.9122 26.9889C23.5065 27.1996 25.4434 26.3998 26.2788 26.0051C26.4979 25.9015 26.7523 25.9082 26.9665 26.0216C28.8422 27.0147 30.9737 27.5888 33.2368 27.618C40.7638 27.7149 47.1303 21.5173 47.2266 13.9902C47.3252 6.28069 41.1052 9.37511e-05 33.4184 1.05656e-09V1.05655e-09Z" fill="#A99DEE"/>
<path d="M21.613 26.2429C21.3849 26.523 21.554 26.9448 21.9119 26.992C22.6727 27.0923 23.5103 26.9624 24.2701 26.757C24.2377 26.7541 24.2053 26.7502 24.1728 26.7462C23.815 26.6991 23.646 26.2773 23.874 25.9972C24.2849 25.4919 24.8943 24.6485 25.433 23.5298C25.5667 23.2516 25.5156 22.9203 25.3121 22.6883C23.1839 20.272 21.8872 17.1066 21.8695 13.6376C21.836 6.89497 26.6638 1.24353 33.0505 0.0078125C25.5775 0.204406 19.5712 6.36509 19.6085 13.8833C19.6262 17.3524 20.9228 20.5178 23.0511 22.934C23.2545 23.166 23.3057 23.4972 23.172 23.7755C22.6334 24.8942 22.0239 25.7377 21.613 26.2429Z" fill="#6F5CE3"/>
<path d="M26.2696 15.6744C25.2377 15.6744 24.4012 14.8378 24.4012 13.8059C24.4012 12.774 25.2377 11.9375 26.2696 11.9375C27.3015 11.9375 28.1381 12.774 28.1381 13.8059C28.1381 14.8378 27.3015 15.6744 26.2696 15.6744Z" fill="#F4F2FD"/>
<path d="M33.4182 15.6744C32.3863 15.6744 31.5498 14.8378 31.5498 13.8059C31.5498 12.774 32.3863 11.9375 33.4182 11.9375C34.4502 11.9375 35.2867 12.774 35.2867 13.8059C35.2867 14.8378 34.4502 15.6744 33.4182 15.6744Z" fill="#F4F2FD"/>
<path d="M40.5668 15.6744C39.5349 15.6744 38.6984 14.8378 38.6984 13.8059C38.6984 12.774 39.5349 11.9375 40.5668 11.9375C41.5987 11.9375 42.4352 12.774 42.4352 13.8059C42.4352 14.8378 41.5987 15.6744 40.5668 15.6744Z" fill="#F4F2FD"/>
<path d="M1.66203 9.82574C2.40284 8.05593 3.57613 6.46574 5.09113 5.2873C6.73616 4.0078 9.08937 2.56424 11.2352 3.50511C11.8272 3.76471 12.3085 4.18105 12.6817 4.6948C12.9379 5.04355 13.1434 5.44011 13.3032 5.87708C13.3374 5.96989 14.7362 10.401 15.255 12.5588C15.602 14.0036 15.3393 15.0005 14.4158 15.7884C14.127 16.035 13.7743 16.2612 13.3544 16.4742C12.3609 16.978 11.3288 17.401 10.2932 17.819C10.1488 17.8773 10.0043 17.9354 9.86 17.9936L8.64313 18.4549L9.09069 19.7321C11.4888 26.447 15.2498 32.2786 20.3974 37.2115L21.2398 38.1144L22.3061 37.1013C23.1122 36.2465 23.8966 35.3482 24.8145 34.6266C26.4331 33.354 27.706 33.2798 29.3434 34.5174C31.2673 35.9715 33.1658 37.4971 34.8631 39.2028C36.7386 41.0875 36.6076 42.8919 34.7686 44.8192C33.176 46.4884 31.2021 47.4501 28.9441 47.8586C26.0317 48.3856 22.7256 47.3945 20.1786 45.9115C17.9723 44.6269 15.9688 43.1841 14.1547 41.5954L11.6133 39.1468C7.07675 34.3387 3.95113 28.4514 1.94047 21.7551C0.821938 18.0296 0.123219 13.5021 1.66203 9.82574Z" fill="#BDBDBD"/>
<path d="M8.64311 18.455C7.1987 14.2767 5.91292 9.88588 4.81961 5.50569C4.90839 5.43088 4.9997 5.35851 5.09111 5.28754C6.57152 4.14332 8.56071 2.90385 10.5117 3.27941C12.0175 3.56863 12.9639 4.75607 13.399 6.15904C14.0561 8.28135 14.7361 10.4012 15.255 12.5591C15.7105 14.4556 15.1167 15.5808 13.3547 16.4739C12.2231 17.0486 11.0382 17.5192 9.8598 17.9937L8.64311 18.455Z" fill="#757575"/>
<path d="M21.24 38.1176C22.722 39.6314 24.2827 41.1105 25.9035 42.5739C27.696 44.1914 29.3997 45.6514 31.4775 47.1104C32.7004 46.584 33.8041 45.8329 34.7683 44.8218C36.6077 42.8949 36.7383 41.091 34.8634 39.2058C33.1661 37.4996 31.267 35.9747 29.3438 34.521C27.7061 33.2828 26.4337 33.3577 24.815 34.6301C23.8965 35.3519 23.1126 36.2501 22.3058 37.1038L21.24 38.1176Z" fill="#757575"/>
<path d="M1.94037 21.7522C5.03018 32.0416 10.7513 40.42 20.1787 45.9087C22.7254 47.3923 26.0315 48.383 28.9443 47.8559C31.2024 47.4475 33.1757 46.486 34.7689 44.8163C35.5313 44.0167 36.0011 43.2382 36.1539 42.4668C36.1126 42.512 36.0694 42.5583 36.0261 42.6035C34.4329 44.2732 32.4595 45.2347 30.2015 45.6431C27.2887 46.1702 23.9826 45.1794 21.4359 43.6959C12.0085 38.2072 6.28746 29.8289 3.19756 19.5394C2.07912 15.8139 1.38002 11.2868 2.91893 7.61059C2.93908 7.56334 2.95915 7.51609 2.98024 7.46875C2.4663 8.17188 2.02474 8.95534 1.66165 9.82338C0.122837 13.4996 0.82193 18.0268 1.94037 21.7522Z" fill="#BDBDBD"/>
<path d="M30.2015 45.6451C32.4596 45.2368 34.4329 44.2752 36.0261 42.6055C36.0693 42.5603 36.1126 42.514 36.1539 42.4688C36.1528 42.4728 36.1519 42.4768 36.1509 42.4808C36.1438 42.516 36.1368 42.5523 36.1277 42.5874C36.0875 42.744 36.0347 42.8972 35.9745 43.0471C35.8536 43.3481 35.7042 43.6272 35.5223 43.896C35.3463 44.1558 35.1506 44.4019 34.9409 44.6352C34.7195 44.8818 34.4838 45.1154 34.2375 45.3371C33.7897 45.7401 33.3154 46.1011 32.8026 46.4176C32.4647 46.6261 32.1144 46.8151 31.7535 46.9828C31.6821 47.016 31.6107 47.0492 31.5383 47.0794C31.5181 47.0894 31.4981 47.0975 31.4779 47.1066C30.8262 46.6489 30.2116 46.1923 29.6202 45.7297C29.8152 45.7085 30.0094 45.6803 30.2015 45.6451Z" fill="#685E68"/>
</g>
<defs>
<clipPath id="clip0_1070_49768">
<rect width="48" height="48" fill="white" transform="matrix(-1 0 0 1 48 0)"/>
</clipPath>
</defs>
</svg>
