<svg width="17" height="18" viewBox="0 0 17 18" fill="none" xmlns="http://www.w3.org/2000/svg">
<path d="M14.0518 1.72696H2.38708C2.12374 1.72676 1.86295 1.78107 1.61962 1.88679C1.37629 1.99251 1.1552 2.14757 0.96899 2.34309C0.782782 2.5386 0.635111 2.77075 0.534424 3.02625C0.433738 3.28174 0.382011 3.55557 0.382203 3.83208V14.9318C0.382011 15.2083 0.433738 15.4821 0.534424 15.7376C0.635111 15.9931 0.782782 16.2253 0.96899 16.4208C1.1552 16.6163 1.37629 16.7714 1.61962 16.8771C1.86295 16.9828 2.12374 17.0371 2.38708 17.0369H11.3179V15.8887H2.38708C2.14538 15.8887 1.91359 15.7879 1.74269 15.6084C1.57178 15.429 1.47577 15.1856 1.47577 14.9318V3.83208C1.47577 3.5783 1.57178 3.33492 1.74269 3.15547C1.91359 2.97602 2.14538 2.87521 2.38708 2.87521H14.0518C14.2935 2.87521 14.5253 2.97602 14.6962 3.15547C14.8671 3.33492 14.9631 3.5783 14.9631 3.83208V12.0612H16.0567V3.83208C16.0569 3.55557 16.0051 3.28174 15.9045 3.02625C15.8038 2.77075 15.6561 2.5386 15.4699 2.34309C15.2837 2.14757 15.0626 1.99251 14.8193 1.88679C14.5759 1.78107 14.3151 1.72676 14.0518 1.72696ZM12.4115 15.0772V16.7001L15.7359 13.2094H14.1903L12.4115 15.0772Z" fill="white"/>
<path d="M16.0567 5.7464C16.0557 5.89835 15.9978 6.0438 15.8955 6.15125C15.7931 6.25871 15.6546 6.31952 15.5099 6.32052H0.928986C0.78397 6.32052 0.644894 6.26003 0.542352 6.15236C0.43981 6.04469 0.382202 5.89866 0.382202 5.7464C0.382202 5.59413 0.43981 5.4481 0.542352 5.34043C0.644894 5.23276 0.78397 5.17227 0.928986 5.17227H15.5099C15.6546 5.17327 15.7931 5.23408 15.8955 5.34154C15.9978 5.44899 16.0557 5.59444 16.0567 5.7464Z" fill="white"/>
<path d="M6.76041 4.02561C6.61539 4.02561 6.47631 3.96512 6.37377 3.85746C6.27123 3.74979 6.21362 3.60376 6.21362 3.45149V1.155C6.21362 1.00273 6.27123 0.856697 6.37377 0.749028C6.47631 0.641359 6.61539 0.580872 6.76041 0.580872C6.90542 0.580872 7.0445 0.641359 7.14704 0.749028C7.24958 0.856697 7.30719 1.00273 7.30719 1.155V3.45149C7.30719 3.60376 7.24958 3.74979 7.14704 3.85746C7.0445 3.96512 6.90542 4.02561 6.76041 4.02561Z" fill="white"/>
<path d="M3.84476 4.02561C3.69974 4.02561 3.56066 3.96512 3.45812 3.85746C3.35558 3.74979 3.29797 3.60376 3.29797 3.45149V1.155C3.29797 1.00273 3.35558 0.856697 3.45812 0.749028C3.56066 0.641359 3.69974 0.580872 3.84476 0.580872C3.98977 0.580872 4.12885 0.641359 4.23139 0.749028C4.33393 0.856697 4.39154 1.00273 4.39154 1.155V3.45149C4.39154 3.60376 4.33393 3.74979 4.23139 3.85746C4.12885 3.96512 3.98977 4.02561 3.84476 4.02561Z" fill="white"/>
<path d="M12.5933 4.02561C12.4483 4.02561 12.3092 3.96512 12.2067 3.85746C12.1041 3.74979 12.0465 3.60376 12.0465 3.45149V1.155C12.0465 1.00273 12.1041 0.856697 12.2067 0.749028C12.3092 0.641359 12.4483 0.580872 12.5933 0.580872C12.7383 0.580872 12.8774 0.641359 12.9799 0.749028C13.0825 0.856697 13.1401 1.00273 13.1401 1.155V3.45149C13.1401 3.60376 13.0825 3.74979 12.9799 3.85746C12.8774 3.96512 12.7383 4.02561 12.5933 4.02561Z" fill="white"/>
<path d="M9.67764 4.02561C9.53263 4.02561 9.39355 3.96512 9.29101 3.85746C9.18847 3.74979 9.13086 3.60376 9.13086 3.45149V1.155C9.13086 1.00273 9.18847 0.856697 9.29101 0.749028C9.39355 0.641359 9.53263 0.580872 9.67764 0.580872C9.82266 0.580872 9.96174 0.641359 10.0643 0.749028C10.1668 0.856697 10.2244 1.00273 10.2244 1.155V3.45149C10.2244 3.60376 10.1668 3.74979 10.0643 3.85746C9.96174 3.96512 9.82266 4.02561 9.67764 4.02561Z" fill="white"/>
<path d="M12.4113 13.2114V15.0792L14.1901 13.2114H12.4113ZM1.47559 6.3219V14.9338C1.47559 15.1875 1.5716 15.4309 1.7425 15.6104C1.9134 15.7898 2.1452 15.8906 2.38689 15.8906H11.3177V12.6373C11.3187 12.4853 11.3766 12.3399 11.4789 12.2324C11.5812 12.1249 11.7198 12.0641 11.8645 12.0631H14.9629V6.3219H1.47559ZM10.7928 9.21548L7.87661 12.2775C7.82594 12.3309 7.76573 12.3733 7.69942 12.4022C7.63311 12.4311 7.56202 12.446 7.49021 12.446C7.41841 12.446 7.34732 12.4311 7.28101 12.4022C7.2147 12.3733 7.15449 12.3309 7.10382 12.2775L5.64573 10.7465C5.54914 10.6376 5.49656 10.4937 5.49906 10.345C5.50156 10.1962 5.55895 10.0543 5.65913 9.94912C5.75931 9.84393 5.89446 9.78368 6.03612 9.78105C6.17777 9.77843 6.31486 9.83364 6.41852 9.93505L7.49021 11.0603L10.02 8.40405C10.1237 8.30264 10.2607 8.24743 10.4024 8.25005C10.5441 8.25268 10.6792 8.31293 10.7794 8.41812C10.8796 8.52331 10.937 8.66522 10.9395 8.81396C10.942 8.9627 10.8894 9.10665 10.7928 9.21548Z" fill="white"/>
</svg>
