<svg width="17" height="17" viewBox="0 0 17 17" fill="none" xmlns="http://www.w3.org/2000/svg">
<path d="M11.8023 0.938293H5.19773C2.32891 0.938293 0.618652 2.64855 0.618652 5.51737V12.122C0.618652 14.9908 2.32891 16.701 5.19773 16.701H11.8023C14.6711 16.701 16.3814 14.9908 16.3814 12.122V5.51737C16.3814 2.64855 14.6711 0.938293 11.8023 0.938293ZM6.90011 11.1053L5.1268 12.8786C5.00858 12.9968 4.85883 13.052 4.70909 13.052C4.55934 13.052 4.40171 12.9968 4.29137 12.8786L3.70027 12.2875C3.46383 12.0589 3.46383 11.6806 3.70027 11.4521C3.92883 11.2235 4.29926 11.2235 4.5357 11.4521L4.70909 11.6254L6.06468 10.2698C6.29324 10.0413 6.66367 10.0413 6.90011 10.2698C7.12867 10.4984 7.12867 10.8767 6.90011 11.1053ZM6.90011 5.58831L5.1268 7.36162C5.00858 7.47984 4.85883 7.53501 4.70909 7.53501C4.55934 7.53501 4.40171 7.47984 4.29137 7.36162L3.70027 6.77051C3.46383 6.54195 3.46383 6.16365 3.70027 5.93509C3.92883 5.70653 4.29926 5.70653 4.5357 5.93509L4.70909 6.10848L6.06468 4.75288C6.29324 4.52432 6.66367 4.52432 6.90011 4.75288C7.12867 4.98144 7.12867 5.35975 6.90011 5.58831ZM12.8821 12.4609H8.74435C8.42122 12.4609 8.15325 12.1929 8.15325 11.8698C8.15325 11.5466 8.42122 11.2787 8.74435 11.2787H12.8821C13.2131 11.2787 13.4732 11.5466 13.4732 11.8698C13.4732 12.1929 13.2131 12.4609 12.8821 12.4609ZM12.8821 6.9439H8.74435C8.42122 6.9439 8.15325 6.67594 8.15325 6.3528C8.15325 6.02966 8.42122 5.7617 8.74435 5.7617H12.8821C13.2131 5.7617 13.4732 6.02966 13.4732 6.3528C13.4732 6.67594 13.2131 6.9439 12.8821 6.9439Z" fill="white"/>
</svg>
