<svg width="17" height="19" viewBox="0 0 17 19" fill="none" xmlns="http://www.w3.org/2000/svg">
<path d="M7.42234 15.0268L4.29906 11.9261L5.24962 10.9755L7.42234 13.103L11.5867 8.93862L12.5373 9.91181L7.42234 15.0268ZM1.69633 18.3764C1.33421 18.3764 1.01735 18.2406 0.745763 17.969C0.474174 17.6974 0.338379 17.3805 0.338379 17.0184V2.98628C0.338379 2.62416 0.474174 2.30731 0.745763 2.03572C1.01735 1.76413 1.33421 1.62833 1.69633 1.62833H3.16744V0.270386H4.63855V1.62833H12.3336V0.270386H13.8047V1.62833H15.2758C15.6379 1.62833 15.9548 1.76413 16.2264 2.03572C16.498 2.30731 16.6338 2.62416 16.6338 2.98628V17.0184C16.6338 17.3805 16.498 17.6974 16.2264 17.969C15.9548 18.2406 15.6379 18.3764 15.2758 18.3764H1.69633ZM1.69633 17.0184H15.2758V7.28645H1.69633V17.0184Z" fill="white"/>
</svg>
