<svg width="48" height="48" viewBox="0 0 48 48" fill="none" xmlns="http://www.w3.org/2000/svg">
<g clip-path="url(#clip0_1042_50452)">
<path d="M42.3507 48.0003H5.64923C4.0728 48.0003 2.79492 46.7225 2.79492 45.146V41.1754L45.205 33.4688V45.146C45.205 46.7225 43.9271 48.0003 42.3507 48.0003Z" fill="#CDBFBA"/>
<path d="M34.5857 45.1477H5.65399C4.07498 45.1477 2.79492 43.8676 2.79492 42.2886V6.83563C2.79492 5.25663 4.07498 3.97656 5.65399 3.97656H42.3459C43.9249 3.97656 45.2049 5.25663 45.2049 6.83563V34.5283C45.2049 35.2866 43.4766 36.0138 42.9403 36.5501L36.6073 42.8831C36.0712 43.4193 35.344 45.1477 34.5857 45.1477Z" fill="#F9F3F1"/>
<path d="M33.3995 45.1424C34.6932 45.1424 35.742 44.0937 35.742 42.7999V38.0366C35.742 36.7429 36.7908 35.6941 38.0845 35.6941H42.8478C44.1416 35.6941 45.1904 34.6453 45.1904 33.3516V34.5098C45.1904 35.2681 44.8891 35.9953 44.3529 36.5316L36.5794 44.3051C36.0431 44.8413 35.316 45.1425 34.5577 45.1425H33.3995V45.1424Z" fill="#EFE2DD"/>
<path d="M45.2046 6.83087V14.1741H2.79529V6.83087C2.79529 5.25529 4.07307 3.97656 5.6496 3.97656H42.3503C43.9269 3.97656 45.2046 5.25529 45.2046 6.83087Z" fill="#DC3535"/>
<path d="M10.8749 8.95857C10.3305 8.95857 9.86826 8.95829 9.47436 8.95829C8.27746 8.95829 7.30414 7.98497 7.30414 6.78901V3.97656H8.73129V6.78901C8.73129 7.19813 9.0643 7.53113 9.47436 7.53113C9.86826 7.53113 11.2688 8.95857 10.8749 8.95857Z" fill="#6354B1"/>
<path d="M36.7974 8.95857C36.7974 8.95857 35.7911 8.95829 35.3963 8.95829C34.2003 8.95829 33.227 7.98497 33.227 6.78901V3.97656H34.6541V6.78901C34.6541 7.19813 34.9871 7.53113 35.3963 7.53113C35.7911 7.53113 36.7974 8.56468 36.7974 8.95857Z" fill="#6354B1"/>
<path d="M11.9453 3.97453V2.16994C11.9453 1.76035 11.6121 1.42716 11.2025 1.42716H10.8749C10.4653 1.42716 10.1321 1.76035 10.1321 2.16994V6.78632C10.1321 7.19591 10.4653 7.5291 10.8749 7.5291C11.269 7.5291 11.5885 7.8486 11.5885 8.24268C11.5885 8.63677 11.269 8.95626 10.8749 8.95626C9.67837 8.95626 8.70496 7.98284 8.70496 6.78632V2.16994C8.70496 0.973415 9.67837 0 10.8749 0H11.2025C12.399 0 13.3724 0.973415 13.3724 2.16994V3.97453H11.9453Z" fill="#554E56"/>
<path d="M37.8678 3.97453V2.16994C37.8678 1.76035 37.5346 1.42716 37.125 1.42716H36.7974C36.3879 1.42716 36.0547 1.76035 36.0547 2.16994V6.78632C36.0547 7.19591 36.3879 7.5291 36.7974 7.5291C37.1915 7.5291 37.511 7.8486 37.511 8.24268C37.511 8.63677 37.1915 8.95626 36.7974 8.95626C35.6009 8.95626 34.6275 7.98284 34.6275 6.78632V2.16994C34.6275 0.973415 35.6009 0 36.7974 0H37.125C38.3216 0 39.295 0.973415 39.295 2.16994V3.97453H37.8678Z" fill="#554E56"/>
<path d="M24.625 21.3729L26.9217 26.0266C27.0232 26.2323 27.2195 26.3749 27.4465 26.4079L32.5822 27.1541C33.1539 27.2372 33.3823 27.9398 32.9685 28.3432L29.2523 31.9656C29.0879 32.1257 29.013 32.3564 29.0518 32.5826L29.929 37.6974C30.0267 38.2668 29.4289 38.7011 28.9176 38.4323L24.3242 36.0174C24.1212 35.9106 23.8785 35.9106 23.6754 36.0174L19.082 38.4323C18.5706 38.7012 17.9729 38.2669 18.0706 37.6974L18.9478 32.5826C18.9866 32.3564 18.9117 32.1257 18.7474 31.9656L15.0311 28.3432C14.6175 27.9398 14.8457 27.2372 15.4174 27.1541L20.5531 26.4079C20.7801 26.3749 20.9764 26.2323 21.0779 26.0266L23.3746 21.3729C23.6305 20.8549 24.3694 20.8549 24.625 21.3729Z" fill="#FEC165"/>
</g>
<defs>
<clipPath id="clip0_1042_50452">
<rect width="48" height="48" fill="white"/>
</clipPath>
</defs>
</svg>
