<svg width="168" height="134" viewBox="0 0 168 134" fill="none" xmlns="http://www.w3.org/2000/svg">
    <defs>
        <filter id="filter0_d_16112_449185" x="38.6785" y="26.882" width="95.8895" height="106.722"
            filterUnits="userSpaceOnUse" color-interpolation-filters="sRGB">
            <feFlood flood-opacity="0" result="BackgroundImageFix" />
            <feColorMatrix in="SourceAlpha" type="matrix"
                values="0 0 0 0 0 0 0 0 0 0 0 0 0 0 0 0 0 0 127 0" result="hardAlpha" />
            <feOffset dy="4" />
            <feGaussianBlur stdDeviation="6" />
            <feColorMatrix type="matrix"
                values="0 0 0 0 0.129412 0 0 0 0 0.129412 0 0 0 0 0.129412 0 0 0 0.08 0" />
            <feBlend mode="normal" in2="BackgroundImageFix"
                result="effect1_dropShadow_16112_449185" />
            <feBlend mode="normal" in="SourceGraphic" in2="effect1_dropShadow_16112_449185"
                result="shape" />
        </filter>
        <filter id="filter1_d_16112_449185" x="101.105" y="4.51025" width="62.6645" height="54.8906"
            filterUnits="userSpaceOnUse" color-interpolation-filters="sRGB">
            <feFlood flood-opacity="0" result="BackgroundImageFix" />
            <feColorMatrix in="SourceAlpha" type="matrix"
                values="0 0 0 0 0 0 0 0 0 0 0 0 0 0 0 0 0 0 127 0" result="hardAlpha" />
            <feOffset dy="4" />
            <feGaussianBlur stdDeviation="6" />
            <feColorMatrix type="matrix"
                values="0 0 0 0 0.129412 0 0 0 0 0.129412 0 0 0 0 0.129412 0 0 0 0.08 0" />
            <feBlend mode="normal" in2="BackgroundImageFix"
                result="effect1_dropShadow_16112_449185" />
            <feBlend mode="normal" in="SourceGraphic" in2="effect1_dropShadow_16112_449185"
                result="shape" />
        </filter>
        <filter id="filter2_d_16112_449185" x="-0.857422" y="14.498" width="94.3636"
            height="100.835" filterUnits="userSpaceOnUse" color-interpolation-filters="sRGB">
            <feFlood flood-opacity="0" result="BackgroundImageFix" />
            <feColorMatrix in="SourceAlpha" type="matrix"
                values="0 0 0 0 0 0 0 0 0 0 0 0 0 0 0 0 0 0 127 0" result="hardAlpha" />
            <feOffset dy="12" />
            <feGaussianBlur stdDeviation="12" />
            <feColorMatrix type="matrix"
                values="0 0 0 0 0.129412 0 0 0 0 0.129412 0 0 0 0 0.129412 0 0 0 0.16 0" />
            <feBlend mode="normal" in2="BackgroundImageFix"
                result="effect1_dropShadow_16112_449185" />
            <feBlend mode="normal" in="SourceGraphic" in2="effect1_dropShadow_16112_449185"
                result="shape" />
        </filter>
        <linearGradient id="paint0_linear_16112_449185" x1="127.531" y1="26.8499" x2="116.839"
            y2="25.6292" gradientUnits="userSpaceOnUse">
            <stop stop-color="white" />
            <stop offset="1" stop-color="#524032" />
        </linearGradient>
        <linearGradient id="paint1_linear_16112_449185" x1="134.322" y1="29.6531" x2="115.246"
            y2="23.8369" gradientUnits="userSpaceOnUse">
            <stop stop-color="white" />
            <stop offset="1" stop-color="#CCC0AF" />
        </linearGradient>
        <clipPath id="clip0_16112_449185">
            <rect width="44.7613" height="43.9324" fill="white"
                transform="translate(107.636 21.7162) rotate(-28.2404)" />
        </clipPath>
        <clipPath id="clip1_16112_449185">
            <rect width="40.6974" height="48.153" fill="white"
                transform="translate(29.1241 26.498) rotate(7.13564)" />
        </clipPath>
    </defs>
    <circle cx="93.2122" cy="52.9158" r="52.037" fill="#F3F3F3" />
    <g filter="url(#filter0_d_16112_449185)">
        <path d="M122.568 52.8716L75.3311 34.882L50.6785 99.6143L97.9154 117.604L122.568 52.8716Z"
            fill="white" />
    </g>
    <g clip-path="url(#clip0_16112_449185)">
        <g filter="url(#filter1_d_16112_449185)">
            <path
                d="M151.754 33.1928C151.66 34.0097 151.452 34.7729 151.105 35.4769C150.784 36.1439 150.034 36.4931 149.325 36.2798L148.461 36.023L146.923 35.5653L142.132 34.1405L143.554 29.4668L148.345 30.8916L149.884 31.3492L150.706 31.5938C151.396 31.8017 151.835 32.4745 151.749 33.1914L151.754 33.1928Z"
                fill="#FFF5E8" />
            <path
                d="M150.712 31.5981L150.478 31.5284C150.743 31.8649 150.883 32.2962 150.828 32.7473C150.721 33.6555 150.491 34.5071 150.105 35.2895C149.883 35.746 149.485 36.0674 149.026 36.191L149.329 36.2811C150.037 36.4915 150.789 36.1452 151.11 35.4783C151.457 34.7742 151.663 34.0081 151.758 33.1941C151.844 32.4772 151.404 31.8089 150.715 31.5965L150.712 31.5981Z"
                fill="#F0DCC3" />
            <path
                d="M149.491 32.2922L148.657 35.0287C148.546 35.3908 148.16 35.5983 147.794 35.492L147.78 35.4879C147.417 35.38 147.211 34.9963 147.32 34.6312L148.154 31.8947C148.265 31.5326 148.651 31.3251 149.017 31.4314L149.031 31.4355C149.394 31.5434 149.6 31.9272 149.491 32.2922Z"
                fill="white" />
            <g style="mix-blend-mode:multiply">
                <path
                    d="M143.639 29.4955L142.214 34.1693L144.4 34.8193L145.825 30.1456L143.639 29.4955Z"
                    fill="#CCC0AF" />
            </g>
            <path
                d="M143.825 24.9233C142.191 16.5608 134.055 11.1392 125.651 12.8139C117.248 14.4885 111.759 22.6253 113.392 30.9878C115.025 39.3504 123.162 44.7719 131.565 43.0972C139.969 41.4226 145.458 33.2858 143.825 24.9233Z"
                fill="#FFF5E8" />
            <path
                d="M142.416 24.1802C140.368 16.594 132.524 12.134 124.897 14.2185C117.271 16.303 112.749 24.1426 114.798 31.7288C116.847 39.315 124.69 43.775 132.317 41.6905C139.944 39.606 144.465 31.7664 142.416 24.1802Z"
                fill="#F0DCC3" />
            <path
                d="M140.893 25.888C139.786 19.1344 133.388 14.585 126.602 15.7266C119.817 16.8682 115.213 23.2684 116.32 30.022C117.428 36.7756 123.826 41.325 130.612 40.1834C137.397 39.0418 142 32.6415 140.893 25.888Z"
                fill="#C78633" />
            <path style="mix-blend-mode:overlay" opacity="0.21" fill-rule="evenodd"
                clip-rule="evenodd"
                d="M120.018 35.6649C115.951 30.5933 116.796 23.1707 121.913 19.0884C123.437 17.8717 125.168 17.0992 126.953 16.7228C130.536 15.9712 129.934 21.7414 128.132 27.3396C126.236 33.2298 122.145 38.3172 120.018 35.6649Z"
                fill="url(#paint0_linear_16112_449185)" />
            <path style="mix-blend-mode:multiply"
                d="M124.448 41.6069C116.893 39.3597 112.631 31.4257 114.93 23.8855C117.229 16.3454 125.218 12.0547 132.773 14.3019C140.329 16.5491 132.003 43.8511 124.45 41.6023L124.448 41.6069Z"
                fill="url(#paint1_linear_16112_449185)" />
        </g>
    </g>

    <circle cx="133.707" cy="47.0267" r="2.73327" fill="#D6B28A" />
    <circle cx="137.747" cy="50.6987" r="1.45222" fill="#E6C4A0" />
    <g clip-path="url(#clip1_16112_449185)" filter="url(#filter2_d_16112_449185)">
        <path
            d="M69.5062 31.5534L66.9532 36.6202C65.6641 37.7917 63.099 34.6181 64.2182 33.6048L69.5062 31.5534Z"
            fill="#FCEAB8" />
        <path
            d="M64.6815 35.9294C65.3425 36.7042 66.3091 37.2023 66.9536 36.6166L69.5067 31.5498L66.2814 35.8733C65.6368 36.4591 65.0086 36.3292 64.682 35.9258L64.6815 35.9294Z"
            fill="#FCEDC2" />
        <path
            d="M64.6815 35.9293C64.3548 35.5259 64.3329 34.8531 64.8909 34.3444L69.5062 31.5534L64.2182 33.6047C63.6602 34.1134 64.0237 35.1586 64.681 35.9329L64.6815 35.9293Z"
            fill="#FCE5A6" />
        <path
            d="M65.1397 34.1412C65.0409 34.8429 65.7582 35.665 66.5072 35.6489L31.633 67.2962L30.2656 65.7885L65.1397 34.1412Z"
            fill="#FCCC44" />
        <path
            d="M64.2182 33.6047C64.0672 33.9337 64.5543 34.3425 65.1397 34.1412L30.2656 65.7885L29.5798 65.0362L64.2182 33.6047Z"
            fill="#E6B62E" />
        <path
            d="M66.9532 36.6202C66.6125 36.7387 66.2534 36.214 66.5072 35.649L31.633 67.2962L32.3188 68.0485L66.9532 36.6202Z"
            fill="#FCDD83" />
        <path d="M68.7646 33.0314L69.5062 31.5534L67.9667 32.1516L68.7646 33.0314Z"
            fill="#666666" />
        <path d="M29.5859 65.0319L26.3734 67.9474L29.1106 70.9635L32.3231 68.0481L29.5859 65.0319Z"
            fill="#999999" />
        <path d="M31.0816 66.6817L27.8691 69.5972L28.8336 70.6599L32.0461 67.7445L31.0816 66.6817Z"
            fill="#CCCCCC" />
        <path
            d="M24.792 69.3802L26.37 67.9482L29.1086 70.9641L27.5306 72.3961C27.4895 72.4312 27.4562 72.4637 27.4129 72.4875C26.9802 72.7849 26.3872 72.7253 26.024 72.321L24.721 70.8836C24.3254 70.4459 24.3584 69.7726 24.7924 69.3766L24.792 69.3802Z"
            fill="#CC7487" />
        <path
            d="M25.4773 70.136L27.0553 68.7041L29.1086 70.9641L27.5306 72.396C27.4895 72.4312 27.4562 72.4636 27.4129 72.4875C26.9802 72.7849 26.3872 72.7253 26.024 72.3209L25.2292 71.4452C24.93 71.1148 25.0437 70.5285 25.4814 70.1329L25.4773 70.136Z"
            fill="#F2859E" />
        <path
            d="M26.9224 67.2206L26.9278 67.2157C27.0811 67.0765 27.3172 67.088 27.4564 67.2414L29.9153 69.9508C30.0544 70.1041 30.043 70.3402 29.8896 70.4794L29.8842 70.4843C29.7309 70.6235 29.4948 70.612 29.3556 70.4587L26.8968 67.7492C26.7576 67.5959 26.769 67.3598 26.9224 67.2206Z"
            fill="#B3B3B3" />
        <path
            d="M28.264 66.5083L30.7223 69.2181C30.8607 69.3709 30.8493 69.6075 30.6965 69.7458L30.6956 69.753C30.5392 69.8909 30.299 69.8791 30.1607 69.7263L27.7024 67.0165C27.5641 66.8637 27.5754 66.6271 27.7282 66.4888L27.7291 66.4816C27.8855 66.3437 28.1257 66.3555 28.264 66.5083Z"
            fill="#B3B3B3" />
    </g>
</svg>
