<svg width="116" height="116" viewBox="0 0 116 116" fill="none" xmlns="http://www.w3.org/2000/svg">
<g clip-path="url(#clip0_15203_447140)">
<path fill-rule="evenodd" clip-rule="evenodd" d="M101.282 60.1519C100.162 83.3319 81.0116 101.782 57.5516 101.782C40.5716 101.782 25.8616 92.1119 18.6016 77.9919L6.35156 84.2219C15.8616 102.932 35.2816 115.762 57.7116 115.762C88.8616 115.762 114.212 91.0419 115.262 60.1519H101.272H101.282Z" fill="#E0E0E0"/>
<path fill-rule="evenodd" clip-rule="evenodd" d="M57.5815 14.2219C81.7515 14.2419 101.332 33.8319 101.332 58.0019C101.332 58.0519 101.332 58.1019 101.332 58.1519H115.322C115.322 26.3519 89.5315 0.571899 57.7215 0.571899C57.6715 0.571899 57.6315 0.571899 57.5815 0.571899V14.2219Z" fill="#E0E0E0"/>
<path fill-rule="evenodd" clip-rule="evenodd" d="M17.7316 76.1919C15.2016 70.6519 13.7716 64.4919 13.7716 58.0019C13.7716 34.4819 32.3216 15.3019 55.5816 14.2719V0.621887C24.7616 1.75189 0.121582 27.0719 0.121582 58.1719C0.121582 66.8419 2.05158 75.0519 5.48158 82.4319L17.7316 76.1919Z" fill="#E0E0E0"/>
</g>
<defs>
<clipPath id="clip0_15203_447140">
<rect width="115.19" height="115.2" fill="white" transform="translate(0.121582 0.571899)"/>
</clipPath>
</defs>
</svg>
