<svg width="187" height="166" viewBox="0 0 187 166" fill="none" xmlns="http://www.w3.org/2000/svg">
<g clip-path="url(#clip0_14105_446331)">
<path d="M20.4343 35.3734C-1.42451 67.8142 4.68598 111.924 26.7777 136.967C64.9897 180.276 150.353 165.79 170.72 121.431C190.686 77.9588 148.052 6.18206 93.3718 0.500735C66.8781 -2.25001 37.2085 10.4819 20.4343 35.3734Z" fill="#ECF3FE"/>
<path d="M144.99 102.532L88.2377 20.443C86.6233 18.105 83.4147 17.5206 81.0768 19.135L2.31895 73.5858C-0.01898 75.2003 -0.603462 78.4088 1.01102 80.7467L57.7629 162.832C59.3774 165.17 62.5859 165.754 64.9239 164.14L143.682 109.689C146.02 108.074 146.604 104.866 144.99 102.528V102.532Z" fill="#F9C067"/>
<path d="M51.6154 146.957C50.4791 146.957 49.3714 146.609 48.4191 145.943C47.197 145.085 46.3836 143.805 46.1261 142.334L28.9105 44.0347C28.3791 41.0019 30.4146 38.1041 33.4474 37.5727L127.761 21.056C130.794 20.5247 133.692 22.5601 134.223 25.5929L151.439 123.892C151.97 126.925 149.935 129.823 146.902 130.354L52.5881 146.871C52.2611 146.928 51.9382 146.957 51.6113 146.957H51.6154ZM128.726 21.8489C128.456 21.8489 128.187 21.8735 127.913 21.9184L33.5986 38.4351C31.04 38.8847 29.3274 41.3289 29.7729 43.8835L46.9886 142.183C47.2052 143.421 47.8918 144.5 48.9218 145.224C49.9518 145.947 51.1985 146.225 52.4369 146.008L146.751 129.492C149.31 129.042 151.022 126.598 150.577 124.043L133.361 25.7441C132.96 23.4593 130.97 21.8489 128.726 21.8489Z" fill="#444444"/>
<g style="mix-blend-mode:multiply" opacity="0.2">
<path d="M159.552 118.104L129.008 23.099C128.138 20.3933 125.24 18.9055 122.534 19.7761L31.3793 49.0819C28.6735 49.9525 27.1858 52.8504 28.0564 55.5562L58.6006 150.561C59.4712 153.267 62.3691 154.755 65.0749 153.884L156.225 124.578C158.931 123.708 160.419 120.81 159.548 118.104H159.552Z" fill="#3A7EC1"/>
</g>
<path d="M119.18 17.7612L28.025 47.0629C25.3193 47.9326 23.831 50.8311 24.7008 53.5367L55.2408 148.544C56.1106 151.25 59.009 152.738 61.7146 151.868L152.87 122.566C155.575 121.697 157.063 118.798 156.194 116.093L125.654 21.0854C124.784 18.3797 121.886 16.8914 119.18 17.7612Z" fill="white"/>
<path d="M49.736 60.5803L37.9769 64.361C36.5791 64.8106 35.079 64.0422 34.6294 62.6444C34.1798 61.2465 34.9482 59.7465 36.3461 59.2969L48.1052 55.5161C49.503 55.0665 51.0031 55.8349 51.4527 57.2328C51.9023 58.6306 51.1339 60.1307 49.736 60.5803Z" fill="#E4ECF9"/>
<path d="M53.6345 72.6984L41.8753 76.4792C40.4775 76.9288 38.9775 76.1604 38.5279 74.7625C38.0783 73.3647 38.8467 71.8646 40.2445 71.415L52.0036 67.6343C53.4015 67.1847 54.9015 67.9531 55.3511 69.351C55.8007 70.7488 55.0323 72.2488 53.6345 72.6984Z" fill="#E4ECF9"/>
<path d="M57.53 84.8176L45.7708 88.5983C44.373 89.0479 42.873 88.2795 42.4234 86.8817C41.9738 85.4838 42.7422 83.9838 44.14 83.5342L55.8991 79.7534C57.297 79.3038 58.797 80.0722 59.2466 81.4701C59.6962 82.868 58.9278 84.368 57.53 84.8176Z" fill="#E4ECF9"/>
<path d="M61.4255 96.9367L49.6664 100.717C48.2685 101.167 46.7685 100.399 46.3189 99.0008C45.8693 97.603 46.6377 96.1029 48.0355 95.6533L59.7946 91.8726C61.1925 91.423 62.6925 92.1914 63.1421 93.5892C63.5917 94.9871 62.8233 96.4871 61.4255 96.9367Z" fill="#E4ECF9"/>
<path d="M65.3249 109.055L53.5658 112.836C52.1679 113.285 50.6679 112.517 50.2183 111.119C49.7687 109.721 50.5371 108.221 51.9349 107.771L63.6941 103.991C65.0919 103.541 66.5919 104.31 67.0415 105.707C67.4911 107.105 66.7227 108.605 65.3249 109.055Z" fill="#E4ECF9"/>
<path d="M69.2194 121.174L57.4603 124.955C56.0625 125.404 54.5624 124.636 54.1128 123.238C53.6632 121.84 54.4316 120.34 55.8295 119.891L67.5886 116.11C68.9864 115.66 70.4865 116.429 70.9361 117.827C71.3857 119.224 70.6173 120.724 69.2194 121.174Z" fill="#E4ECF9"/>
<path d="M73.1149 133.292L61.3558 137.073C59.958 137.523 58.4579 136.754 58.0083 135.356C57.5587 133.958 58.3271 132.458 59.725 132.009L71.4841 128.228C72.8819 127.778 74.382 128.547 74.8316 129.945C75.2812 131.343 74.5128 132.843 73.1149 133.292Z" fill="#E4ECF9"/>
<path d="M93.1955 132.426C92.6968 132.586 92.1614 132.312 92.002 131.813L64.3188 45.7145C64.1594 45.2158 64.4333 44.6804 64.9319 44.521C65.4306 44.3616 65.966 44.6354 66.1254 45.1341L93.8086 131.233C93.968 131.731 93.6941 132.267 93.1955 132.426Z" fill="#E4ECF9"/>
<path d="M114.719 125.502C114.22 125.662 113.685 125.388 113.525 124.889L85.8423 38.7906C85.6828 38.292 85.9567 37.7565 86.4553 37.5971C86.954 37.4377 87.4894 37.7116 87.6488 38.2102L115.332 124.309C115.491 124.807 115.218 125.343 114.719 125.502Z" fill="#E4ECF9"/>
<path d="M136.243 118.582C135.745 118.742 135.209 118.468 135.05 117.969L107.367 31.8707C107.207 31.3721 107.481 30.8366 107.98 30.6772C108.478 30.5178 109.014 30.7917 109.173 31.2903L136.856 117.389C137.016 117.888 136.742 118.423 136.243 118.582Z" fill="#E4ECF9"/>
<path d="M73.2745 45.5796L58.7565 50.2464C57.596 50.6195 56.9577 51.8626 57.3307 53.0231L58.6841 57.2334C59.0571 58.3939 60.3003 59.0322 61.4608 58.6592L75.9788 53.9924C77.1393 53.6193 77.7776 52.3762 77.4046 51.2157L76.0512 47.0054C75.6782 45.8449 74.435 45.2066 73.2745 45.5796Z" fill="#52D1BD"/>
<path d="M85.0394 55.1714L66.2995 61.1954C64.9993 61.6133 64.2841 63.0061 64.7021 64.3063L65.8928 68.0107C66.3108 69.3109 67.7036 70.0261 69.0038 69.6081L87.7437 63.5842C89.0439 63.1662 89.7591 61.7734 89.3411 60.4733L88.1503 56.7689C87.7324 55.4687 86.3396 54.7535 85.0394 55.1714Z" fill="#52D1BD"/>
<path d="M89.2045 67.2037L74.9861 71.7742C73.8363 72.1438 73.2039 73.3754 73.5735 74.5251L74.9394 78.7743C75.309 79.9241 76.5406 80.5565 77.6904 80.1869L91.9088 75.6164C93.0585 75.2468 93.6909 74.0152 93.3213 72.8654L91.9555 68.6163C91.5859 67.4665 90.3542 66.8341 89.2045 67.2037Z" fill="#52D1BD"/>
<path d="M101.739 76.5469L81.7035 82.9873C80.3647 83.4177 79.6282 84.852 80.0586 86.1908L81.2043 89.7551C81.6347 91.094 83.0689 91.8305 84.4078 91.4001L104.443 84.9596C105.782 84.5292 106.519 83.095 106.088 81.7561L104.943 78.1918C104.512 76.8529 103.078 76.1165 101.739 76.5469Z" fill="#F9C067"/>
<path d="M114.455 85.8302L89.2406 93.9355C87.7556 94.4128 86.9387 96.0036 87.4161 97.4886L88.3917 100.524C88.8691 102.009 90.4599 102.826 91.9448 102.348L117.16 94.2429C118.645 93.7656 119.462 92.1748 118.984 90.6898L118.009 87.6547C117.531 86.1697 115.94 85.3528 114.455 85.8302Z" fill="#F9C067"/>
<path d="M124.676 95.9127L106.236 101.84C104.947 102.255 104.237 103.636 104.652 104.926L105.855 108.669C106.27 109.958 107.651 110.668 108.94 110.253L127.381 104.325C128.67 103.911 129.379 102.53 128.965 101.24L127.762 97.4969C127.347 96.2075 125.966 95.4982 124.676 95.9127Z" fill="#F9C067"/>
<path d="M140.388 104.237L119.71 110.884C118.352 111.321 117.605 112.776 118.041 114.134L119.165 117.628C119.601 118.987 121.056 119.734 122.414 119.297L143.092 112.65C144.45 112.214 145.198 110.759 144.761 109.4L143.638 105.906C143.201 104.548 141.746 103.801 140.388 104.237Z" fill="#3B82F4"/>
<path d="M131.489 114.622L128.158 112.914L128.984 111.311L130.709 112.198L132.626 108.471L134.228 109.292L131.489 114.622Z" fill="white"/>
<g style="mix-blend-mode:multiply" opacity="0.2">
<path d="M172.824 53.6065C167.204 40.8378 152.67 34.7682 139.75 39.4849C139.194 38.128 138.417 36.1334 138.417 36.1334L142.382 34.4698L140.056 29.5283L123.147 36.1293L126.331 41.5899L131.722 38.8351L133.823 42.5341C123.609 49.5519 119.493 63.0481 124.668 74.8072C130.525 88.1073 146.052 94.1401 159.348 88.2871C172.648 82.43 178.681 66.9024 172.828 53.6065H172.824Z" fill="#3A7EC1"/>
</g>
<path d="M139.275 30.7715L138.765 33.8574L123.09 41.66L123.221 37.8956L130.251 33.8574L139.275 30.7715Z" fill="#E5A755"/>
<path d="M128.612 35.1406V38.9418L129.634 40.6503L130.709 38.8396L128.612 35.1406Z" fill="#2B72D8"/>
<path d="M137.163 36.9878C136.95 36.6404 135.311 32.4346 135.311 32.4346L128.612 35.1404L131.604 40.4129L137.163 37.3475" fill="#3B82F4"/>
<path d="M163.156 81.9046C173.431 71.63 173.431 54.9715 163.156 44.6969C152.882 34.4223 136.223 34.4223 125.949 44.6969C115.674 54.9715 115.674 71.63 125.949 81.9046C136.223 92.1793 152.882 92.1793 163.156 81.9046Z" fill="#2B72D8"/>
<path d="M164.243 79.1127C174.518 68.838 174.518 52.1795 164.243 41.9049C153.969 31.6303 137.31 31.6303 127.036 41.9049C116.761 52.1796 116.761 68.838 127.036 79.1127C137.31 89.3873 153.969 89.3873 164.243 79.1127Z" fill="#3B82F4"/>
<path d="M145.639 80.9878C156.949 80.9878 166.117 71.8198 166.117 60.5105C166.117 49.2012 156.949 40.0332 145.639 40.0332C134.33 40.0332 125.162 49.2012 125.162 60.5105C125.162 71.8198 134.33 80.9878 145.639 80.9878Z" fill="white"/>
<path d="M139.918 47.5209C139.619 47.6517 139.268 47.5168 139.137 47.2184L137.747 44.063C137.616 43.7647 137.751 43.4132 138.05 43.2824C138.348 43.1516 138.7 43.2864 138.83 43.5848L140.22 46.7402C140.351 47.0386 140.216 47.3901 139.918 47.5209Z" fill="#E4ECF9"/>
<path d="M158.87 65.6519C158.989 65.3495 159.332 65.1983 159.635 65.3168L162.847 66.5675C163.15 66.686 163.301 67.0294 163.183 67.3318C163.064 67.6343 162.721 67.7855 162.418 67.667L159.206 66.4163C158.903 66.2977 158.752 65.9544 158.87 65.6519Z" fill="#E4ECF9"/>
<path d="M151.358 73.504C151.657 73.3732 152.008 73.5081 152.139 73.8065L153.529 76.9619C153.659 77.2603 153.525 77.6118 153.226 77.7426C152.928 77.8733 152.576 77.7385 152.445 77.4401L151.056 74.2847C150.925 73.9863 151.06 73.6348 151.358 73.504Z" fill="#E4ECF9"/>
<path d="M140.494 73.7406C140.796 73.8591 140.948 74.2025 140.829 74.5049L139.578 77.7175C139.46 78.02 139.117 78.1712 138.814 78.0527C138.512 77.9342 138.36 77.5908 138.479 77.2884L139.73 74.0758C139.848 73.7733 140.191 73.6221 140.494 73.7406Z" fill="#E4ECF9"/>
<path d="M151.489 43.2455C151.792 43.364 151.943 43.7074 151.824 44.0098L150.573 47.2224C150.455 47.5249 150.112 47.6761 149.809 47.5576C149.507 47.439 149.355 47.0957 149.474 46.7933L150.725 43.5807C150.843 43.2782 151.187 43.127 151.489 43.2455Z" fill="#E4ECF9"/>
<path d="M132.646 66.2323C132.777 66.5307 132.642 66.8822 132.343 67.013L129.188 68.4026C128.89 68.5334 128.538 68.3985 128.407 68.1002C128.277 67.8018 128.411 67.4503 128.71 67.3195L131.865 65.9298C132.164 65.799 132.515 65.9339 132.646 66.2323Z" fill="#E4ECF9"/>
<path d="M161.355 51.8329C161.486 52.1312 161.351 52.4827 161.052 52.6135L157.897 54.0032C157.599 54.134 157.247 53.9991 157.116 53.7008C156.986 53.4024 157.12 53.0509 157.419 52.9201L160.574 51.5304C160.873 51.3996 161.224 51.5345 161.355 51.8329Z" fill="#E4ECF9"/>
<path d="M132.405 55.3689C132.287 55.6714 131.943 55.8226 131.641 55.7041L128.428 54.4534C128.126 54.3348 127.975 53.9915 128.093 53.6891C128.212 53.3866 128.555 53.2354 128.857 53.3539L132.07 54.6046C132.373 54.7231 132.524 55.0665 132.405 55.3689Z" fill="#E4ECF9"/>
<path d="M135.307 32.4351L128.612 35.1409L123.221 37.8957L120.037 32.4351L136.946 25.8301L139.276 30.7716L135.307 32.4351Z" fill="#F9C067"/>
<path d="M120.037 32.4346L120.372 37.8952L123.09 41.6596L123.221 37.8952L120.037 32.4346Z" fill="#E5A755"/>
<path d="M157.836 62.2067L148.406 59.8606C148.37 59.5459 148.271 59.2353 148.104 58.9451C147.601 58.0786 146.632 57.6494 145.697 57.7884L143.187 53.46L141.679 54.3346L144.188 58.6631C143.6 59.4029 143.493 60.4574 143.996 61.328C144.654 62.4602 146.105 62.8485 147.241 62.1904C147.532 62.0228 147.773 61.8021 147.961 61.5446L157.39 63.8907L157.84 62.2067H157.836Z" fill="#33DA82"/>
<path d="M49.1226 17.0215C52.2219 17.0215 54.7344 14.509 54.7344 11.4097C54.7344 8.31036 52.2219 5.79785 49.1226 5.79785C46.0232 5.79785 43.5107 8.31036 43.5107 11.4097C43.5107 14.509 46.0232 17.0215 49.1226 17.0215Z" fill="#3A7EC1"/>
<path d="M183.259 118.264C185.27 118.264 186.901 116.634 186.901 114.622C186.901 112.611 185.27 110.98 183.259 110.98C181.248 110.98 179.617 112.611 179.617 114.622C179.617 116.634 181.248 118.264 183.259 118.264Z" fill="#3A7EC1"/>
</g>
<defs>
<clipPath id="clip0_14105_446331">
<rect width="186.801" height="164.922" fill="white" transform="translate(0.0996094 0.132812)"/>
</clipPath>
</defs>
</svg>
