<svg width="18" height="18" viewBox="3.55 0 18.9 16.2" fill="none" xmlns="http://www.w3.org/2000/svg">
    <!--    <path fill-rule="evenodd" clip-rule="evenodd"-->
    <!--        d="M5.98125 1.75L8.11875 3.88125L8.48125 4.25H16.5V14.25H1.5V1.75H5.98125ZM5.98125 0.5H1.5C0.809644 0.5 0.25 1.05964 0.25 1.75V14.25C0.25 14.9404 0.809644 15.5 1.5 15.5H16.5C17.1904 15.5 17.75 14.9404 17.75 14.25V4.25C17.75 3.55964 17.1904 3 16.5 3H9L6.86875 0.86875C6.63388 0.632476 6.3144 0.499736 5.98125 0.5Z"-->
    <!--        fill="#000000" />-->
    <path d="M21.1,15.6H4.4c-0.3,0-0.5-0.3-0.5-0.6V4.2c0-0.3,0.2-0.6,0.5-0.6h6.5l2.5,3h7.7c0.3,0,0.5,0.3,0.5,0.6V15  C21.6,15.4,21.4,15.6,21.1,15.6z"
        fill="none" stroke="#000000" stroke-width="0.7" stroke-miterlimit="6" />
</svg>