<svg width="48" height="48" viewBox="0 0 48 48" fill="none" xmlns="http://www.w3.org/2000/svg">
<g clip-path="url(#clip0_1051_50524)">
<path d="M41.0412 0.00254059H11.2034C8.08749 0.00254059 5.55249 2.53754 5.55249 5.65351V42.3516C5.55249 43.1282 6.18212 43.7578 6.95874 43.7578C7.03815 43.7578 7.1154 43.7497 7.19124 43.737C7.04124 43.3027 6.95874 42.8369 6.95874 42.3516C6.95874 40.0073 8.85915 38.1068 11.2035 38.1068H42.4475V1.40879C42.4474 0.632164 41.8179 0.00254059 41.0412 0.00254059Z" fill="#12945E"/>
<path d="M41.0413 -0.00266266H28.0338V38.1016H42.4476V1.40359C42.4475 0.626961 41.818 -0.00266266 41.0413 -0.00266266Z" fill="#16B975"/>
<path d="M10.8866 0.0119629V39.5312C10.9907 39.5196 11.0962 39.5132 11.2034 39.5132H13.6991V0.00258636H11.2034C11.0971 0.00258636 10.9915 0.00614929 10.8866 0.0119629Z" fill="#0D6F46"/>
<path d="M41.0414 38.1043H11.2035C8.85915 38.1043 6.95874 40.0047 6.95874 42.349C6.95874 44.6933 8.85915 46.5938 11.2035 46.5938H41.0414C39.0571 44.6095 39.3809 40.4134 41.0414 38.1043Z" fill="#EDFAF4"/>
<path d="M12.2929 38.1043H11.2035C8.85915 38.1043 6.95874 40.0047 6.95874 42.349C6.95874 44.6933 8.85915 46.5938 11.2035 46.5938H12.2929V38.1043Z" fill="#D0F1E3"/>
<path d="M28.0338 38.1043V46.5938H41.0413C39.0572 44.6095 39.3809 40.4134 41.0413 38.1043H28.0338Z" fill="#D0F1E3"/>
<path d="M41.0414 48H11.2035C8.08749 48 5.55249 45.4649 5.55249 42.349C5.55249 39.2331 8.08749 36.6981 11.2035 36.6981H41.0414C41.8181 36.6981 42.4477 37.3277 42.4477 38.1043C42.4477 38.8809 41.8181 39.5106 41.0414 39.5106H11.2035C9.6383 39.5106 8.36499 40.7839 8.36499 42.349C8.36499 43.9141 9.6383 45.1875 11.2035 45.1875H41.0414C41.8181 45.1875 42.4477 45.8171 42.4477 46.5938C42.4477 47.3704 41.8181 48 41.0414 48Z" fill="#0D6F46"/>
<path d="M42.4476 46.5938C42.4476 45.8171 41.818 45.1875 41.0413 45.1875H28.0338V48H41.0414C41.8181 48 42.4476 47.3704 42.4476 46.5938Z" fill="#12945E"/>
<path d="M41.0413 36.6953H28.0338V39.5078H41.0414C41.8181 39.5078 42.4477 38.8782 42.4477 38.1016C42.4477 37.3249 41.8181 36.6953 41.0413 36.6953Z" fill="#12945E"/>
<path d="M36.2747 6.59375H19.7928C19.0162 6.59375 18.3866 7.22337 18.3866 8C18.3866 8.77663 19.0162 9.40625 19.7928 9.40625H36.2747C37.0513 9.40625 37.6809 8.77663 37.6809 8C37.6809 7.22337 37.0513 6.59375 36.2747 6.59375Z" fill="#FFE645"/>
<path d="M36.2747 9.40625H28.0338V6.59375H36.2747C37.0513 6.59375 37.681 7.22337 37.681 8C37.681 8.77672 37.0513 9.40625 36.2747 9.40625Z" fill="#FFA81C"/>
<path d="M36.2747 12.2578H19.7928C19.0162 12.2578 18.3866 12.8874 18.3866 13.6641C18.3866 14.4407 19.0162 15.0703 19.7928 15.0703H36.2747C37.0513 15.0703 37.6809 14.4407 37.6809 13.6641C37.6809 12.8874 37.0513 12.2578 36.2747 12.2578Z" fill="#FFE645"/>
<path d="M36.2747 15.0703H28.0338V12.2578H36.2747C37.0513 12.2578 37.681 12.8874 37.681 13.6641C37.681 14.4407 37.0513 15.0703 36.2747 15.0703Z" fill="#FFA81C"/>
<path d="M28.0338 31.2984C28.0338 31.2984 33.1901 27.0651 33.1901 21.0981L28.0338 19.4688L22.8776 21.0981C22.8776 27.0859 28.0338 31.2984 28.0338 31.2984Z" fill="#FFFF95"/>
<path d="M28.0338 31.2984C28.0338 31.2984 22.8776 27.0859 22.8776 21.0981L28.0338 19.4688V31.2984Z" fill="#FFCF2C"/>
<path d="M28.0338 32.7047C28.3503 32.7047 28.6668 32.5982 28.9262 32.3853C29.1577 32.1953 34.5963 27.6547 34.5963 21.0982C34.5963 20.4848 34.1987 19.9421 33.6138 19.7573L28.4577 18.1279C28.1819 18.0407 27.886 18.0407 27.6102 18.1279L22.4539 19.7573C21.869 19.942 21.4714 20.4848 21.4714 21.0982C21.4714 27.6774 26.9126 32.1983 27.1442 32.3875C27.403 32.599 27.7183 32.7047 28.0338 32.7047ZM31.7263 22.1104C31.354 25.4078 29.2583 28.0572 28.0321 29.3516C26.806 28.0607 24.7117 25.4174 24.3408 22.1106L28.0339 20.9436L31.7263 22.1104Z" fill="#FFE645"/>
<path d="M22.4538 19.7572L27.6102 18.1278C27.748 18.0842 27.8909 18.0625 28.0338 18.0625V20.9435L24.3408 22.1105C24.7117 25.4174 26.806 28.0607 28.0321 29.3516C28.0327 29.351 28.0333 29.3504 28.0338 29.3498V32.7047C27.7184 32.7047 27.403 32.5989 27.1441 32.3874C26.9125 32.1981 21.4713 27.6772 21.4713 21.098C21.4713 20.4847 21.8689 19.942 22.4538 19.7572Z" fill="#FFA81C"/>
</g>
<defs>
<clipPath id="clip0_1051_50524">
<rect width="48" height="48" fill="white"/>
</clipPath>
</defs>
</svg>
