<svg width="20" height="20" viewBox="0 0 20 20" fill="none" xmlns="http://www.w3.org/2000/svg">
<path fill-rule="evenodd" clip-rule="evenodd" d="M18.3246 11.4246L8.57456 1.67456C6.64984 -0.110368 3.65827 -0.0540195 1.80213 1.80213C-0.0540195 3.65827 -0.110368 6.64984 1.67456 8.57456L3.92456 10.8246L4.98206 9.76706L2.73206 7.51706C1.82912 6.6757 1.45744 5.40856 1.76283 4.21276C2.06821 3.01696 3.00196 2.08321 4.19776 1.77783C5.39356 1.47244 6.6607 1.84412 7.50206 2.74706L17.2521 12.4971C18.155 13.3384 18.5267 14.6056 18.2213 15.8014C17.9159 16.9972 16.9822 17.9309 15.7864 18.2363C14.5906 18.5417 13.3234 18.17 12.4821 17.2671L7.88456 12.6696C7.40761 12.1953 7.21991 11.5026 7.39217 10.8524C7.56442 10.2022 8.07046 9.69333 8.71967 9.51741C9.36887 9.3415 10.0626 9.52529 10.5396 9.99956L12.9171 12.3771L13.9746 11.3196C13.9746 11.3196 11.5596 8.89706 11.5371 8.88956C10.2082 7.66238 8.14731 7.70415 6.86931 8.98417C5.59131 10.2642 5.55278 12.3252 6.78206 13.6521L11.4246 18.3246C13.3493 20.1095 16.3409 20.0531 18.197 18.197C20.0531 16.3409 20.1095 13.3493 18.3246 11.4246Z" fill="#9E9E9E"/>
</svg>
