<svg id="Final_New_Logo" data-name="Final New Logo" xmlns="http://www.w3.org/2000/svg" xmlns:xlink="http://www.w3.org/1999/xlink" width="314.801" height="103.699" viewBox="0 0 314.801 103.699">
  <defs>
    <linearGradient id="linear-gradient" x1="-0.277" y1="-6.164" x2="14.702" y2="-4.129" gradientUnits="objectBoundingBox">
      <stop offset="0" stop-color="#3cf"/>
      <stop offset="1" stop-color="#4481eb"/>
    </linearGradient>
    <linearGradient id="linear-gradient-2" x1="-2.316" y1="-6.448" x2="15.91" y2="-4.397" xlink:href="#linear-gradient"/>
    <linearGradient id="linear-gradient-3" x1="-3.268" y1="-6.747" x2="8.369" y2="-4.712" xlink:href="#linear-gradient"/>
    <linearGradient id="linear-gradient-4" x1="-6.051" y1="-7.087" x2="8.781" y2="-5.022" xlink:href="#linear-gradient"/>
    <linearGradient id="linear-gradient-5" x1="-5.981" y1="-7.094" x2="5.746" y2="-5.089" xlink:href="#linear-gradient"/>
    <linearGradient id="linear-gradient-6" x1="-7.686" y1="-7.527" x2="4.613" y2="-5.477" xlink:href="#linear-gradient"/>
    <linearGradient id="linear-gradient-7" x1="-9.881" y1="-7.724" x2="3.389" y2="-5.674" xlink:href="#linear-gradient"/>
    <linearGradient id="linear-gradient-8" x1="-20.753" y1="-8" x2="3.259" y2="-5.935" xlink:href="#linear-gradient"/>
    <linearGradient id="linear-gradient-9" x1="-13.899" y1="-8.142" x2="0.788" y2="-6.092" xlink:href="#linear-gradient"/>
    <linearGradient id="linear-gradient-10" x1="-19.271" y1="-8.354" x2="-1.045" y2="-6.304" xlink:href="#linear-gradient"/>
    <linearGradient id="linear-gradient-11" x1="-15.226" y1="-8.606" x2="-2.072" y2="-6.54" xlink:href="#linear-gradient"/>
    <linearGradient id="linear-gradient-12" x1="0.001" y1="0.9" x2="0.999" y2="0.9" xlink:href="#linear-gradient"/>
    <linearGradient id="linear-gradient-13" y1="1.884" x2="1" y2="1.884" gradientUnits="objectBoundingBox">
      <stop offset="0" stop-color="#4481eb"/>
      <stop offset="1" stop-color="#036"/>
    </linearGradient>
  </defs>
  <g id="Group_145934">
    <g id="Group_145933">
      <path id="Path_34933" d="M31.2,28.2v6.9H19.4v30H11.8v-30H0V28.2Z" fill="#000a30"/>
      <path id="Path_34934" d="M48.1,36.6a10,10,0,0,1,4.6,1.1,10.138,10.138,0,0,1,3.8,2.9V37.4h7V65.3h-7V60.6A11.755,11.755,0,0,1,53,64.5a9.129,9.129,0,0,1-5.4,1.7,12.026,12.026,0,0,1-6.2-1.7,12.433,12.433,0,0,1-4.6-5,17.387,17.387,0,0,1-1.7-7.9,17.828,17.828,0,0,1,1.7-8,12.9,12.9,0,0,1,4.7-5.1A11.817,11.817,0,0,1,48.1,36.6Zm1.4,6.8a6.712,6.712,0,0,0-6.3,4.1,8.6,8.6,0,0,0-.9,3.9,8.452,8.452,0,0,0,1.9,5.4,6.321,6.321,0,0,0,5,2.2,5.986,5.986,0,0,0,3.5-1,8.059,8.059,0,0,0,2.7-2.8,8.543,8.543,0,0,0,1-4.3v-4a12.129,12.129,0,0,0-3.2-2.5A7.277,7.277,0,0,0,49.5,43.4Z" fill="#000a30"/>
      <path id="Path_34935" d="M81.2,36.6a15.1,15.1,0,0,1,4.8.8,9.777,9.777,0,0,1,3.4,1.8v6.2a19.112,19.112,0,0,0-3.2-1.7,10.636,10.636,0,0,0-4-.9,5.274,5.274,0,0,0-3.2.9,2.6,2.6,0,0,0-1.2,2.1,2.51,2.51,0,0,0,.7,1.7A6.359,6.359,0,0,0,81,48.8l3.2,1.1c4.2,1.3,6.4,3.7,6.4,7.4a7.672,7.672,0,0,1-1.5,4.6,11.2,11.2,0,0,1-3.9,3.2,11.908,11.908,0,0,1-5.4,1.2,17.135,17.135,0,0,1-5.5-.9,16.682,16.682,0,0,1-4-1.9V57.3a18.61,18.61,0,0,0,2.5,1.4,19.166,19.166,0,0,0,3.1,1.1,11.115,11.115,0,0,0,2.9.4,6.6,6.6,0,0,0,3.2-.7,2.476,2.476,0,0,0,1.1-2.1,1.965,1.965,0,0,0-.9-1.7,10.991,10.991,0,0,0-2.8-1.2L76,53.2a7.85,7.85,0,0,1-4.4-3,9.09,9.09,0,0,1,.1-9.2,9.8,9.8,0,0,1,3.8-3.1A10.9,10.9,0,0,1,81.2,36.6Z" fill="#000a30"/>
      <path id="Path_34936" d="M103.6,25.4V49.7L115,37.3h8.8L111.7,49.4l12.7,15.8h-8.9L107.1,54l-3.5,3.5v7.6h-7V25.4Z" fill="#000a30"/>
    </g>
  </g>
  <g id="Group_145936">
    <g id="Group_145935">
      <path id="Path_34937" d="M232.5,28.2a15.238,15.238,0,0,1,5.1.9,14.338,14.338,0,0,1,4.5,2.6,12.978,12.978,0,0,1,3.2,4.1,12.755,12.755,0,0,1-.7,12.1,14.756,14.756,0,0,1-5,4.6,14.58,14.58,0,0,1-6.8,1.7,19.953,19.953,0,0,1-4.5-.5,11.438,11.438,0,0,1-3.3-1.2V65.2h-7.7V28h15.3v.2Zm-7.6,7.1V46.2a28.234,28.234,0,0,0,3,.9,14.211,14.211,0,0,0,3.6.3,7.185,7.185,0,0,0,5.3-1.9,6.021,6.021,0,0,0,2-4.4,4.95,4.95,0,0,0-2.2-4.4,9.08,9.08,0,0,0-5.2-1.5l-6.5.1Z" fill="#000a30"/>
      <path id="Path_34938" d="M264.1,36.6a10,10,0,0,1,4.6,1.1,10.138,10.138,0,0,1,3.8,2.9V37.4h7V65.3h-7V60.6a11.755,11.755,0,0,1-3.5,3.9,9.129,9.129,0,0,1-5.4,1.7,12.027,12.027,0,0,1-6.2-1.7,12.433,12.433,0,0,1-4.6-5,17.387,17.387,0,0,1-1.7-7.9,17.829,17.829,0,0,1,1.7-8,12.9,12.9,0,0,1,4.7-5.1A11.817,11.817,0,0,1,264.1,36.6Zm1.4,6.8a6.712,6.712,0,0,0-6.3,4.1,8.6,8.6,0,0,0-.9,3.9,8.452,8.452,0,0,0,1.9,5.4,6.321,6.321,0,0,0,5,2.2,5.986,5.986,0,0,0,3.5-1,9.056,9.056,0,0,0,2.7-2.8,8.543,8.543,0,0,0,1-4.3v-4a12.129,12.129,0,0,0-3.2-2.5A7.873,7.873,0,0,0,265.5,43.4Z" fill="#000a30"/>
      <path id="Path_34939" d="M314.7,25.4V65.2h-7V60.5a11.755,11.755,0,0,1-3.5,3.9,9.129,9.129,0,0,1-5.4,1.7,12.027,12.027,0,0,1-6.2-1.7,12.433,12.433,0,0,1-4.6-5,17.387,17.387,0,0,1-1.7-7.9,17.828,17.828,0,0,1,1.7-8,12.9,12.9,0,0,1,4.7-5.1,12.588,12.588,0,0,1,6.6-1.8,10,10,0,0,1,4.6,1.1,10.138,10.138,0,0,1,3.8,2.9v-15l7-.2ZM300.6,43.5a6.8,6.8,0,0,0-3.8,1.1,7.061,7.061,0,0,0-2.5,2.9,8.6,8.6,0,0,0-.9,3.9,8.452,8.452,0,0,0,1.9,5.4,6.321,6.321,0,0,0,5,2.2,5.986,5.986,0,0,0,3.5-1,9.056,9.056,0,0,0,2.7-2.8,8.543,8.543,0,0,0,1-4.3v-4a12.129,12.129,0,0,0-3.2-2.5A7.508,7.508,0,0,0,300.6,43.5Z" fill="#000a30"/>
    </g>
  </g>
  <g id="Group_145937">
    <path id="Path_34940" d="M129.1,103.5V90.3h5.5a4.378,4.378,0,0,1,2.1.4,2.85,2.85,0,0,1,1.3,1.1,3.453,3.453,0,0,1,.5,1.8,3.292,3.292,0,0,1-.6,1.9,2.99,2.99,0,0,1-1.7,1.1v-.4a2.628,2.628,0,0,1,1.5.7,3.179,3.179,0,0,1,1.1,1.2,3.064,3.064,0,0,1,.4,1.7,4.671,4.671,0,0,1-.3,1.7,2.73,2.73,0,0,1-.9,1.2,3.694,3.694,0,0,1-1.4.7,5.04,5.04,0,0,1-1.9.3l-5.6-.2Zm2.1-7.8h3.4a2.959,2.959,0,0,0,1-.2,1.344,1.344,0,0,0,.7-.6,1.613,1.613,0,0,0,.3-.9,1.486,1.486,0,0,0-.6-1.3,2.544,2.544,0,0,0-1.6-.5h-3.1l-.1,3.5Zm0,5.8h3.5a5.067,5.067,0,0,0,1.3-.2,1.8,1.8,0,0,0,1.2-1.8,1.689,1.689,0,0,0-.3-1,2.178,2.178,0,0,0-.9-.7,5.067,5.067,0,0,0-1.3-.2h-3.4l-.1,3.9Z" fill="url(#linear-gradient)"/>
    <path id="Path_34941" d="M146.1,103.5V90.3h8.3v2h-6.3v9.3h6.3v2l-8.3-.1Zm.9-5.8v-2h6.4v2Z" fill="url(#linear-gradient-2)"/>
    <path id="Path_34942" d="M173,103.7a7.512,7.512,0,0,1-2.6-.5,5.957,5.957,0,0,1-2.1-1.4,4.648,4.648,0,0,1-1.3-2.1,7.635,7.635,0,0,1-.5-2.7,5.923,5.923,0,0,1,.5-2.7,7.434,7.434,0,0,1,1.3-2.1,5.957,5.957,0,0,1,2.1-1.4,7.01,7.01,0,0,1,5.2,0,5.106,5.106,0,0,1,2.1,1.5,4.472,4.472,0,0,1,1.3,2.2,7.635,7.635,0,0,1,.5,2.7,5.923,5.923,0,0,1-.5,2.7,9.8,9.8,0,0,1-1.3,2.2,8.008,8.008,0,0,1-2.1,1.5A23.486,23.486,0,0,0,173,103.7Zm0-2a4.844,4.844,0,0,0,1.8-.3,7.1,7.1,0,0,0,1.4-1,4.617,4.617,0,0,0,.9-1.5,4.011,4.011,0,0,0,.3-1.9,5.822,5.822,0,0,0-.3-1.9,3.766,3.766,0,0,0-.9-1.5,3.316,3.316,0,0,0-1.4-1,3.426,3.426,0,0,0-1.8-.3,4.844,4.844,0,0,0-1.8.3,7.1,7.1,0,0,0-1.4,1,3.766,3.766,0,0,0-.9,1.5,6.279,6.279,0,0,0-.3,1.9,5.822,5.822,0,0,0,.3,1.9,3.766,3.766,0,0,0,.9,1.5,7.1,7.1,0,0,0,1.4,1A5.23,5.23,0,0,0,173,101.7Z" fill="url(#linear-gradient-3)"/>
    <path id="Path_34943" d="M186.3,103.5V90.3h5.6a4.99,4.99,0,0,1,2.1.5,4.306,4.306,0,0,1,1.5,1.5,3.936,3.936,0,0,1,.6,2.1,3.606,3.606,0,0,1-.6,2,5.356,5.356,0,0,1-1.5,1.5,3.645,3.645,0,0,1-2.1.5h-3.6v5l-2,.1Zm2-7h3.8a1.929,1.929,0,0,0,1-.3,4.62,4.62,0,0,0,.7-.7,3.545,3.545,0,0,0,.3-1.1,2.068,2.068,0,0,0-1.2-2,2.768,2.768,0,0,0-1.3-.3h-3.2l-.1,4.4Zm5.8,7-3.4-6,2.1-.5,3.7,6.4h-2.4Z" fill="url(#linear-gradient-4)"/>
    <path id="Path_34944" d="M209.2,103.7a8.082,8.082,0,0,1-2.7-.5,4.825,4.825,0,0,1-2.2-1.5,7.123,7.123,0,0,1-1.5-2.2,7.635,7.635,0,0,1-.5-2.7,8.082,8.082,0,0,1,.5-2.7,6.228,6.228,0,0,1,1.5-2.1,5.547,5.547,0,0,1,2.2-1.4,8.082,8.082,0,0,1,2.7-.5,5.822,5.822,0,0,1,1.9.3,6.712,6.712,0,0,1,1.7.8,4.895,4.895,0,0,1,1.3,1.2l-1.3,1.4a9.382,9.382,0,0,0-1.2-.9,3.08,3.08,0,0,0-1.2-.5,5.26,5.26,0,0,0-3.2.1,5.6,5.6,0,0,0-1.5,1,3.072,3.072,0,0,0-1,1.5,4.011,4.011,0,0,0-.3,1.9,4.058,4.058,0,0,0,.4,1.9,4.177,4.177,0,0,0,1.1,1.5,7.165,7.165,0,0,0,1.5,1.1,4.058,4.058,0,0,0,1.9.4,6.753,6.753,0,0,0,1.4-.2,2.281,2.281,0,0,0,1.2-.6,6.469,6.469,0,0,0,.8-.9A2.016,2.016,0,0,0,213,99v-.4l.3.3h-4v-2h5.8c0,.1.1.3.1.4V98a4.709,4.709,0,0,1-.5,2.4,5.863,5.863,0,0,1-1.3,1.9,5.162,5.162,0,0,1-1.9,1.2C210.8,103.5,210,103.7,209.2,103.7Z" fill="url(#linear-gradient-5)"/>
    <path id="Path_34945" d="M220.3,103.5l5.1-13.2h2.1l5.1,13.2h-2.2l-3-8c-.1-.1-.1-.3-.2-.7a7.6,7.6,0,0,0-.4-1.1c-.1-.4-.3-.8-.4-1.1a4.077,4.077,0,0,1-.2-.7h.5a6.89,6.89,0,0,0-.3.8c-.1.3-.2.7-.3,1.1a4.508,4.508,0,0,0-.3,1.1,6.89,6.89,0,0,1-.3.8l-3,7.9-2.2-.1Zm2.3-3.3.7-2h6l.9,2Z" fill="url(#linear-gradient-6)"/>
    <path id="Path_34946" d="M238.9,103.5V90.3h1.9l8.1,10.8-.3.2a3.749,3.749,0,0,1-.1-1.1,4.868,4.868,0,0,1-.1-1.2c0-.4-.1-.9-.1-1.3,0-.5-.1-1-.1-1.5v-6h2.1v13.2h-1.9l-8-10.4.2-.3a14.157,14.157,0,0,1,.1,1.9,6.637,6.637,0,0,1,.1,1.3c0,.4.1.7.1.9v6.5h-2Z" fill="url(#linear-gradient-7)"/>
    <path id="Path_34947" d="M257.5,103.5v-1.9h2.1V92.2h-2.1V90.3h6.3v1.9h-2.1v9.4h2.1v1.9Z" fill="url(#linear-gradient-8)"/>
    <path id="Path_34948" d="M270.4,103.5V102L278,92l.3.3H271v-2h9.5v1.5L273,101.9l-.3-.3h8v2H270.4Z" fill="url(#linear-gradient-9)"/>
    <path id="Path_34949" d="M287.7,103.5V90.3H296v2h-6.3v9.3H296v2l-8.3-.1Zm.9-5.8v-2H295v2Z" fill="url(#linear-gradient-10)"/>
    <path id="Path_34950" d="M303.3,103.5V90.3h5.2a5.753,5.753,0,0,1,2.6.5,6.405,6.405,0,0,1,1.9,1.3,10.707,10.707,0,0,1,1.3,2.1,7.635,7.635,0,0,1,.5,2.7,5.923,5.923,0,0,1-.5,2.7,5.71,5.71,0,0,1-1.3,2.1,4.069,4.069,0,0,1-1.9,1.3,7.082,7.082,0,0,1-2.6.5Zm2.1-1.8-.1-.2h3.1a4.844,4.844,0,0,0,1.8-.3,3.045,3.045,0,0,0,1.3-.9,3.606,3.606,0,0,0,.8-1.5,6.279,6.279,0,0,0,.3-1.9,5.413,5.413,0,0,0-.3-1.9,3.766,3.766,0,0,0-.9-1.5,3.805,3.805,0,0,0-1.3-.9,4.844,4.844,0,0,0-1.8-.3h-3.2l.1-.2.2,9.6Z" fill="url(#linear-gradient-11)"/>
  </g>
  <g id="Group_145939">
    <path id="Path_34951" d="M202.7,48.9a12.3,12.3,0,0,1-.5,2.2,38.543,38.543,0,0,1-8.6,13.3A37.561,37.561,0,0,1,154,73.2c-.1,0-.2-.1-.3-.1h-.1a37.8,37.8,0,0,1-13.4-8.7,37.561,37.561,0,0,1-8.8-39.6.494.494,0,0,0,.1-.3,37.8,37.8,0,0,1,8.7-13.4A37.533,37.533,0,0,1,166.9,0a35.465,35.465,0,0,1,12.9,2.3,5.066,5.066,0,0,1,3,6.6,5.066,5.066,0,0,1-6.6,3A27.356,27.356,0,0,0,141,28.2v.1a27.356,27.356,0,0,0,16.3,35.2h0a27.356,27.356,0,0,0,35.2-16.3,4.953,4.953,0,0,1,4.8-3.4A5.256,5.256,0,0,1,202.7,48.9Z" fill="url(#linear-gradient-12)"/>
    <g id="Group_145938" >
      <path id="Path_34952" d="M166.9,45.9a4.762,4.762,0,0,1-3.4-1.4L151.4,32.3a4.808,4.808,0,1,1,6.8-6.8l9.3,9.3,34.3-24a4.743,4.743,0,0,1,5.4,7.8L169.6,44.9A3.523,3.523,0,0,1,166.9,45.9Z" fill="url(#linear-gradient-13)"/>
    </g>
  </g>
</svg>
