<svg width="13" height="13" viewBox="0 0 13 13" fill="none" xmlns="http://www.w3.org/2000/svg">
<path fill-rule="evenodd" clip-rule="evenodd" d="M6.5 0.867188C3.18629 0.867187 0.5 3.55348 0.5 6.86719C0.5 10.1809 3.18629 12.8672 6.5 12.8672C9.81371 12.8672 12.5 10.1809 12.5 6.86719C12.5 3.55348 9.81371 0.867188 6.5 0.867188ZM11.5 6.36719H7V1.89219C9.37575 2.11876 11.2602 3.99274 11.5 6.36719V6.36719ZM6.21 11.8672C3.58237 11.745 1.49877 9.60772 1.4434 6.97783C1.38804 4.34793 3.37984 2.12488 6 1.89219V6.39219C6 6.94447 6.44772 7.39219 7 7.39219H11.5C11.2236 10.0619 8.88861 12.0371 6.21 11.8672V11.8672Z" fill="#276EF1"/>
</svg>
