<svg width="23" height="23" viewBox="0 0 23 23" fill="none" xmlns="http://www.w3.org/2000/svg">
<path fill-rule="evenodd" clip-rule="evenodd" d="M3.52261 0.851562H20.1201H22.1948C22.6244 0.851562 22.9728 1.19989 22.9728 1.62957C22.9728 2.05926 22.6244 2.40757 22.1948 2.40757H21.917C21.9291 2.49227 21.9354 2.57886 21.9354 2.66691V12.5217C21.9354 14.67 20.1937 16.4117 18.0454 16.4117H16.2439L18.7284 20.9665C18.9342 21.3438 18.7952 21.8163 18.4179 22.0221C18.0407 22.2278 17.5681 22.0888 17.3624 21.7116L14.4715 16.4117H12.5993V19.7831C12.5993 20.2127 12.251 20.5611 11.8213 20.5611C11.3917 20.5611 11.0433 20.2127 11.0433 19.7831V16.4117H9.17116L6.2803 21.7116C6.07454 22.0888 5.60196 22.2278 5.22474 22.0221C4.84752 21.8163 4.70853 21.3438 4.91429 20.9665L7.39873 16.4117H5.59729C3.44889 16.4117 1.70726 14.67 1.70726 12.5217V2.66691C1.70726 2.57886 1.71353 2.49227 1.72564 2.40757H1.44793C1.01825 2.40757 0.669922 2.05926 0.669922 1.62957C0.669922 1.19989 1.01825 0.851562 1.44793 0.851562H3.52261ZM15.6751 7.10295C15.57 6.99788 15.3983 7.00241 15.2989 7.11284L12.0937 10.6741C11.3979 11.4472 10.1961 11.4789 9.46073 10.7434L8.44373 9.72639C8.33589 9.61851 8.15875 9.6266 8.06112 9.74372L6.19497 11.9831C5.91989 12.3132 5.42931 12.3578 5.09922 12.0827C4.76912 11.8077 4.72453 11.3171 4.9996 10.987L6.86576 8.74761C7.54915 7.92755 8.78916 7.8713 9.544 8.62613L10.561 9.64309C10.666 9.74818 10.8377 9.74372 10.9371 9.63324L14.1423 6.07192C14.8381 5.29884 16.0399 5.26724 16.7753 6.00268L18.5955 7.8229C18.8993 8.12674 18.8993 8.61934 18.5955 8.92317C18.2916 9.22701 17.7991 9.22701 17.4953 8.92317L15.6751 7.10295Z" fill="white"/>
</svg>
