<svg width="14" height="18" viewBox="0 0 14 18" fill="none" xmlns="http://www.w3.org/2000/svg">
<path d="M6.9615 13.573C7.64636 12.8881 8.75855 12.8881 9.44341 13.573L9.9 14.0296L11.6444 12.2852C11.9839 11.9398 12.4287 11.7701 12.8794 11.7701C12.8736 10.535 12.2472 9.40527 11.2053 8.73795L10.6902 8.41016C9.68925 9.46965 8.27269 10.137 6.70394 10.137C5.13519 10.137 3.71864 9.46965 2.71767 8.41016L2.20255 8.73795C1.15478 9.41113 0.528442 10.5467 0.528442 11.7877V15.1827C0.528442 16.1485 1.32452 16.9388 2.29619 16.9388H7.83953L6.9615 16.0549C6.27665 15.3701 6.27665 14.2579 6.9615 13.573Z" fill="white"/>
<path d="M6.70454 8.96654C9.05111 8.96654 10.9534 7.08226 10.9534 4.75788C10.9534 2.4335 9.05111 0.549225 6.70454 0.549225C4.35796 0.549225 2.45569 2.4335 2.45569 4.75788C2.45569 7.08226 4.35796 8.96654 6.70454 8.96654Z" fill="white"/>
<path d="M13.2994 13.1168C13.0707 12.8881 12.7003 12.8881 12.4717 13.1168L9.90071 15.6877L8.61653 14.4033C8.38788 14.1746 8.01746 14.1746 7.7888 14.4033C7.56015 14.6316 7.56015 15.0023 7.7888 15.231L9.48685 16.9293C9.5966 17.0391 9.74551 17.1008 9.90071 17.1008C10.0559 17.1008 10.2048 17.0391 10.3146 16.9293L13.2994 13.9445C13.528 13.7159 13.528 13.3455 13.2994 13.1168Z" fill="white"/>
</svg>
