<svg width="20" height="20" viewBox="0 0 20 20" fill="none" xmlns="http://www.w3.org/2000/svg">
<path fill-rule="evenodd" clip-rule="evenodd" d="M12.8687 13.75L9.375 10.2563V4.375H10.625V9.7375L13.75 12.8687L12.8687 13.75ZM10 1.25C7.64498 1.25033 5.3904 2.20402 3.75 3.89375V1.25H2.5V6.25H7.5V5H4.425C6.84437 2.31152 10.8378 1.73265 13.921 3.62352C17.0042 5.5144 18.2987 9.33632 16.9992 12.7116C15.6997 16.0869 12.1764 18.054 8.62124 17.3891C5.06608 16.7242 2.49184 13.6168 2.5 10H1.25C1.25 14.8325 5.16751 18.75 10 18.75C14.8325 18.75 18.75 14.8325 18.75 10C18.75 5.16751 14.8325 1.25 10 1.25Z" fill="#276EF1"/>
</svg>
