<svg width="341" height="133" viewBox="0 0 341 133" fill="none" xmlns="http://www.w3.org/2000/svg">
<g opacity="0.2">
<mask id="mask0_13504_405218" style="mask-type:luminance" maskUnits="userSpaceOnUse" x="0" y="0" width="341" height="133">
<path d="M323.02 0.742188H17.98C8.32606 0.742188 0.5 8.56825 0.5 18.2222V115.262C0.5 124.916 8.32606 132.742 17.98 132.742H323.02C332.674 132.742 340.5 124.916 340.5 115.262V18.2222C340.5 8.56825 332.674 0.742188 323.02 0.742188Z" fill="white"/>
</mask>
<g mask="url(#mask0_13504_405218)">
<path d="M358.67 81.1041C315.44 81.6941 279.39 59.5041 268.91 27.8241C262.68 9.00406 266.99 -8.60594 270.35 -18.2559L344.99 -28.3359L358.67 81.1041Z" fill="#F1AEAE"/>
<path d="M353.26 109.962C312.69 95.0225 286.98 61.3925 288.55 28.0625C289.48 8.2625 299.81 -6.6375 306.4 -14.4375L379.7 2.8925L353.26 109.972V109.962Z" stroke="#DC3535" stroke-miterlimit="10"/>
<path d="M-18.7695 99.4261C-16.4295 98.2461 18.3805 81.4761 52.7505 101.826C86.8005 121.986 89.1105 160.026 89.2305 162.786" stroke="#DC3535" stroke-miterlimit="10"/>
<path d="M148.271 174.144C162.851 174.144 174.671 162.324 174.671 147.744C174.671 133.163 162.851 121.344 148.271 121.344C133.691 121.344 121.871 133.163 121.871 147.744C121.871 162.324 133.691 174.144 148.271 174.144Z" fill="#DC3535"/>
</g>
</g>
</svg>
