<svg width="22" height="20" viewBox="0 0 22 20" fill="none" xmlns="http://www.w3.org/2000/svg">
<path d="M11.8322 12.2041L10.3552 7.16406H11.3562L12.3012 10.6291L13.2462 7.17106L14.2472 7.16406L15.1922 10.6291L16.1372 7.16406H17.1382L15.6612 12.2041H14.7232L13.7467 8.80206L12.7702 12.2041H11.8322Z" fill="#9E9E9E"/>
<path d="M8.0847 12.3095C7.71137 12.3095 7.3742 12.2441 7.0732 12.1135C6.77454 11.9805 6.52837 11.7915 6.3347 11.5465C6.14337 11.2991 6.02204 11.0051 5.9707 10.6645L6.9647 10.5175C7.0347 10.8068 7.17937 11.0296 7.3987 11.186C7.61804 11.3423 7.8677 11.4205 8.1477 11.4205C8.30404 11.4205 8.4557 11.396 8.6027 11.347C8.7497 11.298 8.86987 11.2256 8.9632 11.13C9.05887 11.0343 9.1067 10.9165 9.1067 10.7765C9.1067 10.7251 9.09854 10.6761 9.0822 10.6295C9.0682 10.5805 9.0437 10.535 9.0087 10.493C8.9737 10.451 8.92354 10.4113 8.8582 10.374C8.7952 10.3366 8.7147 10.3028 8.6167 10.2725L7.3077 9.88748C7.2097 9.85948 7.09537 9.81981 6.9647 9.76848C6.83637 9.71715 6.71154 9.64365 6.5902 9.54798C6.46887 9.45231 6.36737 9.32631 6.2857 9.16998C6.20637 9.01131 6.1667 8.81181 6.1667 8.57148C6.1667 8.23315 6.25187 7.95198 6.4222 7.72798C6.59254 7.50398 6.82004 7.33715 7.1047 7.22748C7.38937 7.11781 7.70437 7.06415 8.0497 7.06648C8.39737 7.07115 8.7077 7.13065 8.9807 7.24498C9.2537 7.35931 9.48237 7.52615 9.6667 7.74548C9.85104 7.96248 9.98404 8.22848 10.0657 8.54348L9.0367 8.71848C8.99937 8.55515 8.93054 8.41748 8.8302 8.30548C8.72987 8.19348 8.6097 8.10831 8.4697 8.04998C8.33204 7.99165 8.18737 7.96015 8.0357 7.95548C7.88637 7.95081 7.7452 7.97181 7.6122 8.01848C7.48154 8.06281 7.3742 8.12815 7.2902 8.21448C7.20854 8.30081 7.1677 8.40348 7.1677 8.52248C7.1677 8.63215 7.20154 8.72198 7.2692 8.79198C7.33687 8.85965 7.42204 8.91448 7.5247 8.95648C7.62737 8.99848 7.73237 9.03348 7.8397 9.06148L8.7147 9.29948C8.84537 9.33448 8.99004 9.38115 9.1487 9.43948C9.30737 9.49548 9.45904 9.57481 9.6037 9.67748C9.7507 9.77781 9.87087 9.91081 9.9642 10.0765C10.0599 10.2421 10.1077 10.4521 10.1077 10.7065C10.1077 10.9771 10.0505 11.214 9.9362 11.417C9.8242 11.6176 9.67254 11.7845 9.4812 11.9175C9.28987 12.0481 9.07287 12.1461 8.8302 12.2115C8.58987 12.2768 8.34137 12.3095 8.0847 12.3095Z" fill="#9E9E9E"/>
<path fill-rule="evenodd" clip-rule="evenodd" d="M19.3157 3.5791H2.70942L4.94692 1.33535L4.06567 0.454102L0.315674 4.2041L4.06567 7.9541L4.94692 7.07285L2.70942 4.8291H19.3157V9.2041H20.5657V4.8291C20.5657 4.13875 20.006 3.5791 19.3157 3.5791Z" fill="#9E9E9E"/>
<path fill-rule="evenodd" clip-rule="evenodd" d="M17.1844 12.5854L19.4219 14.8291H2.81567V10.4541H1.56567V14.8291C1.56567 15.5195 2.12532 16.0791 2.81567 16.0791H19.4219L17.1844 18.3229L18.0657 19.2041L21.8157 15.4541L18.0657 11.7041L17.1844 12.5854Z" fill="#9E9E9E"/>
</svg>
