<svg width="23" height="20" viewBox="0 0 23 20" fill="none" xmlns="http://www.w3.org/2000/svg">
<path d="M14.575 12.3096C14.071 12.3096 13.6358 12.1999 13.2695 11.9806C12.9055 11.7612 12.6243 11.4544 12.426 11.0601C12.23 10.6657 12.132 10.2072 12.132 9.68457C12.132 9.1619 12.23 8.7034 12.426 8.30907C12.6243 7.91474 12.9055 7.6079 13.2695 7.38857C13.6358 7.16924 14.071 7.05957 14.575 7.05957C15.1536 7.05957 15.639 7.20307 16.031 7.49007C16.4253 7.77707 16.703 8.16557 16.864 8.65557L15.905 8.92157C15.8116 8.6159 15.6541 8.37907 15.4325 8.21107C15.2108 8.04074 14.925 7.95557 14.575 7.95557C14.2553 7.95557 13.9881 8.02674 13.7735 8.16907C13.5611 8.3114 13.4013 8.51207 13.294 8.77107C13.1866 9.03007 13.133 9.33457 13.133 9.68457C13.133 10.0346 13.1866 10.3391 13.294 10.5981C13.4013 10.8571 13.5611 11.0577 13.7735 11.2001C13.9881 11.3424 14.2553 11.4136 14.575 11.4136C14.925 11.4136 15.2108 11.3284 15.4325 11.1581C15.6541 10.9877 15.8116 10.7509 15.905 10.4476L16.864 10.7136C16.703 11.2036 16.4253 11.5921 16.031 11.8791C15.639 12.1661 15.1536 12.3096 14.575 12.3096Z" fill="#9E9E9E"/>
<path d="M9.5847 12.3095C9.21137 12.3095 8.8742 12.2441 8.5732 12.1135C8.27454 11.9805 8.02837 11.7915 7.8347 11.5465C7.64337 11.2991 7.52204 11.0051 7.4707 10.6645L8.4647 10.5175C8.5347 10.8068 8.67937 11.0296 8.8987 11.186C9.11804 11.3423 9.3677 11.4205 9.6477 11.4205C9.80404 11.4205 9.9557 11.396 10.1027 11.347C10.2497 11.298 10.3699 11.2256 10.4632 11.13C10.5589 11.0343 10.6067 10.9165 10.6067 10.7765C10.6067 10.7251 10.5985 10.6761 10.5822 10.6295C10.5682 10.5805 10.5437 10.535 10.5087 10.493C10.4737 10.451 10.4235 10.4113 10.3582 10.374C10.2952 10.3366 10.2147 10.3028 10.1167 10.2725L8.8077 9.88748C8.7097 9.85948 8.59537 9.81981 8.4647 9.76848C8.33637 9.71715 8.21154 9.64365 8.0902 9.54798C7.96887 9.45231 7.86737 9.32631 7.7857 9.16998C7.70637 9.01131 7.6667 8.81181 7.6667 8.57148C7.6667 8.23315 7.75187 7.95198 7.9222 7.72798C8.09254 7.50398 8.32004 7.33715 8.6047 7.22748C8.88937 7.11781 9.20437 7.06415 9.5497 7.06648C9.89737 7.07115 10.2077 7.13065 10.4807 7.24498C10.7537 7.35931 10.9824 7.52615 11.1667 7.74548C11.351 7.96248 11.484 8.22848 11.5657 8.54348L10.5367 8.71848C10.4994 8.55515 10.4305 8.41748 10.3302 8.30548C10.2299 8.19348 10.1097 8.10831 9.9697 8.04998C9.83204 7.99165 9.68737 7.96015 9.5357 7.95548C9.38637 7.95081 9.2452 7.97181 9.1122 8.01848C8.98154 8.06281 8.8742 8.12815 8.7902 8.21448C8.70854 8.30081 8.6677 8.40348 8.6677 8.52248C8.6677 8.63215 8.70154 8.72198 8.7692 8.79198C8.83687 8.85965 8.92204 8.91448 9.0247 8.95648C9.12737 8.99848 9.23237 9.03348 9.3397 9.06148L10.2147 9.29948C10.3454 9.33448 10.49 9.38115 10.6487 9.43948C10.8074 9.49548 10.959 9.57481 11.1037 9.67748C11.2507 9.77781 11.3709 9.91081 11.4642 10.0765C11.5599 10.2421 11.6077 10.4521 11.6077 10.7065C11.6077 10.9771 11.5505 11.214 11.4362 11.417C11.3242 11.6176 11.1725 11.7845 10.9812 11.9175C10.7899 12.0481 10.5729 12.1461 10.3302 12.2115C10.0899 12.2768 9.84137 12.3095 9.5847 12.3095Z" fill="#9E9E9E"/>
<path fill-rule="evenodd" clip-rule="evenodd" d="M19.8157 3.5791H3.20942L5.44692 1.33535L4.56567 0.454102L0.815674 4.2041L4.56567 7.9541L5.44692 7.07285L3.20942 4.8291H19.8157V9.2041H21.0657V4.8291C21.0657 4.13875 20.506 3.5791 19.8157 3.5791Z" fill="#9E9E9E"/>
<path fill-rule="evenodd" clip-rule="evenodd" d="M17.6844 12.5854L19.9219 14.8291H3.31567V10.4541H2.06567V14.8291C2.06567 15.5195 2.62532 16.0791 3.31567 16.0791H19.9219L17.6844 18.3229L18.5657 19.2041L22.3157 15.4541L18.5657 11.7041L17.6844 12.5854Z" fill="#9E9E9E"/>
</svg>
