<svg width="22" height="20" viewBox="0 0 22 20" fill="none" xmlns="http://www.w3.org/2000/svg">
<path d="M15.353 12.3096L13.883 10.8466L14.471 10.2586L15.934 11.7216L15.353 12.3096ZM13.575 12.3096C13.071 12.3096 12.6358 12.1999 12.2695 11.9806C11.9055 11.7612 11.6243 11.4544 11.426 11.0601C11.23 10.6657 11.132 10.2072 11.132 9.68457C11.132 9.1619 11.23 8.7034 11.426 8.30907C11.6243 7.91474 11.9055 7.6079 12.2695 7.38857C12.6358 7.16924 13.071 7.05957 13.575 7.05957C14.079 7.05957 14.513 7.16924 14.877 7.38857C15.2433 7.6079 15.5245 7.91474 15.7205 8.30907C15.9188 8.7034 16.018 9.1619 16.018 9.68457C16.018 10.2072 15.9188 10.6657 15.7205 11.0601C15.5245 11.4544 15.2433 11.7612 14.877 11.9806C14.513 12.1999 14.079 12.3096 13.575 12.3096ZM13.575 11.4136C13.8946 11.4182 14.1606 11.3494 14.373 11.2071C14.5853 11.0647 14.744 10.8629 14.849 10.6016C14.9563 10.3402 15.01 10.0346 15.01 9.68457C15.01 9.33457 14.9563 9.03124 14.849 8.77457C14.744 8.5179 14.5853 8.3184 14.373 8.17607C14.1606 8.03374 13.8946 7.96024 13.575 7.95557C13.2553 7.9509 12.9893 8.01974 12.777 8.16207C12.5646 8.3044 12.4048 8.50624 12.2975 8.76757C12.1925 9.0289 12.14 9.33457 12.14 9.68457C12.14 10.0346 12.1925 10.3379 12.2975 10.5946C12.4048 10.8512 12.5646 11.0507 12.777 11.1931C12.9893 11.3354 13.2553 11.4089 13.575 11.4136Z" fill="#9E9E9E"/>
<path d="M8.5847 12.3095C8.21137 12.3095 7.8742 12.2441 7.5732 12.1135C7.27454 11.9805 7.02837 11.7915 6.8347 11.5465C6.64337 11.2991 6.52204 11.0051 6.4707 10.6645L7.4647 10.5175C7.5347 10.8068 7.67937 11.0296 7.8987 11.186C8.11804 11.3423 8.3677 11.4205 8.6477 11.4205C8.80404 11.4205 8.9557 11.396 9.1027 11.347C9.2497 11.298 9.36987 11.2256 9.4632 11.13C9.55887 11.0343 9.6067 10.9165 9.6067 10.7765C9.6067 10.7251 9.59854 10.6761 9.5822 10.6295C9.5682 10.5805 9.5437 10.535 9.5087 10.493C9.4737 10.451 9.42354 10.4113 9.3582 10.374C9.2952 10.3366 9.2147 10.3028 9.1167 10.2725L7.8077 9.88748C7.7097 9.85948 7.59537 9.81981 7.4647 9.76848C7.33637 9.71715 7.21154 9.64365 7.0902 9.54798C6.96887 9.45231 6.86737 9.32631 6.7857 9.16998C6.70637 9.01131 6.6667 8.81181 6.6667 8.57148C6.6667 8.23315 6.75187 7.95198 6.9222 7.72798C7.09254 7.50398 7.32004 7.33715 7.6047 7.22748C7.88937 7.11781 8.20437 7.06415 8.5497 7.06648C8.89737 7.07115 9.2077 7.13065 9.4807 7.24498C9.7537 7.35931 9.98237 7.52615 10.1667 7.74548C10.351 7.96248 10.484 8.22848 10.5657 8.54348L9.5367 8.71848C9.49937 8.55515 9.43054 8.41748 9.3302 8.30548C9.22987 8.19348 9.1097 8.10831 8.9697 8.04998C8.83204 7.99165 8.68737 7.96015 8.5357 7.95548C8.38637 7.95081 8.2452 7.97181 8.1122 8.01848C7.98154 8.06281 7.8742 8.12815 7.7902 8.21448C7.70854 8.30081 7.6677 8.40348 7.6677 8.52248C7.6677 8.63215 7.70154 8.72198 7.7692 8.79198C7.83687 8.85965 7.92204 8.91448 8.0247 8.95648C8.12737 8.99848 8.23237 9.03348 8.3397 9.06148L9.2147 9.29948C9.34537 9.33448 9.49004 9.38115 9.6487 9.43948C9.80737 9.49548 9.95904 9.57481 10.1037 9.67748C10.2507 9.77781 10.3709 9.91081 10.4642 10.0765C10.5599 10.2421 10.6077 10.4521 10.6077 10.7065C10.6077 10.9771 10.5505 11.214 10.4362 11.417C10.3242 11.6176 10.1725 11.7845 9.9812 11.9175C9.78987 12.0481 9.57287 12.1461 9.3302 12.2115C9.08987 12.2768 8.84137 12.3095 8.5847 12.3095Z" fill="#9E9E9E"/>
<path fill-rule="evenodd" clip-rule="evenodd" d="M19.3157 3.5791H2.70942L4.94692 1.33535L4.06567 0.454102L0.315674 4.2041L4.06567 7.9541L4.94692 7.07285L2.70942 4.8291H19.3157V9.2041H20.5657V4.8291C20.5657 4.13875 20.006 3.5791 19.3157 3.5791Z" fill="#9E9E9E"/>
<path fill-rule="evenodd" clip-rule="evenodd" d="M17.1844 12.5854L19.4219 14.8291H2.81567V10.4541H1.56567V14.8291C1.56567 15.5195 2.12532 16.0791 2.81567 16.0791H19.4219L17.1844 18.3229L18.0657 19.2041L21.8157 15.4541L18.0657 11.7041L17.1844 12.5854Z" fill="#9E9E9E"/>
</svg>
