<svg width="23" height="20" viewBox="0 0 23 20" fill="none" xmlns="http://www.w3.org/2000/svg">
<path d="M11.912 12.2041V7.16406H12.766L14.432 10.5101L16.098 7.16406H16.952V12.2041H16.063V9.19406L14.6 12.2041H14.264L12.801 9.19406V12.2041H11.912Z" fill="#9E9E9E"/>
<path d="M9.0847 12.3095C8.71137 12.3095 8.3742 12.2441 8.0732 12.1135C7.77454 11.9805 7.52837 11.7915 7.3347 11.5465C7.14337 11.2991 7.02204 11.0051 6.9707 10.6645L7.9647 10.5175C8.0347 10.8068 8.17937 11.0296 8.3987 11.186C8.61804 11.3423 8.8677 11.4205 9.1477 11.4205C9.30404 11.4205 9.4557 11.396 9.6027 11.347C9.7497 11.298 9.86987 11.2256 9.9632 11.13C10.0589 11.0343 10.1067 10.9165 10.1067 10.7765C10.1067 10.7251 10.0985 10.6761 10.0822 10.6295C10.0682 10.5805 10.0437 10.535 10.0087 10.493C9.9737 10.451 9.92354 10.4113 9.8582 10.374C9.7952 10.3366 9.7147 10.3028 9.6167 10.2725L8.3077 9.88748C8.2097 9.85948 8.09537 9.81981 7.9647 9.76848C7.83637 9.71715 7.71154 9.64365 7.5902 9.54798C7.46887 9.45231 7.36737 9.32631 7.2857 9.16998C7.20637 9.01131 7.1667 8.81181 7.1667 8.57148C7.1667 8.23315 7.25187 7.95198 7.4222 7.72798C7.59254 7.50398 7.82004 7.33715 8.1047 7.22748C8.38937 7.11781 8.70437 7.06415 9.0497 7.06648C9.39737 7.07115 9.7077 7.13065 9.9807 7.24498C10.2537 7.35931 10.4824 7.52615 10.6667 7.74548C10.851 7.96248 10.984 8.22848 11.0657 8.54348L10.0367 8.71848C9.99937 8.55515 9.93054 8.41748 9.8302 8.30548C9.72987 8.19348 9.6097 8.10831 9.4697 8.04998C9.33204 7.99165 9.18737 7.96015 9.0357 7.95548C8.88637 7.95081 8.7452 7.97181 8.6122 8.01848C8.48154 8.06281 8.3742 8.12815 8.2902 8.21448C8.20854 8.30081 8.1677 8.40348 8.1677 8.52248C8.1677 8.63215 8.20154 8.72198 8.2692 8.79198C8.33687 8.85965 8.42204 8.91448 8.5247 8.95648C8.62737 8.99848 8.73237 9.03348 8.8397 9.06148L9.7147 9.29948C9.84537 9.33448 9.99004 9.38115 10.1487 9.43948C10.3074 9.49548 10.459 9.57481 10.6037 9.67748C10.7507 9.77781 10.8709 9.91081 10.9642 10.0765C11.0599 10.2421 11.1077 10.4521 11.1077 10.7065C11.1077 10.9771 11.0505 11.214 10.9362 11.417C10.8242 11.6176 10.6725 11.7845 10.4812 11.9175C10.2899 12.0481 10.0729 12.1461 9.8302 12.2115C9.58987 12.2768 9.34137 12.3095 9.0847 12.3095Z" fill="#9E9E9E"/>
<path fill-rule="evenodd" clip-rule="evenodd" d="M19.8157 3.5791H3.20942L5.44692 1.33535L4.56567 0.454102L0.815674 4.2041L4.56567 7.9541L5.44692 7.07285L3.20942 4.8291H19.8157V9.2041H21.0657V4.8291C21.0657 4.13875 20.506 3.5791 19.8157 3.5791Z" fill="#9E9E9E"/>
<path fill-rule="evenodd" clip-rule="evenodd" d="M17.6844 12.5854L19.9219 14.8291H3.31567V10.4541H2.06567V14.8291C2.06567 15.5195 2.62532 16.0791 3.31567 16.0791H19.9219L17.6844 18.3229L18.5657 19.2041L22.3157 15.4541L18.5657 11.7041L17.6844 12.5854Z" fill="#9E9E9E"/>
</svg>
