<svg width="22" height="20" viewBox="0 0 22 20" fill="none" xmlns="http://www.w3.org/2000/svg">
<path d="M13.4011 12.2305C12.8971 12.2305 12.462 12.1208 12.0956 11.9015C11.7316 11.6821 11.4505 11.3753 11.2521 10.981C11.0561 10.5866 10.9581 10.1281 10.9581 9.60547C10.9581 9.0828 11.0561 8.6243 11.2521 8.22997C11.4505 7.83564 11.7316 7.5288 12.0956 7.30947C12.462 7.09014 12.8971 6.98047 13.4011 6.98047C13.9798 6.98047 14.4651 7.12397 14.8571 7.41097C15.2515 7.69797 15.5291 8.08647 15.6901 8.57647L14.7311 8.84247C14.6378 8.5368 14.4803 8.29997 14.2586 8.13197C14.037 7.96164 13.7511 7.87647 13.4011 7.87647C13.0815 7.87647 12.8143 7.94764 12.5996 8.08997C12.3873 8.2323 12.2275 8.43297 12.1201 8.69197C12.0128 8.95097 11.9591 9.25547 11.9591 9.60547C11.9591 9.95547 12.0128 10.26 12.1201 10.519C12.2275 10.778 12.3873 10.9786 12.5996 11.121C12.8143 11.2633 13.0815 11.3345 13.4011 11.3345C13.7511 11.3345 14.037 11.2493 14.2586 11.079C14.4803 10.9086 14.6378 10.6718 14.7311 10.3685L15.6901 10.6345C15.5291 11.1245 15.2515 11.513 14.8571 11.8C14.4651 12.087 13.9798 12.2305 13.4011 12.2305Z" fill="#9E9E9E"/>
<path d="M8.09962 12.1259V7.97494H6.51062V7.08594H10.6406V7.97494H9.05162V12.1259H8.09962Z" fill="#9E9E9E"/>
<path fill-rule="evenodd" clip-rule="evenodd" d="M19.0657 3.5H2.45942L4.69692 1.25625L3.81567 0.375L0.0656738 4.125L3.81567 7.875L4.69692 6.99375L2.45942 4.75H19.0657V9.125H20.3157V4.75C20.3157 4.05964 19.756 3.5 19.0657 3.5Z" fill="#9E9E9E"/>
<path fill-rule="evenodd" clip-rule="evenodd" d="M16.9344 12.5062L19.1719 14.75H2.56567V10.375H1.31567V14.75C1.31567 15.4404 1.87532 16 2.56567 16H19.1719L16.9344 18.2438L17.8157 19.125L21.5657 15.375L17.8157 11.625L16.9344 12.5062Z" fill="#9E9E9E"/>
</svg>
