<svg width="23" height="20" viewBox="0 0 23 20" fill="none" xmlns="http://www.w3.org/2000/svg">
<path d="M13.432 12.125V10.074L11.71 7.08496H12.823L13.915 8.98196L15.007 7.08496H16.12L14.398 10.074V12.125H13.432Z" fill="#9E9E9E"/>
<path d="M8.84962 12.125V7.97396H7.26062V7.08496H11.3906V7.97396H9.80162V12.125H8.84962Z" fill="#9E9E9E"/>
<path fill-rule="evenodd" clip-rule="evenodd" d="M19.8157 3.5H3.20942L5.44692 1.25625L4.56567 0.375L0.815674 4.125L4.56567 7.875L5.44692 6.99375L3.20942 4.75H19.8157V9.125H21.0657V4.75C21.0657 4.05964 20.506 3.5 19.8157 3.5Z" fill="#9E9E9E"/>
<path fill-rule="evenodd" clip-rule="evenodd" d="M17.6844 12.5062L19.9219 14.75H3.31567V10.375H2.06567V14.75C2.06567 15.4404 2.62532 16 3.31567 16H19.9219L17.6844 18.2438L18.5657 19.125L22.3157 15.375L18.5657 11.625L17.6844 12.5062Z" fill="#9E9E9E"/>
</svg>
