<svg width="34" height="34" viewBox="0 0 34 34" fill="none" xmlns="http://www.w3.org/2000/svg">
<path d="M11.8631 11.082C12.8652 11.082 13.6806 10.2666 13.6806 9.26423V5.67188L8.27051 11.082H11.8631Z" fill="white"/>
<path d="M16.9984 15.8203C14.6468 15.8203 12.7334 17.7335 12.7334 20.0853C12.7334 22.4372 14.6468 24.3503 16.9984 24.3503C19.35 24.3503 21.2634 22.4372 21.2634 20.0853C21.2634 17.7335 19.35 15.8203 16.9984 15.8203ZM17.4723 20.0853C17.4723 20.2112 17.4223 20.3315 17.3334 20.4204L15.5772 22.1766C15.4846 22.2692 15.3634 22.3155 15.2421 22.3155C15.1209 22.3155 14.9996 22.2692 14.9071 22.1766C14.722 21.9915 14.722 21.6917 14.9071 21.5065L16.5245 19.8891V17.4789C16.5245 17.217 16.7367 17.005 16.9984 17.005C17.2601 17.005 17.4723 17.217 17.4723 17.4789V20.0853Z" fill="white"/>
<path d="M26.0039 7.26556C26.0039 6.23723 25.1651 5.39844 24.1368 5.39844H14.6286V9.26761C14.6286 10.7925 13.3881 12.0332 11.8632 12.0332H7.99609V27.2258C7.99609 28.2542 8.83012 29.0929 9.85849 29.0929H24.1368C25.1651 29.0929 26.0039 28.2542 26.0039 27.2258V7.26556ZM16.998 25.3021C14.1237 25.3021 11.7852 22.9637 11.7852 20.0893C11.7852 17.215 14.1237 14.8765 16.998 14.8765C19.8724 14.8765 22.2108 17.215 22.2108 20.0893C22.2108 22.9637 19.8724 25.3021 16.998 25.3021Z" fill="white"/>
</svg>
