<svg width="48" height="48" viewBox="0 0 48 48" fill="none" xmlns="http://www.w3.org/2000/svg">
<path d="M1.99138 5H46.0086C46.2716 5 46.5237 5.12527 46.7096 5.34826C46.8956 5.57124 47 5.87368 47 6.18902V44H1V6.18902C1 5.87368 1.10445 5.57124 1.29037 5.34826C1.47629 5.12527 1.72845 5 1.99138 5Z" fill="#F5F5F5"/>
<path d="M2.34145 5H45.6585C45.9173 5 46.1654 5.10279 46.3484 5.28575C46.5313 5.46871 46.6341 5.71686 46.6341 5.97561V9.68293H1.36584V5.97561C1.36584 5.71686 1.46863 5.46871 1.65159 5.28575C1.83456 5.10279 2.08271 5 2.34145 5Z" fill="#9E9E9E"/>
<path d="M38.3854 15H10.6146C9.72287 15 9 15.4579 9 16.0227V31.9773C9 32.5421 9.72287 33 10.6146 33H38.3854C39.2771 33 40 32.5421 40 31.9773V16.0227C40 15.4579 39.2771 15 38.3854 15Z" fill="#DC3535"/>
<path d="M4 40.6667H7V42H10V40.6667H43V38H4V40.6667Z" fill="#212121"/>
<path d="M22 27V20L29 23.5L22 27Z" fill="#FFFDFA"/>
<path d="M3.70728 6.5625H5.26825V8.12348H3.70728V6.5625Z" fill="#F2FAFF"/>
<path d="M6.82922 6.5625H8.3902V8.12348H6.82922V6.5625Z" fill="#F2FAFF"/>
<path d="M9.95117 6.5625H11.5121V8.12348H9.95117V6.5625Z" fill="#F2FAFF"/>
<path d="M39.6097 6.5625H41.1707V8.12348H39.6097V6.5625Z" fill="#F2FAFF"/>
<path d="M42.7317 6.5625H44.2927V8.12348H42.7317V6.5625Z" fill="#F2FAFF"/>
</svg>
