<svg width="23" height="20" viewBox="0 0 23 20" fill="none" xmlns="http://www.w3.org/2000/svg">
<path d="M11.9661 12.125L10.4891 7.08496H11.4901L12.4351 10.55L13.3801 7.09196L14.3811 7.08496L15.3261 10.55L16.2711 7.08496H17.2721L15.7951 12.125H14.8571L13.8806 8.72296L12.9041 12.125H11.9661Z" fill="#9E9E9E"/>
<path d="M7.77064 12.125V7.97396H6.18164V7.08496H10.3116V7.97396H8.72264V12.125H7.77064Z" fill="#9E9E9E"/>
<path fill-rule="evenodd" clip-rule="evenodd" d="M19.7367 3.5H3.13044L5.36794 1.25625L4.48669 0.375L0.736694 4.125L4.48669 7.875L5.36794 6.99375L3.13044 4.75H19.7367V9.125H20.9867V4.75C20.9867 4.05964 20.4271 3.5 19.7367 3.5Z" fill="#9E9E9E"/>
<path fill-rule="evenodd" clip-rule="evenodd" d="M17.6054 12.5062L19.8429 14.75H3.23669V10.375H1.98669V14.75C1.98669 15.4404 2.54634 16 3.23669 16H19.8429L17.6054 18.2438L18.4867 19.125L22.2367 15.375L18.4867 11.625L17.6054 12.5062Z" fill="#9E9E9E"/>
</svg>
