<svg width="26" height="26" viewBox="0 0 26 26" fill="none" xmlns="http://www.w3.org/2000/svg">
<path d="M17.415 19.5156L18.8213 18.1094L13.8525 13.1094V6.82812H11.9775V13.8594L17.415 19.5156ZM12.8213 25.9844C11.113 25.9844 9.49837 25.6562 7.97754 25C6.45671 24.3438 5.12858 23.4479 3.99316 22.3125C2.85775 21.1771 1.96191 19.849 1.30566 18.3281C0.649414 16.8073 0.321289 15.1927 0.321289 13.4844C0.321289 11.776 0.649414 10.1615 1.30566 8.64062C1.96191 7.11979 2.85775 5.79167 3.99316 4.65625C5.12858 3.52083 6.45671 2.625 7.97754 1.96875C9.49837 1.3125 11.113 0.984375 12.8213 0.984375C14.5296 0.984375 16.1442 1.3125 17.665 1.96875C19.1859 2.625 20.514 3.52083 21.6494 4.65625C22.7848 5.79167 23.6807 7.11979 24.3369 8.64062C24.9932 10.1615 25.3213 11.776 25.3213 13.4844C25.3213 15.1927 24.9932 16.8073 24.3369 18.3281C23.6807 19.849 22.7848 21.1771 21.6494 22.3125C20.514 23.4479 19.1859 24.3438 17.665 25C16.1442 25.6562 14.5296 25.9844 12.8213 25.9844Z" fill="white"/>
</svg>
