<svg width="22" height="20" viewBox="0 0 22 20" fill="none" xmlns="http://www.w3.org/2000/svg">
<path d="M15.5541 12.2305L14.0841 10.7675L14.6721 10.1795L16.1351 11.6425L15.5541 12.2305ZM13.7761 12.2305C13.2721 12.2305 12.837 12.1208 12.4706 11.9015C12.1066 11.6821 11.8255 11.3753 11.6271 10.981C11.4311 10.5866 11.3331 10.1281 11.3331 9.60547C11.3331 9.0828 11.4311 8.6243 11.6271 8.22997C11.8255 7.83564 12.1066 7.5288 12.4706 7.30947C12.837 7.09014 13.2721 6.98047 13.7761 6.98047C14.2801 6.98047 14.7141 7.09014 15.0781 7.30947C15.4445 7.5288 15.7256 7.83564 15.9216 8.22997C16.12 8.6243 16.2191 9.0828 16.2191 9.60547C16.2191 10.1281 16.12 10.5866 15.9216 10.981C15.7256 11.3753 15.4445 11.6821 15.0781 11.9015C14.7141 12.1208 14.2801 12.2305 13.7761 12.2305ZM13.7761 11.3345C14.0958 11.3391 14.3618 11.2703 14.5741 11.128C14.7865 10.9856 14.9451 10.7838 15.0501 10.5225C15.1575 10.2611 15.2111 9.95547 15.2111 9.60547C15.2111 9.25547 15.1575 8.95214 15.0501 8.69547C14.9451 8.4388 14.7865 8.2393 14.5741 8.09697C14.3618 7.95464 14.0958 7.88114 13.7761 7.87647C13.4565 7.8718 13.1905 7.94064 12.9781 8.08297C12.7658 8.2253 12.606 8.42714 12.4986 8.68847C12.3936 8.9498 12.3411 9.25547 12.3411 9.60547C12.3411 9.95547 12.3936 10.2588 12.4986 10.5155C12.606 10.7721 12.7658 10.9716 12.9781 11.114C13.1905 11.2563 13.4565 11.3298 13.7761 11.3345Z" fill="#9E9E9E"/>
<path d="M8.47462 12.1259V7.97494H6.88562V7.08594H11.0156V7.97494H9.42662V12.1259H8.47462Z" fill="#9E9E9E"/>
<path fill-rule="evenodd" clip-rule="evenodd" d="M19.4407 3.5H2.83442L5.07192 1.25625L4.19067 0.375L0.440674 4.125L4.19067 7.875L5.07192 6.99375L2.83442 4.75H19.4407V9.125H20.6907V4.75C20.6907 4.05964 20.131 3.5 19.4407 3.5Z" fill="#9E9E9E"/>
<path fill-rule="evenodd" clip-rule="evenodd" d="M17.3094 12.5062L19.5469 14.75H2.94067V10.375H1.69067V14.75C1.69067 15.4404 2.25032 16 2.94067 16H19.5469L17.3094 18.2438L18.1907 19.125L21.9407 15.375L18.1907 11.625L17.3094 12.5062Z" fill="#9E9E9E"/>
</svg>
