<svg width="23" height="20" viewBox="0 0 23 20" fill="none" xmlns="http://www.w3.org/2000/svg">
<path d="M12.113 12.125V7.08496H12.967L14.633 10.431L16.299 7.08496H17.153V12.125H16.264V9.11496L14.801 12.125H14.465L13.002 9.11496V12.125H12.113Z" fill="#9E9E9E"/>
<path d="M8.97462 12.125V7.97396H7.38562V7.08496H11.5156V7.97396H9.92662V12.125H8.97462Z" fill="#9E9E9E"/>
<path fill-rule="evenodd" clip-rule="evenodd" d="M19.9407 3.5H3.33442L5.57192 1.25625L4.69067 0.375L0.940674 4.125L4.69067 7.875L5.57192 6.99375L3.33442 4.75H19.9407V9.125H21.1907V4.75C21.1907 4.05964 20.631 3.5 19.9407 3.5Z" fill="#9E9E9E"/>
<path fill-rule="evenodd" clip-rule="evenodd" d="M17.8094 12.5062L20.0469 14.75H3.44067V10.375H2.19067V14.75C2.19067 15.4404 2.75032 16 3.44067 16H20.0469L17.8094 18.2438L18.6907 19.125L22.4407 15.375L18.6907 11.625L17.8094 12.5062Z" fill="#9E9E9E"/>
</svg>
