<svg width="238" height="166" viewBox="0 0 238 166" fill="none" xmlns="http://www.w3.org/2000/svg">
<g clip-path="url(#clip0_14105_417535)">
<path d="M220.545 104.124C220.545 106.688 220.44 109.224 220.234 111.734C220.194 112.211 220.15 112.689 220.103 113.166C219.702 117.289 219.029 121.337 218.096 125.283C217.987 125.746 217.875 126.205 217.76 126.668C214.754 138.608 209.408 149.621 202.243 159.188H54.8958C43.4047 143.838 36.5977 124.776 36.5977 104.124C36.5977 53.3272 77.7766 12.1483 128.573 12.1483C152.112 12.1483 173.586 20.9917 189.855 35.5391C190.542 36.1504 191.222 36.7797 191.891 37.4163C195.313 40.6607 198.481 44.1691 201.368 47.9018C201.758 48.401 202.138 48.9073 202.514 49.4173C203.288 50.4626 204.044 51.5224 204.775 52.6002C205.155 53.1572 205.523 53.7215 205.889 54.2857C208.102 57.7074 210.088 61.2845 211.835 64.9991C212.182 65.7298 212.515 66.4676 212.841 67.2091C213.007 67.5889 213.17 67.965 213.329 68.3484C213.553 68.8765 213.77 69.4082 213.984 69.9399C215.712 74.2513 217.119 78.7291 218.186 83.337C218.306 83.8434 218.418 84.3498 218.526 84.8634C219.134 87.7135 219.608 90.6107 219.944 93.5513C220.161 95.4321 220.317 97.3274 220.418 99.2408C220.505 100.858 220.548 102.485 220.548 104.124H220.545Z" fill="#ECF3FE"/>
<path d="M220.414 99.2408C220.312 97.3311 220.157 95.4322 219.94 93.5513L219.123 97.5155L210.138 95.6673L208.38 95.3056H208.377L207.1 95.0415L207.715 92.0756L207.863 91.3414L209.577 83.0224L213.719 83.8724L216.837 84.5162L218.518 84.8634C218.41 84.3535 218.298 83.8435 218.178 83.3371L217.817 83.2611L214.695 82.6173L209.863 81.6227L212.337 69.5999L213.976 69.9363C213.762 69.4046 213.542 68.8729 213.321 68.3449L212.626 68.2002L212.833 67.2055C212.507 66.464 212.171 65.7262 211.827 64.9956L211.227 67.9108L199.204 65.4368L201.678 53.4141L205.877 54.2785C205.512 53.7107 205.143 53.1501 204.763 52.5931L201.967 52.018L202.506 49.4101C202.13 48.9002 201.75 48.3974 201.36 47.8946L200.571 51.7286L188.552 49.2546L191.03 37.2283L191.887 37.4055C191.218 36.7689 190.538 36.1396 189.851 35.5283L149.659 27.2563L132.797 109.169L217.759 126.661C217.875 126.202 217.987 125.742 218.095 125.276L214.999 124.639L217.473 112.616L220.103 113.159C220.15 112.681 220.193 112.208 220.233 111.727L217.763 111.217L220.24 99.1938L220.417 99.23L220.414 99.2408ZM206.308 91.8224L206.12 92.7339L205.704 94.7558L203.772 94.3615L202.846 94.1698L193.688 92.2854L195.555 83.2141L195.757 82.2375L196.162 80.2591L198.137 80.6678H198.141L199.132 80.8703L208.185 82.7331L206.311 91.8224H206.308ZM181.344 77.21L179.408 86.6141L179.011 88.5636L178.87 89.2327L176.103 88.6612H176.099L169.766 87.3555L166.85 86.7551L166.988 86.086L167.397 84.1039L169.328 74.736L181.351 77.2064L181.344 77.21ZM169.614 73.3399L172.084 61.3171L184.107 63.7911L181.636 75.8138L169.617 73.3399H169.614ZM180.671 87.5689L180.815 86.8636L182.743 77.503L191.836 79.3729L192.784 79.5719L194.766 79.977L194.357 81.9518L194.155 82.9211L192.288 92.0033L183.253 90.1442L182.262 89.9416L180.269 89.5293L180.674 87.5761L180.671 87.5689ZM194.462 78.4578L192.115 77.9768L183.029 76.1032L185.499 64.0805L197.522 66.5545L195.656 75.6294L195.171 77.9876L195.052 78.5772L194.462 78.4578ZM184.393 62.3986L172.373 59.921L174.847 47.8983L186.87 50.3722L184.396 62.395L184.393 62.3986ZM170.977 59.6352L158.951 57.1613L161.425 45.1385L173.448 47.6125L170.977 59.6352ZM170.688 61.0314L168.214 73.0541L156.191 70.5801L158.665 58.5538L170.688 61.0314ZM167.925 74.4503L165.99 83.8362L165.577 85.84L165.447 86.473L164.818 86.3392L162.604 85.887L153.424 83.9954L155.898 71.9726L167.917 74.4503H167.925ZM162.199 87.2615H162.203L163.136 87.4568L165.158 87.8727L164.763 89.8006L164.489 91.1244L162.68 99.8955L152.629 97.8266L150.661 97.4179L151.07 95.4322L153.135 85.3988L162.195 87.2651L162.199 87.2615ZM165.885 91.4246L166.409 88.8891L166.561 88.1585L169.592 88.7842L175.69 90.0393L178.58 90.6325L178.428 91.3631L177.911 93.8733L176.103 102.655L164.083 100.181L165.885 91.4246ZM179.3 94.1988L179.85 91.5222L179.973 90.9218L180.569 91.0448L183.076 91.5584L191.995 93.3922L189.518 105.415L177.499 102.941L179.3 94.1952V94.1988ZM193.392 93.6852L202.553 95.5696L204.883 96.047L205.414 96.1592L205.306 96.6909L204.81 99.0925L202.94 108.182L190.918 105.708L193.395 93.6852H193.392ZM210.937 69.3178L208.463 81.3405L199.41 79.4778L197.019 78.9859H197.016L196.444 78.8702L196.564 78.2987L197.056 75.9115L198.918 66.8438L210.941 69.3178H210.937ZM200.278 53.1392L197.808 65.1619L185.785 62.6843L188.256 50.6652L200.275 53.1392H200.278ZM189.623 36.9606L187.152 48.9833L175.126 46.5057L177.604 34.483L189.623 36.9606ZM176.204 34.1973L173.733 46.2236L161.711 43.746L164.181 31.7233L176.2 34.1973H176.204ZM150.766 28.9599L162.789 31.4339L160.311 43.4566L148.292 40.9863L150.766 28.9635V28.9599ZM148.003 42.3788L160.022 44.8528L157.551 56.8755L145.525 54.4015L147.999 42.3788H148.003ZM145.239 55.7977L157.266 58.2753L154.792 70.2944L142.772 67.8204L145.243 55.7977H145.239ZM142.479 69.2165L154.499 71.6905L152.025 83.7133L140.002 81.2393L142.476 69.2165H142.479ZM139.72 82.639L151.739 85.1094L149.381 96.5498L149.261 97.1285L149.2 97.1177L137.242 94.6581L139.72 82.6354V82.639ZM134.482 108.081L136.96 96.0543L148.979 98.5319L146.501 110.551L134.482 108.081ZM147.905 110.84L150.368 98.8827L150.379 98.8176L150.954 98.937L162.394 101.295L159.924 113.318L147.901 110.84H147.905ZM161.324 113.6L163.798 101.577L175.82 104.055L173.346 116.078L161.327 113.6H161.324ZM174.739 116.367L177.217 104.344L189.236 106.815L186.762 118.837L174.739 116.367ZM188.158 119.127L190.635 107.104L202.655 109.574L200.177 121.601L188.154 119.127H188.158ZM213.603 124.364L201.584 121.886L204.062 109.864L216.081 112.341L213.607 124.364H213.603ZM216.366 110.942L204.344 108.471L206.21 99.4072L206.579 97.6168L206.821 96.4449L207.4 96.5679L209.856 97.0706L218.84 98.9225L216.366 110.938V110.942Z" fill="white"/>
<path d="M62.4296 149.104C96.5024 149.104 124.124 121.482 124.124 87.4097C124.124 53.3369 96.5024 25.7155 62.4296 25.7155C28.3568 25.7155 0.735352 53.3369 0.735352 87.4097C0.735352 121.482 28.3568 149.104 62.4296 149.104Z" fill="#ECF3FE"/>
<path d="M119.53 165.055C184.959 165.055 237.999 162.82 237.999 160.063C237.999 157.307 184.959 155.072 119.53 155.072C54.1011 155.072 1.06055 157.307 1.06055 160.063C1.06055 162.82 54.1011 165.055 119.53 165.055Z" fill="#D7E4F9"/>
<path d="M175.64 61.9898L162.669 60.0366L138.551 56.4052L65.8111 45.4531C65.3879 45.388 64.9683 45.3663 64.556 45.3807C64.4077 45.3844 64.263 45.3952 64.1147 45.4097C61.0584 45.7063 58.4795 48.0428 58.0021 51.2185L56.5589 60.8034L54.2911 75.8716L45.3392 135.323C44.7749 139.07 47.3538 142.568 51.1046 143.132L160.93 159.669C161.165 159.705 161.4 159.727 161.635 159.738C161.808 159.745 161.986 159.745 162.156 159.741C162.304 159.738 162.449 159.727 162.597 159.712C165.664 159.43 168.261 157.087 168.742 153.904L169.726 147.375L178.298 90.4226L181.401 69.8024C181.966 66.0552 179.387 62.5576 175.64 61.9934V61.9898Z" fill="#3B82F4"/>
<path d="M188.484 70.808L184.281 91.2329L172.67 147.643L171.339 154.11C170.692 157.264 167.972 159.463 164.894 159.582C164.746 159.59 164.601 159.59 164.453 159.586C164.279 159.582 164.105 159.571 163.932 159.553C163.7 159.532 163.465 159.495 163.234 159.445L54.4504 137.052C50.7358 136.289 48.3486 132.658 49.1118 128.947L61.2358 70.0593L64.3066 55.1358L66.2597 45.6413C66.9072 42.4945 69.609 40.299 72.6762 40.1688C72.8245 40.1616 72.9692 40.1616 73.1175 40.1652C73.5298 40.1725 73.9494 40.2195 74.3653 40.3063L146.415 55.1394L170.305 60.0584L183.149 62.7024C186.86 63.4656 189.25 67.097 188.487 70.808H188.484Z" fill="white"/>
<path d="M74.757 104.293L62.4072 101.751L57.5147 125.522L69.8645 128.064L74.757 104.293Z" fill="#E4ECF9"/>
<path d="M89.1116 87.2361L70.6471 83.4347C69.5946 83.2177 68.9182 82.1905 69.1352 81.138C69.3523 80.0854 70.3795 79.4091 71.432 79.6261L89.8965 83.4275C90.949 83.6445 91.6254 84.6717 91.4084 85.7243C91.1914 86.7768 90.1642 87.4532 89.1116 87.2361Z" fill="#3B82F4"/>
<path d="M98.4255 95.87L69.32 89.8803C68.2674 89.6633 67.5911 88.6361 67.8081 87.5835C68.0251 86.531 69.0523 85.8546 70.1049 86.0716L99.2104 92.0613C100.263 92.2783 100.939 93.3055 100.722 94.3581C100.505 95.4106 99.4781 96.087 98.4255 95.87Z" fill="#E4ECF9"/>
<path d="M118.836 91.2437L109.287 137.627L163.274 148.742L172.822 102.355L118.839 91.2437H118.836ZM164.265 101.422L162.865 108.229L156.058 106.829L157.458 100.022L164.265 101.422ZM161.646 114.157L161.302 115.828L159.671 115.492L154.495 114.428L155.895 107.621L162.702 109.025L161.646 114.161V114.157ZM160.8 118.273L160.691 118.798L159.736 123.427L157.436 122.953L155.667 122.588L152.933 122.024L154.333 115.217L159.512 116.284L160.456 116.479L161.14 116.62L160.8 118.273ZM119.639 129.84L120.811 124.158L125.94 125.214L126.468 125.323L127.614 125.558L127.39 126.65L127.234 127.399L126.211 132.365L120.518 131.193L119.404 130.961L119.635 129.836L119.639 129.84ZM150.915 127.8L150.81 128.317L150.575 129.464L149.479 129.24L148.954 129.131L143.767 128.064L144.824 122.928L144.939 122.375L145.167 121.253L146.285 121.485L146.849 121.601L151.974 122.657L150.915 127.804V127.8ZM137.861 126.845L137.3 126.73L136.172 126.494L136.4 125.388L136.483 124.99L137.575 119.687L142.722 120.747L143.257 120.859L144.379 121.087L144.147 122.205L144.035 122.754L142.975 127.898L137.861 126.845ZM130.222 125.272L128.569 124.932L128.645 124.552L128.876 123.431L129.969 118.125L136.776 119.525L135.68 124.849L135.456 125.955L135.376 126.335L133.81 126.013L130.222 125.275V125.272ZM144.885 118.628L144.61 119.962L144.541 120.299L144.209 120.23L142.881 119.959L137.734 118.899L139.134 112.092L145.941 113.491L144.885 118.628ZM136.942 118.732L130.135 117.333L131.535 110.526L138.342 111.925L136.942 118.732ZM147.012 120.805L145.659 120.526L145.337 120.461L145.402 120.139L145.681 118.787L146.737 113.651L153.544 115.05L152.144 121.857L147.019 120.801L147.012 120.805ZM146.896 112.862L148.296 106.055L155.103 107.455L153.703 114.262L146.896 112.862ZM146.104 112.699L139.297 111.296L140.697 104.489L147.504 105.889L146.104 112.696V112.699ZM138.505 111.137L131.698 109.733L133.097 102.926L139.905 104.326L138.505 111.133V111.137ZM130.909 109.571L124.102 108.171L125.502 101.364L132.309 102.764L130.909 109.571ZM130.746 110.363L129.347 117.17L122.54 115.77L123.939 108.963L130.746 110.366V110.363ZM129.18 117.962L128.084 123.275L127.849 124.411L127.777 124.769L127.419 124.693L126.167 124.436L120.97 123.366L122.37 116.559L129.177 117.962H129.18ZM128.027 127.572L128.323 126.136L128.406 125.724L130.124 126.078L133.579 126.791L135.213 127.127L135.13 127.54L134.837 128.961L133.814 133.934L127.007 132.535L128.027 127.576V127.572ZM135.622 129.142L135.933 127.627L136.002 127.287L136.338 127.355L137.756 127.645L142.805 128.683L141.402 135.49L134.595 134.09L135.615 129.138L135.622 129.142ZM143.605 128.849L148.791 129.916L150.108 130.187L150.408 130.252L150.347 130.553L150.065 131.913L149.005 137.06L142.198 135.66L143.601 128.853L143.605 128.849ZM150.86 132.09L151.07 131.077L151.208 130.415L151.537 130.484L152.926 130.77L158.015 131.819L156.615 138.626L149.808 137.226L150.864 132.093L150.86 132.09ZM153.088 129.978L152.094 129.771L151.37 129.623L151.717 127.941L151.801 127.525L152.77 122.812L155.114 123.293L156.879 123.659L159.574 124.212L158.17 131.019L153.081 129.974L153.088 129.978ZM156.673 99.8556L155.269 106.663L148.462 105.263L149.866 98.4558L156.673 99.8556ZM149.074 98.2931L147.67 105.1L140.863 103.7L142.266 96.8933L149.074 98.2967V98.2931ZM141.474 96.7306L140.075 103.538L133.267 102.134L134.671 95.3272L141.478 96.7306H141.474ZM133.875 95.1644L132.475 101.972L125.668 100.568L127.068 93.761L133.875 95.1608V95.1644ZM119.469 92.1985L126.276 93.5983L124.873 100.405L118.065 99.0056L119.465 92.1985H119.469ZM117.903 99.7977L124.71 101.197L123.31 108.005L116.503 106.605L117.903 99.7977ZM116.337 107.397L123.144 108.8L121.744 115.607L114.937 114.208L116.337 107.401V107.397ZM114.774 114.996L121.581 116.396L120.181 123.203L113.374 121.803L114.774 114.996ZM113.211 122.595L120.019 123.995L118.684 130.473L118.615 130.802L118.579 130.795L111.808 129.402L113.211 122.595ZM110.246 137.002L111.649 130.195L118.456 131.598L117.053 138.405L110.246 137.005V137.002ZM117.845 138.564L119.241 131.793L119.248 131.757L119.574 131.822L126.052 133.157L124.652 139.964L117.845 138.561V138.564ZM125.444 140.127L126.844 133.32L133.651 134.723L132.251 141.53L125.444 140.127ZM133.04 141.693L134.443 134.886L141.25 136.285L139.85 143.093L133.043 141.693H133.04ZM140.639 143.255L142.042 136.448L148.849 137.848L147.446 144.655L140.639 143.255ZM148.238 144.818L149.641 138.011L156.448 139.414L155.049 146.221L148.242 144.818H148.238ZM162.644 147.784L155.837 146.384L157.237 139.577L164.044 140.977L162.641 147.784H162.644ZM164.207 140.188L157.4 138.785L158.803 131.978L165.61 133.377L164.207 140.185V140.188ZM165.773 132.589L158.966 131.186L160.369 124.378L167.176 125.778L165.777 132.589H165.773ZM167.339 124.99L160.532 123.586L161.588 118.45L161.809 117.372L161.932 116.779L162.228 116.841L163.646 117.13L168.742 118.183L167.343 124.99H167.339ZM168.905 117.391L163.813 116.342L162.098 115.987L162.445 114.302L163.498 109.18L170.305 110.583L168.905 117.391ZM163.661 108.392L165.06 101.584L171.868 102.984L170.468 109.791L163.661 108.392Z" fill="#C4D7F2"/>
<path d="M162.094 114.2C160.933 113.962 159.798 114.71 159.555 115.871C159.447 116.392 159.541 116.909 159.78 117.34L151.519 127.88C151.472 127.865 151.421 127.851 151.37 127.84C151.074 127.778 150.777 127.782 150.495 127.84L146.628 121.995C146.788 121.763 146.907 121.496 146.968 121.203C147.207 120.042 146.458 118.906 145.297 118.664C144.136 118.425 143.001 119.174 142.758 120.335C142.7 120.62 142.7 120.906 142.755 121.177L136.78 125.124C136.588 125.015 136.374 124.932 136.147 124.885C135.325 124.715 134.523 125.04 134.034 125.652L130.146 124.852C129.94 124.096 129.329 123.481 128.508 123.311C127.347 123.073 126.211 123.821 125.968 124.982C125.921 125.214 125.914 125.442 125.94 125.662L118.456 130.61L119.346 131.96L126.717 127.084C126.978 127.294 127.285 127.449 127.636 127.518C128.576 127.713 129.502 127.258 129.947 126.462L133.571 127.207C133.665 128.115 134.334 128.896 135.275 129.091C136.436 129.33 137.572 128.581 137.814 127.42C137.886 127.069 137.868 126.722 137.774 126.397L143.63 122.53C143.861 122.693 144.129 122.809 144.422 122.87C144.711 122.928 144.997 122.928 145.268 122.874L149.146 128.737C148.994 128.961 148.882 129.222 148.824 129.504C148.585 130.665 149.334 131.8 150.495 132.043C151.656 132.281 152.792 131.533 153.034 130.372C153.146 129.833 153.041 129.305 152.788 128.863L161.028 118.353C161.089 118.371 161.154 118.389 161.219 118.403C162.38 118.642 163.516 117.893 163.758 116.732C163.997 115.571 163.248 114.435 162.087 114.193L162.094 114.2Z" fill="#33DA82"/>
<path d="M102.661 134.477L90.3125 131.934L96.8122 99.9822L109.16 102.525L102.661 134.477Z" fill="#E4ECF9"/>
<path d="M86.3731 131.12L74.0254 128.577L76.908 114.399L89.2556 116.942L86.3731 131.12Z" fill="#33DA82"/>
<g style="mix-blend-mode:multiply" opacity="0.18">
<path d="M211.571 153.014L202.781 90.1477C202.568 88.6105 201.146 87.5399 199.613 87.7569L165.169 92.5711C163.632 92.7845 162.561 94.206 162.778 95.7395L171.567 158.606C171.781 160.143 173.202 161.214 174.736 160.996L209.18 156.182C210.717 155.969 211.788 154.547 211.571 153.014Z" fill="#003889"/>
</g>
<path d="M198.668 84.6661L164.773 92.4664C163.263 92.814 162.32 94.3204 162.668 95.8311L176.904 157.695C177.252 159.206 178.759 160.148 180.269 159.801L214.164 152.001C215.674 151.653 216.617 150.146 216.27 148.636L202.033 86.7719C201.685 85.2612 200.179 84.3184 198.668 84.6661Z" fill="#3B82F4"/>
<path d="M196.304 103.585C193.081 101.161 188.846 100.123 184.614 101.093C180.99 101.925 178.006 104.087 176.063 106.945C173.918 110.095 173.04 114.096 173.958 118.092C175.416 124.444 180.953 128.82 187.171 129.091C188.415 129.146 189.688 129.037 190.961 128.744C198.586 126.994 203.364 119.365 201.613 111.741C200.836 108.348 198.893 105.52 196.3 103.577L196.304 103.585ZM197.342 112.728C198.55 117.995 195.248 123.261 189.981 124.473C189.099 124.675 188.216 124.751 187.352 124.711C183.062 124.52 179.246 121.499 178.237 117.116C177.604 114.352 178.208 111.593 179.691 109.415C181.033 107.44 183.095 105.947 185.598 105.371C188.52 104.702 191.446 105.419 193.674 107.093C195.461 108.435 196.806 110.388 197.345 112.732L197.342 112.728Z" fill="#F4B545"/>
<path d="M196.306 103.585L193.673 107.089C191.445 105.418 188.519 104.698 185.597 105.368C183.094 105.943 181.032 107.436 179.69 109.411L176.066 106.945C178.009 104.087 180.989 101.924 184.616 101.093C188.848 100.12 193.08 101.161 196.306 103.585Z" fill="white"/>
<path d="M201.617 111.748C203.368 119.373 198.59 127.001 190.965 128.751C189.692 129.044 188.419 129.153 187.175 129.099C187.229 127.692 187.291 126.191 187.352 124.715C188.216 124.755 189.099 124.679 189.982 124.476C195.248 123.268 198.55 117.998 197.342 112.732C196.803 110.388 195.461 108.435 193.674 107.093L196.308 103.588C198.897 105.531 200.84 108.359 201.621 111.752L201.617 111.748Z" fill="#134DA3"/>
<path d="M204.043 134.242L181.593 139.396C180.566 139.631 179.535 138.984 179.296 137.957C179.061 136.929 179.709 135.898 180.736 135.66L203.186 130.506C204.213 130.271 205.244 130.918 205.483 131.945C205.718 132.972 205.071 134.003 204.043 134.242Z" fill="white"/>
<path d="M203.093 141.707L185.702 145.7C184.675 145.935 183.644 145.288 183.406 144.261C183.171 143.234 183.818 142.203 184.845 141.964L202.235 137.971C203.263 137.736 204.294 138.383 204.532 139.411C204.767 140.438 204.12 141.469 203.093 141.707Z" fill="white"/>
<path d="M198.948 88.7118L190.748 90.5997C190.238 90.7155 189.728 90.3972 189.613 89.8872C189.497 89.3773 189.815 88.8673 190.325 88.7516L198.524 86.8636C199.034 86.7479 199.544 87.0661 199.66 87.5761C199.776 88.0861 199.457 88.596 198.948 88.7118Z" fill="white"/>
<g style="mix-blend-mode:multiply" opacity="0.18">
<path d="M166.945 57.3095L166.666 49.3378C166.598 47.4208 164.992 45.9234 163.075 45.9885L44.0916 50.1588C42.1746 50.2276 40.6772 51.8335 40.7423 53.7505L41.0208 61.7222C41.0895 63.6392 42.6954 65.1366 44.6124 65.0715L163.595 60.9048C165.512 60.8361 167.01 59.2301 166.945 57.3132V57.3095Z" fill="#003889"/>
</g>
<path d="M160.963 41.6769L42.0928 48.3228C40.1781 48.4298 38.7128 50.0688 38.8198 51.9835L39.2652 59.95C39.3723 61.8647 41.0112 63.3301 42.9259 63.223L161.796 56.5772C163.71 56.4701 165.176 54.8312 165.069 52.9165L164.623 44.95C164.516 43.0353 162.877 41.5699 160.963 41.6769Z" fill="#F4B545"/>
<path d="M49.4658 60.3559C52.1322 60.3559 54.2938 58.1944 54.2938 55.5279C54.2938 52.8614 52.1322 50.6998 49.4658 50.6998C46.7993 50.6998 44.6377 52.8614 44.6377 55.5279C44.6377 58.1944 46.7993 60.3559 49.4658 60.3559Z" fill="white"/>
<path d="M54.8309 149.976H14.8311V159.195H54.8309V149.976Z" fill="#F4B545"/>
<path d="M20.1982 159.195H24.6143V149.976H20.1982V159.195Z" fill="white"/>
<path d="M33.501 149.976H29.085V159.195H33.501V149.976Z" fill="white"/>
<g style="mix-blend-mode:multiply" opacity="0.2">
<path d="M54.8309 157.857H14.8311V159.195H54.8309V157.857Z" fill="#003889"/>
</g>
<path d="M53.228 140.756H13.2246V149.976H53.228V140.756Z" fill="#F4B545"/>
<path d="M18.5888 149.976H23.0049V140.756H18.5888V149.976Z" fill="white"/>
<path d="M31.8956 140.756H27.4795V149.975H31.8956V140.756Z" fill="white"/>
<g style="mix-blend-mode:multiply" opacity="0.2">
<path d="M53.228 148.637H13.2246V149.976H53.228V148.637Z" fill="#003889"/>
</g>
<path d="M55.3149 131.533H15.3115V140.752H55.3149V131.533Z" fill="#F4B545"/>
<path d="M20.6826 140.752H25.0986V131.533H20.6826V140.752Z" fill="white"/>
<path d="M33.9854 131.533H29.5693V140.752H33.9854V131.533Z" fill="white"/>
<g style="mix-blend-mode:multiply" opacity="0.2">
<path d="M55.3149 139.418H15.3115V140.756H55.3149V139.418Z" fill="#003889"/>
</g>
<g style="mix-blend-mode:multiply" opacity="0.18">
<path d="M76.489 154.218C76.3661 153.976 75.4691 153.716 74.5178 153.419C74.3804 153.376 74.2465 153.336 74.1091 153.292C72.8866 152.898 72.1704 151.9 71.1975 151.014C70.8936 150.739 70.5862 150.236 70.3113 149.69C70.1775 149.426 70.0545 149.151 69.9388 148.883L70.4668 148.663C70.4668 148.663 66.575 120.248 61.1206 119.767C60.1658 119.684 58.9866 119.532 57.6411 119.358H63.1751V119.347L70.7598 107.668L69.4432 106.872L62.2419 117.966H60.2092C60.3502 117.72 60.2634 117.325 59.7968 116.725C57.9413 114.338 55.008 115.546 54.2195 115.828C53.8578 115.958 53.3334 115.528 52.8668 115.021C52.7655 114.909 52.6642 114.797 52.5738 114.685L53.1091 113.973L47.369 110.026C46.8663 109.679 46.6312 109.079 46.7614 108.471C47.2207 106.305 47.4197 101.273 45.7305 97.5733C45.7378 97.4069 45.7414 97.2405 45.7486 97.0741C45.7631 96.7631 45.7486 96.4556 45.7088 96.1518C45.7848 96.1518 47.7235 94.5206 47.7235 94.5206L44.8227 93.2763L45.0578 92.6687L45.2531 92.1659C46.009 92.3613 46.7903 92.2564 47.5245 91.7102C49.9587 89.9017 50.0058 85.7314 49.8719 83.7421C50.1866 83.7493 50.476 83.7168 50.664 83.5287C51.2862 82.8993 49.6224 81.2898 49.6224 81.2898C44.6021 77.1267 37.4622 86.0786 36.1927 88.3392C34.9231 90.5998 32.6589 89.7968 30.373 92.8278C28.8249 94.8787 31.8632 97.3997 34.811 97.3165C31.9247 104.753 30.1343 118.606 32.3334 120.125C31.2121 122.291 29.5773 128.093 33.0206 130.983C33.328 131.24 33.6716 131.475 34.0623 131.681C35.2776 132.325 36.9233 132.701 39.1151 132.669C48.1828 132.531 53.8976 130.654 56.3969 129.605C56.3716 131.084 56.415 132.947 56.5018 134.951C56.802 141.783 57.5833 150.2 57.5833 150.2H58.1873C58.1873 150.554 58.1801 150.891 58.1764 151.176C58.1764 151.278 58.1692 151.375 58.1692 151.459C58.1439 152.16 57.6954 152.858 57.3228 153.383C57.236 153.502 57.1528 153.625 57.0733 153.752C56.9648 153.922 56.8635 154.099 56.7912 154.291C56.4367 155.224 57.6773 155.737 59.1675 156.135C59.2362 156.153 59.2977 156.171 59.3556 156.189C60.6143 156.555 60.2019 156.79 62.0791 157.575C64.0468 158.399 65.0378 157.998 65.2693 157.745C65.2946 157.716 65.3054 157.683 65.2982 157.644C65.262 157.369 64.5097 156.837 63.7212 156.255C63.6055 156.171 63.4934 156.088 63.3812 156.001C62.3685 155.238 62.0176 154.045 61.3919 152.876C61.1966 152.515 61.0664 151.932 60.9832 151.314C60.9326 150.941 60.8964 150.554 60.8747 150.196H61.8549L62.5385 143.32L62.8025 140.691L66.7848 150.196L67.3924 149.943C67.4503 150.117 67.5009 150.279 67.548 150.428C67.5769 150.522 67.6058 150.612 67.6275 150.695C67.8228 151.357 67.6022 152.142 67.4033 152.746C67.3599 152.884 67.3129 153.025 67.2767 153.166C67.2224 153.357 67.1826 153.556 67.1718 153.755C67.1175 154.732 68.4847 154.822 70.0617 154.728C70.1051 154.728 70.1485 154.725 70.1883 154.721C70.1919 154.721 70.1992 154.721 70.2064 154.721C70.2245 154.721 70.239 154.721 70.2534 154.721C71.6026 154.667 71.2698 155.014 73.3459 155.159C75.5161 155.311 76.3588 154.631 76.5035 154.327C76.518 154.294 76.518 154.258 76.5035 154.222L76.489 154.218ZM56.708 117.514C56.878 117.673 57.189 117.832 57.558 117.966H55.9412C55.8797 117.853 55.7748 117.741 55.6518 117.673C55.1889 117.416 55.8869 116.75 56.708 117.51V117.514ZM52.4436 117.155C53.044 117.441 53.677 117.738 54.205 117.966H47.8392C47.8392 117.774 47.8392 117.571 47.8247 117.358C47.7958 116.754 47.7199 116.067 47.6186 115.307L50.6713 117.213L51.174 116.541C51.5394 116.721 51.9806 116.935 52.4436 117.155Z" fill="#003889"/>
</g>
<path d="M76.1593 154.319C76.0364 154.627 75.2443 155.303 73.0634 155.151C70.8824 154.999 71.3165 154.627 69.7468 154.721C68.1771 154.815 66.8063 154.728 66.7883 153.748C66.781 153.404 66.8642 153.068 66.9474 152.742C67.1029 152.138 67.2657 151.353 67.0233 150.692C66.9944 150.612 66.9619 150.522 66.9221 150.424C66.4591 149.201 65.4971 146.948 65.4971 146.948L68.4701 147.248C68.4701 147.248 68.9981 148.565 69.6383 149.683C69.9529 150.232 70.2965 150.731 70.6184 151.006C71.6564 151.896 72.4449 152.894 73.6963 153.285C73.8374 153.328 73.9748 153.372 74.1158 153.411C75.2262 153.748 76.2642 154.041 76.1521 154.312L76.1593 154.319Z" fill="#FDC8AA"/>
<path d="M69.7464 154.721C71.316 154.627 70.8784 154.999 73.0593 155.151C75.2402 155.303 76.0323 154.623 76.1553 154.319C76.2638 154.048 75.2258 153.755 74.119 153.419L74.1046 153.437C74.1046 153.437 72.6579 154.113 70.8712 153.831C69.4136 153.603 67.9524 152.909 66.9506 152.743C66.8674 153.072 66.7842 153.404 66.7915 153.748C66.8095 154.725 68.1803 154.811 69.75 154.721H69.7464Z" fill="#233862"/>
<path d="M69.6448 149.686C69.2723 149.932 68.2777 150.485 66.925 150.428C66.4621 149.205 65.5 146.952 65.5 146.952L68.473 147.252C68.473 147.252 69.001 148.569 69.6412 149.686H69.6448Z" fill="#FBB188"/>
<path d="M65.1815 157.741C64.9717 157.994 64.006 158.392 61.9806 157.571C59.9552 156.746 60.4833 156.529 58.9642 156.131C57.4452 155.733 56.1649 155.223 56.4542 154.287C56.5555 153.958 56.7399 153.665 56.9208 153.379C57.2535 152.854 57.655 152.156 57.6296 151.455C57.6296 151.368 57.6224 151.274 57.6188 151.173C57.5573 149.867 57.3475 147.426 57.3475 147.426L60.0782 148.634C60.0782 148.634 60.1686 150.048 60.4326 151.31C60.5629 151.929 60.7328 152.511 60.9535 152.873C61.6624 154.041 62.1 155.234 63.1669 155.997C63.2863 156.081 63.4056 156.167 63.525 156.251C64.4762 156.916 65.3695 157.516 65.1815 157.741Z" fill="#FDC8AA"/>
<path d="M58.9649 156.132C60.484 156.529 59.9559 156.746 61.9813 157.571C64.0067 158.396 64.9724 157.994 65.1822 157.741C65.3702 157.517 64.4733 156.916 63.5257 156.251L63.504 156.265C63.504 156.265 61.9162 156.457 60.3067 155.632C58.9939 154.963 57.822 153.846 56.9178 153.376C56.737 153.661 56.5525 153.954 56.4513 154.283C56.1619 155.217 57.4423 155.727 58.9613 156.128L58.9649 156.132Z" fill="#233862"/>
<path d="M60.4289 151.314C59.9985 151.433 58.8809 151.65 57.615 151.173C57.5535 149.867 57.3438 147.426 57.3438 147.426L60.0744 148.634C60.0744 148.634 60.1648 150.048 60.4289 151.31V151.314Z" fill="#FBB188"/>
<path d="M62.3323 127.044C62.0357 127.934 61.8151 128.849 61.7862 129.789L61.41 143.32L61.2183 150.196H56.9539C56.9539 150.196 55.5686 141.78 54.7765 134.947C54.2448 130.336 53.9808 126.447 54.5993 126.353C61.8115 125.247 62.5891 126.267 62.3323 127.048V127.044Z" fill="#15315E"/>
<path d="M62.3319 127.044C62.0354 127.934 61.8147 128.849 61.7858 129.789L61.4097 143.32C59.7676 141.258 56.4402 137.066 54.7765 134.947C54.2448 130.335 53.9808 126.447 54.5993 126.353C61.8111 125.247 62.5887 126.267 62.3319 127.048V127.044Z" fill="#072542"/>
<path d="M53.7266 117.513C52.8549 116.75 52.2039 117.416 52.6849 117.676C53.1623 117.933 53.4191 118.747 52.1135 118.302C51.5167 118.099 50.4389 117.618 49.4371 117.155C48.2399 116.606 47.1621 116.077 47.1621 116.077L48.598 113.727C48.598 113.727 49.1116 114.428 49.7011 115.025C50.2002 115.531 50.7572 115.958 51.1116 115.832C51.8784 115.549 54.7284 114.341 56.7538 116.728C58.7792 119.116 54.6018 118.276 53.7302 117.517L53.7266 117.513Z" fill="#FDC8AA"/>
<path d="M49.7018 115.021L49.4341 117.152C48.237 116.602 47.1592 116.074 47.1592 116.074L48.595 113.723C48.595 113.723 49.1086 114.425 49.6982 115.021H49.7018Z" fill="#EFA37D"/>
<path d="M69.7249 148.659L66.1477 150.193L55.7056 128.907C55.7056 128.907 49.8353 132.47 37.2266 132.661C35.0348 132.694 33.3637 132.318 32.1014 131.674C31.6963 131.468 31.3346 131.233 31.0127 130.976C26.5241 127.424 29.396 119.467 30.1085 119.282C34.0944 118.226 38.5902 118.027 42.8872 118.197C43.3248 118.215 43.7588 118.237 44.1929 118.262C45.712 118.349 47.1949 118.472 48.6164 118.617C52.6059 119.022 56.0745 119.568 58.3098 119.767C63.7967 120.248 69.7321 148.663 69.7321 148.663L69.7249 148.659Z" fill="#1F3A6F"/>
<path d="M67.0706 107.665L65.6961 106.869L59.2905 117.966H44.8408V119.355H60.3286V119.344L67.0706 107.665Z" fill="#3B82F4"/>
<path d="M44.1846 118.262V120.219C44.1846 120.219 42.9513 122.606 36.3507 122.483C30.1588 122.367 28.7121 127.145 32.0974 131.673C31.6923 131.467 31.3306 131.232 31.0087 130.975C26.5203 127.424 29.392 119.467 30.1045 119.282C34.0902 118.226 38.5859 118.027 42.8826 118.197C43.3202 118.215 43.7542 118.237 44.1882 118.262H44.1846Z" fill="#15315E"/>
<path d="M40.7387 91.2363L40.2902 92.6649L39.7621 94.3395L35.1797 92.3937L36.1309 90.0572L37.093 87.6991L40.7387 91.2363Z" fill="#FDC8AA"/>
<path d="M40.7389 91.2363L40.2904 92.6649C37.3464 92.0428 36.4422 90.9036 36.1348 90.0536L37.0932 87.6991L40.7389 91.2363Z" fill="#EFA37D"/>
<path d="M44.7066 119.644C43.437 122.244 33.4543 120.212 29.9892 120.259C26.5242 120.309 28.3688 97.9639 32.2173 93.4391C34.5502 90.6975 37.3931 91.8585 39.2739 93.2004C40.5254 94.0938 41.2633 95.537 41.2958 97.0705C41.3211 98.1737 41.3971 99.2769 41.5092 100.376C41.7696 102.908 42.2326 105.397 42.7353 107.712C43.0175 109.006 43.3068 110.247 43.5853 111.408C44.1532 113.788 44.6487 115.839 44.8368 117.358C44.9634 118.382 44.9453 119.166 44.7102 119.648L44.7066 119.644Z" fill="#F4B545"/>
<path d="M44.2754 82.6462C44.2754 82.6462 45.7692 89.2866 42.6877 91.7062C39.3205 94.3465 34.0617 86.6898 36.8755 84.3425C39.6894 81.9952 44.2754 82.6462 44.2754 82.6462Z" fill="#FDC8AA"/>
<path d="M35.3601 91.3015L43.0891 94.5204C43.0891 94.5204 41.2663 96.148 41.1903 96.1516C41.1144 96.1516 34.6367 92.8567 34.6367 92.8567L35.3565 91.3015H35.3601Z" fill="white"/>
<path d="M44.8329 117.357L38.348 113.169C38.348 113.169 37.9502 112.854 36.2322 104.72C35.0495 99.1357 36.7964 97.5082 38.1672 97.0344C38.8869 96.7848 39.6826 97.0452 40.1094 97.6565C40.6845 98.4775 41.1438 99.4034 41.5055 100.376C42.435 102.868 42.7352 105.653 42.7315 107.711C42.7315 108.496 42.6845 109.172 42.6122 109.689C42.5254 110.297 42.8039 110.897 43.3319 111.245L43.5815 111.407C44.1493 113.787 44.6448 115.838 44.8329 117.357Z" fill="#E59D29"/>
<path d="M40.623 96.434C40.1962 95.8228 39.4004 95.5659 38.6771 95.8119C37.3062 96.2821 35.5592 97.9133 36.742 103.498C38.4637 111.632 38.8579 111.947 38.8579 111.947L47.6652 117.21L49.8679 113.969L43.8457 110.023C43.3176 109.676 43.0391 109.075 43.1259 108.468C43.4623 106.07 43.2272 100.159 40.623 96.434Z" fill="#F4B545"/>
<path d="M44.0325 81.2862C44.0325 81.2862 45.812 82.892 45.2369 83.525C44.6618 84.1543 42.8064 83.044 42.8788 84.5341C42.9511 86.0242 42.7088 87.9266 41.6527 87.3262C40.5966 86.7258 40.98 84.9934 39.3416 85.7855C37.7032 86.5775 39.6056 88.4546 39.0522 88.9863C38.4989 89.518 36.1877 90.2015 33.8802 95.0625C31.5691 99.9234 23.5471 95.8582 25.6159 92.8237C27.6847 89.7929 30.0067 90.5994 31.1134 88.3353C32.2201 86.0748 38.7159 77.1233 44.0361 81.2862H44.0325Z" fill="#1F3A6F"/>
<path d="M41.1726 95.3127C41.4103 95.3127 41.603 95.12 41.603 94.8823C41.603 94.6446 41.4103 94.4519 41.1726 94.4519C40.9349 94.4519 40.7422 94.6446 40.7422 94.8823C40.7422 95.12 40.9349 95.3127 41.1726 95.3127Z" fill="#1F3A6F"/>
<g style="mix-blend-mode:multiply" opacity="0.18">
<path d="M113.914 74.0822L107.996 96.7866C107.802 97.5289 108.247 98.2875 108.99 98.481L142.764 107.285C143.507 107.478 144.265 107.034 144.459 106.291L150.377 83.5868C150.571 82.8446 150.126 82.086 149.383 81.8925L115.608 73.0885C114.866 72.895 114.108 73.3399 113.914 74.0822Z" fill="#003889"/>
</g>
<path d="M111.285 72.0781L106.503 95.0487C106.346 95.7997 106.829 96.5352 107.579 96.6915L141.75 103.805C142.501 103.962 143.237 103.48 143.393 102.729L148.175 79.758C148.332 79.007 147.85 78.2715 147.099 78.1152L112.928 71.0014C112.177 70.845 111.441 71.3271 111.285 72.0781Z" fill="#3B82F4"/>
<path d="M119.372 78.2733L114.082 77.172L110.576 94.0123L115.866 95.1136L119.372 78.2733Z" fill="white"/>
<path d="M125.539 89.1339L120.249 88.0326L118.655 95.6915L123.945 96.7928L125.539 89.1339Z" fill="white"/>
<path d="M134.819 85.0221L129.529 83.9208L126.728 97.376L132.018 98.4773L134.819 85.0221Z" fill="white"/>
<path d="M142.538 88.3939L137.248 87.2926L134.799 99.0553L140.089 100.157L142.538 88.3939Z" fill="white"/>
<path d="M128.92 28.0828C129.374 26.1601 128.183 24.2336 126.26 23.7798C124.338 23.326 122.411 24.5167 121.957 26.4394C121.504 28.3621 122.694 30.2887 124.617 30.7424C126.54 31.1962 128.466 30.0055 128.92 28.0828Z" fill="#C4D7F2"/>
<path d="M23.8909 77.0322C26.6854 77.0322 28.9508 74.7668 28.9508 71.9723C28.9508 69.1779 26.6854 66.9125 23.8909 66.9125C21.0964 66.9125 18.8311 69.1779 18.8311 71.9723C18.8311 74.7668 21.0964 77.0322 23.8909 77.0322Z" fill="white"/>
<path d="M74.025 12.1477C77.3429 12.1477 80.0325 9.45811 80.0325 6.14028C80.0325 2.82245 77.3429 0.132812 74.025 0.132812C70.7072 0.132812 68.0176 2.82245 68.0176 6.14028C68.0176 9.45811 70.7072 12.1477 74.025 12.1477Z" fill="#C4D7F2"/>
<path opacity="0.5" d="M109.299 52.2258L59.7709 55.4675C58.6976 55.5214 57.7852 54.6967 57.7313 53.6234C57.6774 52.55 58.5022 51.6377 59.5755 51.5838L109.104 48.342C110.177 48.2881 111.089 49.1129 111.143 50.1862C111.197 51.2595 110.373 52.1719 109.299 52.2258Z" fill="white"/>
<rect opacity="0.5" x="58.668" y="57.2729" width="40.5331" height="1.39438" rx="0.697191" transform="rotate(-3.0716 58.668 57.2729)" fill="white"/>
</g>
<defs>
<clipPath id="clip0_14105_417535">
<rect width="237.264" height="164.922" fill="white" transform="translate(0.735352 0.132812)"/>
</clipPath>
</defs>
</svg>
