<svg width="36" height="26" viewBox="0 0 36 26" fill="none" xmlns="http://www.w3.org/2000/svg">
<path d="M0.261978 25.2135V21.4927C0.261978 20.5691 0.499478 19.7312 0.974478 18.9791C1.44948 18.2271 2.1092 17.6663 2.95364 17.2968C4.88003 16.4524 6.6151 15.8455 8.15885 15.476C9.7026 15.1066 11.2925 14.9218 12.9286 14.9218C14.5648 14.9218 16.1481 15.1066 17.6786 15.476C19.2092 15.8455 20.9377 16.4524 22.8641 17.2968C23.7085 17.6663 24.3748 18.2271 24.863 18.9791C25.3512 19.7312 25.5953 20.5691 25.5953 21.4927V25.2135H0.261978ZM27.9703 25.2135V21.4927C27.9703 19.8302 27.5481 18.4646 26.7036 17.3958C25.8592 16.3271 24.7509 15.4628 23.3786 14.8031C25.1995 15.0142 26.9148 15.3243 28.5245 15.7333C30.1342 16.1423 31.4405 16.6107 32.4432 17.1385C33.3141 17.6399 34.0002 18.26 34.5016 18.9989C35.003 19.7378 35.2536 20.5691 35.2536 21.4927V25.2135H27.9703ZM12.9286 12.5073C11.187 12.5073 9.76198 11.9531 8.65365 10.8448C7.54531 9.73643 6.99115 8.31143 6.99115 6.56976C6.99115 4.8281 7.54531 3.4031 8.65365 2.29476C9.76198 1.18643 11.187 0.632263 12.9286 0.632263C14.6703 0.632263 16.0953 1.18643 17.2036 2.29476C18.312 3.4031 18.8661 4.8281 18.8661 6.56976C18.8661 8.31143 18.312 9.73643 17.2036 10.8448C16.0953 11.9531 14.6703 12.5073 12.9286 12.5073ZM27.1786 6.56976C27.1786 8.31143 26.6245 9.73643 25.5161 10.8448C24.4078 11.9531 22.9828 12.5073 21.2411 12.5073C20.9509 12.5073 20.6276 12.4875 20.2714 12.4479C19.9151 12.4083 19.5918 12.3357 19.3016 12.2302C19.9349 11.5705 20.4165 10.759 20.7464 9.79581C21.0762 8.83261 21.2411 7.75726 21.2411 6.56976C21.2411 5.38226 21.0762 4.33331 20.7464 3.42289C20.4165 2.51247 19.9349 1.67462 19.3016 0.909347C19.5918 0.83018 19.9151 0.764208 20.2714 0.71143C20.6276 0.658652 20.9509 0.632263 21.2411 0.632263C22.9828 0.632263 24.4078 1.18643 25.5161 2.29476C26.6245 3.4031 27.1786 4.8281 27.1786 6.56976Z" fill="white"/>
</svg>
