<svg width="19" height="24" viewBox="0 0 19 24" fill="none" xmlns="http://www.w3.org/2000/svg">
<path d="M9.44652 18.4206C10.3977 17.4694 11.9424 17.4694 12.8936 18.4206L13.5278 19.0547L15.9505 16.632C16.422 16.1523 17.0399 15.9166 17.6659 15.9166C17.6577 14.2012 16.7878 12.6321 15.3407 11.7053L14.6253 11.25C13.2351 12.7215 11.2676 13.6483 9.0888 13.6483C6.90998 13.6483 4.94255 12.7215 3.55231 11.25L2.83687 11.7053C1.38163 12.6402 0.511719 14.2174 0.511719 15.941V20.6564C0.511719 21.9978 1.61738 23.0953 2.96693 23.0953H10.666L9.44652 21.8677C8.49533 20.9165 8.49533 19.3718 9.44652 18.4206Z" fill="white"/>
<path d="M9.08966 12.0188C12.3488 12.0188 14.9908 9.40178 14.9908 6.17348C14.9908 2.94518 12.3488 0.328125 9.08966 0.328125C5.83053 0.328125 3.18848 2.94518 3.18848 6.17348C3.18848 9.40178 5.83053 12.0188 9.08966 12.0188Z" fill="white"/>
<path d="M18.2492 17.7851C17.9316 17.4675 17.4171 17.4675 17.0996 17.7851L13.5288 21.3558L11.7452 19.5718C11.4277 19.2542 10.9132 19.2542 10.5956 19.5718C10.278 19.889 10.278 20.4039 10.5956 20.7214L12.954 23.0802C13.1064 23.2327 13.3133 23.3184 13.5288 23.3184C13.7444 23.3184 13.9512 23.2327 14.1036 23.0802L18.2492 18.9347C18.5668 18.6171 18.5668 18.1026 18.2492 17.7851Z" fill="white"/>
</svg>
