<svg width="21" height="25" viewBox="0 0 21 25" fill="none" xmlns="http://www.w3.org/2000/svg">
<path d="M20.4382 7.09162H14.4654C14.1967 7.09162 13.9795 6.88166 13.9795 6.62191V0.848183C13.9795 0.647615 14.1481 0.515625 14.3259 0.515625C14.4105 0.515625 14.4965 0.545217 14.566 0.613326L20.6817 6.52421C20.7526 6.59326 20.7822 6.67875 20.7822 6.76188C20.7822 6.93098 20.6438 7.09162 20.4382 7.09162Z" fill="white"/>
<path d="M4.74792 18.3612C6.08971 18.3612 7.17747 17.3097 7.17747 16.0126C7.17747 14.7156 6.08971 13.6641 4.74792 13.6641C3.40612 13.6641 2.31836 14.7156 2.31836 16.0126C2.31836 17.3097 3.40612 18.3612 4.74792 18.3612Z" fill="white"/>
<path d="M4.74764 19.7812C1.90895 19.7812 0.860352 22.1298 0.860352 24.4784H8.63493C8.63493 22.1298 7.58634 19.7812 4.74764 19.7812Z" fill="white"/>
<path d="M14.4661 8.97048C13.1241 8.97048 12.0366 7.91926 12.0366 6.62191V0.515625H3.29018C2.75374 0.515625 2.31836 0.936489 2.31836 1.45505V12.5032C3.01418 12.0527 3.84898 11.7888 4.74792 11.7888C7.15949 11.7888 9.12112 13.685 9.12112 16.0162C9.12112 17.1059 8.68817 18.098 7.98554 18.8481C9.60557 19.9501 10.5789 21.9407 10.5789 24.4711H19.8112C20.3476 24.4711 20.783 24.0502 20.783 23.5316V8.97048H14.4661ZM18.3534 17.8951H11.0648V16.0162H18.3534V17.8951ZM18.3534 13.6676H10.5789V11.7888H18.3534V13.6676Z" fill="white"/>
</svg>
