<svg width="18" height="14" viewBox="0 0 18 14" fill="none" xmlns="http://www.w3.org/2000/svg">
<path fill-rule="evenodd" clip-rule="evenodd" d="M12.0801 13.3856H1.45508C0.764722 13.3856 0.205078 12.8259 0.205078 12.1356V2.13556C0.205078 1.4452 0.764722 0.885559 1.45508 0.885559H12.0801C12.7704 0.885559 13.3301 1.4452 13.3301 2.13556V4.67306L16.7176 2.25431C16.9077 2.11892 17.1575 2.10078 17.3652 2.20727C17.5729 2.31376 17.704 2.52713 17.7051 2.76056V11.5106C17.704 11.744 17.5729 11.9574 17.3652 12.0639C17.1575 12.1703 16.9077 12.1522 16.7176 12.0168L13.3301 9.59806V12.1356C13.3301 12.8259 12.7704 13.3856 12.0801 13.3856ZM1.45508 2.13556V12.1356H12.0801V8.38556C12.0812 8.15213 12.2122 7.93876 12.4199 7.83227C12.6277 7.72578 12.8774 7.74392 13.0676 7.87931L16.4551 10.2981V3.97306L13.0676 6.39181C12.8774 6.5272 12.6277 6.54534 12.4199 6.43885C12.2122 6.33236 12.0812 6.11899 12.0801 5.88556V2.13556H1.45508Z" fill="#DC3535"/>
</svg>
