<svg width="16" height="18" viewBox="0 0 16 18" fill="none" xmlns="http://www.w3.org/2000/svg">
    <path fill-rule="evenodd" clip-rule="evenodd" d="M15.5957 3.35685C15.5957 2.67166 15.0362 2.11593 14.3457 2.11593H11.8457V0.875H10.5957V2.11593H5.5957V0.875H4.3457V2.11593H1.8457C1.1555 2.11593 0.595703 2.67166 0.595703 3.35685V15.7661C0.595703 16.4516 1.1555 17.007 1.8457 17.007H6.92442V15.7661H1.8457V3.35685H4.3457V4.59778H5.5957V3.35685H10.5957V4.59778H11.8457V3.35685H14.3457V7.07963H15.5957V3.35685Z" fill="#E0E0E0"/>
    <path fill-rule="evenodd" clip-rule="evenodd" d="M10.1239 7.7062C10.1239 7.27369 10.4783 6.92188 10.914 6.92188H12.2518C12.6875 6.92188 13.0419 7.27369 13.0419 7.7062V8.58203H13.2552C14.2443 8.58203 15.049 9.38058 15.049 10.3625V14.6792C15.049 15.4886 14.4924 16.1977 13.7112 16.4013V16.6714C13.7112 16.9208 13.5068 17.1237 13.2556 17.1237C13.0043 17.1237 12.8 16.9208 12.8 16.6714V16.4596H10.3662V16.6714C10.3662 16.9208 10.1618 17.1237 9.91062 17.1237C9.65942 17.1237 9.45503 16.9208 9.45503 16.6714V16.4013C8.67411 16.1976 8.11719 15.4886 8.11719 14.6792V10.3625C8.11719 9.38093 8.92157 8.58203 9.91062 8.58203H10.1239V7.7062ZM11.0348 7.82646V8.58203H12.1304V7.82646H11.0348ZM9.91029 9.48662C9.42398 9.48662 9.02805 9.87937 9.02805 10.3625V14.6792C9.02805 15.162 9.42367 15.555 9.91029 15.555H13.2552C13.7415 15.555 14.1375 15.1623 14.1375 14.6792V10.3625C14.1375 9.87968 13.7418 9.48662 13.2552 9.48662H9.91029ZM9.78818 10.6954C9.78818 10.446 9.99257 10.2431 10.2438 10.2431C10.495 10.2431 10.6994 10.446 10.6994 10.6954V14.3481C10.6994 14.5975 10.495 14.8004 10.2438 14.8004C9.99257 14.8004 9.78818 14.5975 9.78818 14.3481V10.6954ZM11.1271 10.6954C11.1271 10.446 11.3315 10.2431 11.5827 10.2431C11.8339 10.2431 12.0383 10.446 12.0383 10.6954V14.3481C12.0383 14.5975 11.8339 14.8004 11.5827 14.8004C11.3315 14.8004 11.1271 14.5975 11.1271 14.3481V10.6954ZM12.4631 10.6954C12.4631 10.446 12.6675 10.2431 12.9187 10.2431C13.1699 10.2431 13.3743 10.446 13.3743 10.6954V14.3481C13.3743 14.5975 13.1699 14.8004 12.9187 14.8004C12.6675 14.8004 12.4631 14.5975 12.4631 14.3481V10.6954Z" fill="#E0E0E0"/>
</svg>
