<svg width="137" height="97" viewBox="0 0 137 97" fill="none" xmlns="http://www.w3.org/2000/svg">
<g clip-path="url(#clip0_1_1743)">
<path fill-rule="evenodd" clip-rule="evenodd" d="M73.6475 33.5047H111.851C125.408 33.5047 136.498 44.5365 136.498 58.0231C136.498 71.5097 125.406 82.5415 111.851 82.5415H97.4823L92.7515 86.3737L80.2559 96.4844V82.5436H73.6453C60.0881 82.5436 48.9987 71.5097 48.9987 58.0253C48.9987 44.5386 60.0903 33.5069 73.6453 33.5069L73.6475 33.5047ZM73.1888 52.0424C76.4187 52.0424 79.0415 54.6536 79.0415 57.8646C79.0415 61.0756 76.4166 63.6868 73.1888 63.6868C69.961 63.6868 67.3361 61.082 67.3361 57.8646C67.3361 54.6472 69.9545 52.0424 73.1888 52.0424ZM112.314 52.0424C115.544 52.0424 118.167 54.6536 118.167 57.8646C118.167 61.0756 115.542 63.6868 112.314 63.6868C109.086 63.6868 106.462 61.082 106.462 57.8646C106.462 54.6472 109.08 52.0424 112.314 52.0424ZM92.7515 52.0424C95.9814 52.0424 98.6041 54.6536 98.6041 57.8646C98.6041 61.0756 95.9793 63.6868 92.7515 63.6868C89.5237 63.6868 86.8988 61.082 86.8988 57.8646C86.8988 54.6472 89.5172 52.0424 92.7515 52.0424Z" fill="#6666FF"/>
<path fill-rule="evenodd" clip-rule="evenodd" d="M34.4316 17.1756H13.8074C6.48831 17.1756 0.5 23.1327 0.5 30.4137C0.5 37.6947 6.48831 43.6518 13.8074 43.6518H21.5657L24.1173 45.7168L30.8615 51.1748V43.6518H34.4316C41.7507 43.6518 47.7325 37.6947 47.7325 30.4137C47.7325 23.1327 41.7507 17.1756 34.4316 17.1756ZM34.6814 27.1877C32.9351 27.1877 31.5204 28.5908 31.5204 30.3259C31.5204 32.061 32.9372 33.4705 34.6814 33.4705C36.4256 33.4705 37.8381 32.061 37.8381 30.3259C37.8381 28.5908 36.4213 27.1877 34.6814 27.1877ZM13.5554 27.1877C11.8091 27.1877 10.3987 28.5908 10.3987 30.3259C10.3987 32.061 11.8091 33.4705 13.5554 33.4705C15.3018 33.4705 16.7165 32.061 16.7165 30.3259C16.7165 28.5908 15.2996 27.1877 13.5554 27.1877ZM24.1152 27.1877C22.3689 27.1877 20.9585 28.5908 20.9585 30.3259C20.9585 32.061 22.3689 33.4705 24.1152 33.4705C25.8615 33.4705 27.2762 32.061 27.2762 30.3259C27.2762 28.5908 25.8594 27.1877 24.1152 27.1877Z" fill="#59CC29"/>
<path fill-rule="evenodd" clip-rule="evenodd" d="M62.2393 4.59505H74.8813C79.3666 4.59505 83.0423 8.24518 83.0423 12.7136C83.0423 17.1756 79.3688 20.8257 74.8813 20.8257H70.1268L68.5635 22.0938L64.4249 25.4397V20.8257H62.2393C57.754 20.8257 54.0783 17.1756 54.0783 12.7136C54.0783 8.24518 57.7518 4.59505 62.2393 4.59505ZM62.0864 10.7343C63.1544 10.7343 64.0222 11.5975 64.0222 12.66C64.0222 13.7225 63.1544 14.5901 62.0864 14.5901C61.0184 14.5901 60.1463 13.7225 60.1463 12.66C60.1463 11.5975 61.0119 10.7343 62.0864 10.7343ZM75.032 10.7343C76.1065 10.7343 76.9721 11.5975 76.9721 12.66C76.9721 13.7225 76.1065 14.5901 75.032 14.5901C73.9575 14.5901 73.0962 13.7225 73.0962 12.66C73.0962 11.5975 73.964 10.7343 75.032 10.7343ZM68.5614 10.7343C69.6294 10.7343 70.4972 11.5975 70.4972 12.66C70.4972 13.7225 69.6316 14.5901 68.5614 14.5901C67.4912 14.5901 66.6213 13.7225 66.6213 12.66C66.6213 11.5975 67.489 10.7343 68.5614 10.7343Z" fill="#FFB800"/>
<path fill-rule="evenodd" clip-rule="evenodd" d="M39.718 75.961C35.1595 75.961 31.4665 72.2809 31.4665 67.7525C31.4665 72.283 27.7736 75.961 23.2151 75.961C27.7736 75.961 31.4665 79.6347 31.4665 84.1652C31.4665 79.6347 35.1595 75.961 39.718 75.961Z" fill="#FFB800"/>
<path fill-rule="evenodd" clip-rule="evenodd" d="M17.8039 59.6083C15.4352 59.6083 13.5124 57.6954 13.5124 55.3391C13.5124 57.6954 11.5959 59.6083 9.22729 59.6083C11.5959 59.6083 13.5124 61.5147 13.5124 63.871C13.5124 61.5147 15.4352 59.6083 17.8039 59.6083Z" fill="#6666FF"/>
<path fill-rule="evenodd" clip-rule="evenodd" d="M56.5933 87.0592C54.8772 87.0592 53.4861 85.6754 53.4861 83.9681C53.4861 85.6754 52.0951 87.0592 50.3789 87.0592C52.0951 87.0592 53.4861 88.443 53.4861 90.1502C53.4861 88.4451 54.8772 87.0592 56.5933 87.0592Z" fill="#59CC29"/>
<path fill-rule="evenodd" clip-rule="evenodd" d="M107.323 15.5304C103.813 15.5304 100.962 12.6943 100.962 9.20269C100.962 12.6943 98.1175 15.5304 94.6076 15.5304C98.1175 15.5304 100.962 18.3601 100.962 21.8517C100.962 18.3601 103.813 15.5304 107.323 15.5304Z" fill="#6666FF"/>
<path fill-rule="evenodd" clip-rule="evenodd" d="M40.8334 5.04489C38.3054 5.04489 36.2555 3.00562 36.2555 0.484375C36.2555 3.00348 34.2055 5.04489 31.6711 5.04489C34.2034 5.04489 36.2555 7.08416 36.2555 9.59898C36.2555 7.08416 38.3054 5.04489 40.8334 5.04489Z" fill="#59CC29"/>
</g>
<defs>
<clipPath id="clip0_1_1743">
<rect width="136" height="96" fill="white" transform="translate(0.5 0.484375)"/>
</clipPath>
</defs>
</svg>
