<svg width="147" height="134" viewBox="0 0 147 134" fill="none" xmlns="http://www.w3.org/2000/svg">
<g clip-path="url(#clip0_1_1756)">
<path d="M88.0165 16.1006C55.4406 16.1006 29.033 42.4423 29.033 74.937C29.033 75.1253 29.0342 75.3131 29.0361 75.5008C29.0434 76.2234 28.4512 76.8037 27.7267 76.8031H27.7132C12.4277 76.8031 0.0325966 89.1477 2.20859e-06 104.388C-0.0319772 119.438 12.0679 131.79 27.1536 132.086C33.7407 132.215 39.8162 130.052 44.634 126.341C48.4967 123.366 53.7862 123.104 57.9842 125.586C66.7809 130.787 77.0494 133.773 88.0165 133.773C120.592 133.773 147 107.432 147 74.937C147 42.4429 120.592 16.1006 88.0165 16.1006Z" fill="#E6EDFF"/>
<path d="M123.583 50.7755H80.6151V104.548H123.583V50.7755Z" fill="white"/>
<path d="M96.2075 64.8911H87.3074C86.9255 64.8911 86.6156 64.5819 86.6156 64.2009C86.6156 63.82 86.9255 63.5108 87.3074 63.5108H96.2075C96.5894 63.5108 96.8994 63.82 96.8994 64.2009C96.8994 64.5819 96.5894 64.8911 96.2075 64.8911Z" fill="#E6EDFF"/>
<path d="M116.891 64.8911H100.052C99.6705 64.8911 99.3606 64.5819 99.3606 64.2009C99.3606 63.82 99.6705 63.5108 100.052 63.5108H116.891C117.273 63.5108 117.583 63.82 117.583 64.2009C117.583 64.5819 117.273 64.8911 116.891 64.8911Z" fill="#E6EDFF"/>
<path d="M116.891 71.6213H87.3074C86.9255 71.6213 86.6156 71.3121 86.6156 70.9312C86.6156 70.5502 86.9255 70.241 87.3074 70.241H116.891C117.273 70.241 117.583 70.5502 117.583 70.9312C117.583 71.3121 117.273 71.6213 116.891 71.6213Z" fill="#E6EDFF"/>
<path d="M105.55 78.3515H87.3074C86.9255 78.3515 86.6156 78.0423 86.6156 77.6614C86.6156 77.2804 86.9255 76.9712 87.3074 76.9712H105.55C105.932 76.9712 106.242 77.2804 106.242 77.6614C106.242 78.0423 105.932 78.3515 105.55 78.3515Z" fill="#E6EDFF"/>
<path d="M116.891 78.3515H109.472C109.09 78.3515 108.78 78.0423 108.78 77.6614C108.78 77.2804 109.09 76.9712 109.472 76.9712H116.891C117.273 76.9712 117.583 77.2804 117.583 77.6614C117.583 78.0423 117.273 78.3515 116.891 78.3515Z" fill="#E6EDFF"/>
<path d="M116.891 85.0823H87.3074C86.9255 85.0823 86.6156 84.7731 86.6156 84.3922C86.6156 84.0112 86.9255 83.7021 87.3074 83.7021H116.891C117.273 83.7021 117.583 84.0112 117.583 84.3922C117.583 84.7731 117.273 85.0823 116.891 85.0823Z" fill="#E6EDFF"/>
<path d="M87.3074 90.4316H93.4395C93.8214 90.4316 94.1313 90.7408 94.1313 91.1218C94.1313 91.5027 93.8214 91.8119 93.4395 91.8119H87.3074C86.9255 91.8119 86.6156 91.5027 86.6156 91.1218C86.6156 90.7408 86.9255 90.4316 87.3074 90.4316Z" fill="#E6EDFF"/>
<path d="M116.891 91.8125H97.2936C96.9117 91.8125 96.6017 91.5033 96.6017 91.1224C96.6017 90.7414 96.9117 90.4323 97.2936 90.4323H116.891C117.273 90.4323 117.583 90.7414 117.583 91.1224C117.583 91.5033 117.273 91.8125 116.891 91.8125Z" fill="#E6EDFF"/>
<path d="M15.5033 43.8453L7.19907 52.1288V102.866H49.9284V43.8453H15.5033Z" fill="#FFCB48"/>
<path d="M15.5033 52.1288V43.8453L7.19907 52.1288H15.5033Z" fill="#FFDC4A"/>
<path d="M7.19907 52.1288L14.6134 53.222V52.1288H7.19907Z" fill="#E59D29"/>
<path d="M23.0953 64.0936H14.1952C13.8132 64.0936 13.5033 63.7844 13.5033 63.4035C13.5033 63.0225 13.8132 62.7133 14.1952 62.7133H23.0953C23.4772 62.7133 23.7871 63.0225 23.7871 63.4035C23.7871 63.7844 23.4772 64.0936 23.0953 64.0936Z" fill="white"/>
<path d="M43.7792 64.0936H26.9402C26.5583 64.0936 26.2483 63.7844 26.2483 63.4035C26.2483 63.0225 26.5583 62.7133 26.9402 62.7133H43.7792C44.1611 62.7133 44.471 63.0225 44.471 63.4035C44.471 63.7844 44.1611 64.0936 43.7792 64.0936Z" fill="white"/>
<path d="M43.7792 70.8244H14.1952C13.8132 70.8244 13.5033 70.5152 13.5033 70.1343C13.5033 69.7533 13.8132 69.4442 14.1952 69.4442H43.7792C44.1611 69.4442 44.471 69.7533 44.471 70.1343C44.471 70.5152 44.1611 70.8244 43.7792 70.8244Z" fill="white"/>
<path d="M32.4375 77.5546H14.1952C13.8132 77.5546 13.5033 77.2454 13.5033 76.8645C13.5033 76.4835 13.8132 76.1743 14.1952 76.1743H32.4375C32.8195 76.1743 33.1294 76.4835 33.1294 76.8645C33.1294 77.2454 32.8195 77.5546 32.4375 77.5546Z" fill="white"/>
<path d="M43.7792 77.5546H36.3593C35.9774 77.5546 35.6675 77.2454 35.6675 76.8645C35.6675 76.4835 35.9774 76.1743 36.3593 76.1743H43.7792C44.1611 76.1743 44.471 76.4835 44.471 76.8645C44.471 77.2454 44.1611 77.5546 43.7792 77.5546Z" fill="white"/>
<path d="M43.7792 84.2848H14.1952C13.8132 84.2848 13.5033 83.9757 13.5033 83.5947C13.5033 83.2138 13.8132 82.9046 14.1952 82.9046H43.7792C44.1611 82.9046 44.471 83.2138 44.471 83.5947C44.471 83.9757 44.1611 84.2848 43.7792 84.2848Z" fill="white"/>
<path d="M20.3278 89.6348H14.1952C13.8131 89.6348 13.5033 89.9438 13.5033 90.3249V90.3255C13.5033 90.7067 13.8131 91.0157 14.1952 91.0157H20.3278C20.7099 91.0157 21.0197 90.7067 21.0197 90.3255V90.3249C21.0197 89.9438 20.7099 89.6348 20.3278 89.6348Z" fill="white"/>
<path d="M43.7792 91.0156H24.1814C23.7995 91.0156 23.4895 90.7065 23.4895 90.3255C23.4895 89.9446 23.7995 89.6354 24.1814 89.6354H43.7792C44.1611 89.6354 44.4711 89.9446 44.4711 90.3255C44.4711 90.7065 44.1611 91.0156 43.7792 91.0156Z" fill="white"/>
<path d="M46.5724 28.2734L33.8865 40.9283V118.437H99.1625V28.2734H46.5724Z" fill="#6FA0FF"/>
<path d="M46.5724 40.9283V28.2734L33.8865 40.9283H46.5724Z" fill="#B6CDFF"/>
<g style="mix-blend-mode:multiply" opacity="0.5">
<path d="M33.8865 40.9283L45.2133 42.5976V40.9283H33.8865Z" fill="#284080"/>
</g>
<path d="M58.1711 57.0978H44.5743C43.9905 57.0978 43.5172 57.5699 43.5172 58.1523C43.5172 58.7347 43.9905 59.2068 44.5743 59.2068H58.1711C58.755 59.2068 59.2283 58.7347 59.2283 58.1523C59.2283 57.5699 58.755 57.0978 58.1711 57.0978Z" fill="#284080"/>
<path d="M89.7686 59.2068H64.0436C63.46 59.2068 62.9865 58.7345 62.9865 58.1523C62.9865 57.5701 63.46 57.0978 64.0436 57.0978H89.7686C90.3522 57.0978 90.8258 57.5701 90.8258 58.1523C90.8258 58.7345 90.3522 59.2068 89.7686 59.2068Z" fill="white"/>
<path d="M89.7686 67.3799H44.5743C43.9905 67.3799 43.5172 67.852 43.5172 68.4344C43.5172 69.0168 43.9905 69.4889 44.5743 69.4889H89.7686C90.3525 69.4889 90.8258 69.0168 90.8258 68.4344C90.8258 67.852 90.3525 67.3799 89.7686 67.3799Z" fill="#B6CDFF"/>
<path d="M72.4425 79.7704H44.5743C43.9907 79.7704 43.5172 79.2981 43.5172 78.7159C43.5172 78.1337 43.9907 77.6614 44.5743 77.6614H72.4425C73.0262 77.6614 73.4997 78.1337 73.4997 78.7159C73.4997 79.2981 73.0262 79.7704 72.4425 79.7704Z" fill="white"/>
<path d="M89.7686 79.7704H78.4331C77.8495 79.7704 77.376 79.2981 77.376 78.7159C77.376 78.1337 77.8495 77.6614 78.4331 77.6614H89.7686C90.3522 77.6614 90.8258 78.1337 90.8258 78.7159C90.8258 79.2981 90.3522 79.7704 89.7686 79.7704Z" fill="white"/>
<path d="M89.7686 90.0525H44.5743C43.9907 90.0525 43.5172 89.5802 43.5172 88.998C43.5172 88.4158 43.9907 87.9435 44.5743 87.9435H89.7686C90.3522 87.9435 90.8258 88.4158 90.8258 88.998C90.8258 89.5802 90.3522 90.0525 89.7686 90.0525Z" fill="#B6CDFF"/>
<path d="M53.9425 100.334H44.575C43.9913 100.334 43.5178 99.8617 43.5178 99.2795C43.5178 98.6973 43.9913 98.225 44.575 98.225H53.9425C54.5261 98.225 54.9996 98.6973 54.9996 99.2795C54.9996 99.8617 54.5261 100.334 53.9425 100.334Z" fill="white"/>
<path d="M89.7686 100.334H59.8297C59.2461 100.334 58.7726 99.8617 58.7726 99.2795C58.7726 98.6973 59.2461 98.225 59.8297 98.225H89.7686C90.3522 98.225 90.8258 98.6973 90.8258 99.2795C90.8258 99.8617 90.3522 100.334 89.7686 100.334Z" fill="white"/>
<g style="mix-blend-mode:multiply" opacity="0.25">
<path d="M102.099 50.7755H99.1625V104.548H102.099V50.7755Z" fill="#2D5EA5"/>
</g>
<g style="mix-blend-mode:multiply" opacity="0.25">
<path d="M100.014 126.453C108.21 126.453 114.854 119.826 114.854 111.65C114.854 103.475 108.21 96.8478 100.014 96.8478C91.8186 96.8478 85.1746 103.475 85.1746 111.65C85.1746 119.826 91.8186 126.453 100.014 126.453Z" fill="#2D5EA5"/>
</g>
<path d="M108.835 120.309C114.63 114.528 114.63 105.156 108.835 99.3751C103.04 93.5943 93.6438 93.5943 87.8485 99.3751C82.0533 105.156 82.0533 114.528 87.8485 120.309C93.6438 126.09 103.04 126.09 108.835 120.309Z" fill="#284080"/>
<g style="mix-blend-mode:multiply" opacity="0.35">
<path d="M94.4456 117.79L92.4204 118.109C92.3134 118.127 92.2169 118.041 92.2267 117.939L92.402 115.991C92.4094 115.912 92.4438 115.837 92.4998 115.78L103.521 104.425C103.663 104.279 103.905 104.271 104.061 104.409L105.655 105.812C105.811 105.949 105.823 106.179 105.681 106.325L94.6596 117.68C94.603 117.738 94.528 117.776 94.4456 117.79Z" fill="#16487A"/>
</g>
<path d="M94.1227 117.53L92.0354 118.106C91.9254 118.136 91.8159 118.054 91.8159 117.94L91.8085 115.779C91.8085 115.691 91.8368 115.605 91.8903 115.535L102.309 101.831C102.443 101.655 102.696 101.62 102.873 101.754L104.678 103.12C104.855 103.253 104.889 103.505 104.755 103.682L94.3361 117.386C94.2826 117.456 94.2082 117.506 94.1227 117.53Z" fill="white"/>
<path d="M99.3599 9.0563C101.653 9.0563 103.512 7.20212 103.512 4.91487C103.512 2.62762 101.653 0.773438 99.3599 0.773438C97.067 0.773438 95.2082 2.62762 95.2082 4.91487C95.2082 7.20212 97.067 9.0563 99.3599 9.0563Z" fill="#B6CDFF"/>
<path d="M22.0645 115.131C23.4575 114.555 24.1189 112.962 23.542 111.573C22.965 110.183 21.3681 109.524 19.9751 110.099C18.5822 110.675 17.9207 112.268 18.4977 113.657C19.0747 115.047 20.6716 115.706 22.0645 115.131Z" fill="#B6CDFF"/>
<path d="M134.81 65.4365C136.317 65.4365 137.54 64.2173 137.54 62.7133C137.54 61.2094 136.317 59.9902 134.81 59.9902C133.302 59.9902 132.08 61.2094 132.08 62.7133C132.08 64.2173 133.302 65.4365 134.81 65.4365Z" fill="#B6CDFF"/>
</g>
<defs>
<clipPath id="clip0_1_1756">
<rect width="147" height="133" fill="white" transform="translate(0 0.773438)"/>
</clipPath>
</defs>
</svg>
