<svg width="165" height="164" viewBox="0 0 165 164" fill="none" xmlns="http://www.w3.org/2000/svg">
<g clip-path="url(#clip0_2_5841)">
<path d="M10.4684 57.9664C35.3938 18.9497 76.2885 3.40982 107.822 16.9523C109.283 17.5797 137.723 30.3679 145.967 62.0414C156.27 101.618 129.94 151.083 89.3338 161.137C51.8721 170.412 9.40819 144.372 1.80852 107.132C-2.60457 85.508 6.0116 66.3455 10.467 57.9664H10.4684Z" fill="#ECF3FE"/>
<g style="mix-blend-mode:multiply" opacity="0.2">
<path d="M154.527 55.5283L80.2013 47.5431C78.2135 47.3301 76.4299 48.7687 76.2169 50.7559L65.8974 146.89C65.6844 148.878 67.1224 150.663 69.1087 150.876L143.434 158.861C145.422 159.074 147.206 157.635 147.418 155.648L157.738 59.5143C157.951 57.5256 156.513 55.7413 154.527 55.5283Z" fill="#3A7EC1"/>
</g>
<path d="M140.829 156.149L66.504 148.164C64.5162 147.951 63.0783 146.165 63.2927 144.178L73.6122 48.0437C73.8252 46.0551 75.6102 44.6165 77.5965 44.831L151.922 52.8161C153.91 53.0291 155.348 54.815 155.133 56.8021L144.814 152.936C144.601 154.925 142.816 156.363 140.829 156.149Z" fill="#3B82F4"/>
<path d="M139.424 116.338L76.3265 109.558C76.045 109.528 75.8408 109.275 75.8714 108.994L80.5368 65.5371C80.5675 65.2555 80.8198 65.0513 81.1012 65.0819L144.198 71.8619C144.48 71.8925 144.684 72.1449 144.654 72.4265L139.988 115.883C139.957 116.165 139.705 116.369 139.424 116.338ZM76.9463 108.594L139.023 115.263L143.579 72.8263L81.5023 66.1572L76.9463 108.594Z" fill="#B3CEF6"/>
<path d="M140.201 109.096L77.1036 102.316C76.8221 102.285 76.6179 102.033 76.6485 101.751C76.6792 101.469 76.9315 101.265 77.2129 101.296L140.31 108.076C140.592 108.106 140.796 108.359 140.765 108.64C140.735 108.922 140.482 109.126 140.201 109.096Z" fill="#B3CEF6"/>
<path d="M140.98 101.853L77.8824 95.0732C77.6009 95.0425 77.3967 94.7901 77.4274 94.5085C77.458 94.227 77.7103 94.0227 77.9918 94.0533L141.089 100.833C141.37 100.864 141.575 101.116 141.544 101.398C141.513 101.68 141.261 101.884 140.98 101.853Z" fill="#B3CEF6"/>
<path d="M141.757 94.6107L78.6597 87.8307C78.3783 87.8001 78.1741 87.5477 78.2047 87.2661C78.2353 86.9845 78.4876 86.7803 78.7691 86.8109L141.866 93.5909C142.148 93.6215 142.352 93.8739 142.321 94.1555C142.291 94.4371 142.038 94.6414 141.757 94.6107Z" fill="#B3CEF6"/>
<path d="M142.534 87.3669L79.4371 80.5869C79.1556 80.5562 78.9514 80.3038 78.982 80.0222C79.0127 79.7406 79.265 79.5364 79.5464 79.567L142.644 86.347C142.925 86.3776 143.129 86.6301 143.099 86.9116C143.068 87.1932 142.816 87.3975 142.534 87.3669Z" fill="#B3CEF6"/>
<path d="M143.312 80.1242L80.2144 73.3442C79.9329 73.3135 79.7288 73.0611 79.7594 72.7795C79.79 72.498 80.0423 72.2937 80.3238 72.3243L143.421 79.1043C143.703 79.135 143.907 79.3874 143.876 79.669C143.845 79.9506 143.593 80.1548 143.312 80.1242Z" fill="#B3CEF6"/>
<path d="M128.907 115.209C128.626 115.178 128.422 114.926 128.452 114.644L133.118 71.1877C133.148 70.9062 133.401 70.7019 133.682 70.7325C133.964 70.7632 134.168 71.0156 134.137 71.2972L129.472 114.754C129.441 115.035 129.189 115.239 128.907 115.209Z" fill="#B3CEF6"/>
<path d="M118.392 114.08C118.111 114.049 117.906 113.797 117.937 113.515L122.603 70.0586C122.633 69.777 122.885 69.5727 123.167 69.6034C123.448 69.634 123.653 69.8864 123.622 70.168L118.957 113.624C118.926 113.906 118.674 114.11 118.392 114.08Z" fill="#B3CEF6"/>
<path d="M107.876 112.949C107.594 112.918 107.39 112.666 107.421 112.384L112.086 68.9277C112.117 68.6461 112.369 68.4419 112.651 68.4725C112.932 68.5032 113.136 68.7556 113.106 69.0372L108.44 112.494C108.41 112.775 108.157 112.979 107.876 112.949Z" fill="#B3CEF6"/>
<path d="M97.3592 111.82C97.0777 111.789 96.8735 111.537 96.9042 111.255L101.57 67.7986C101.6 67.517 101.852 67.3127 102.134 67.3434C102.415 67.374 102.62 67.6264 102.589 67.908L97.9236 111.364C97.893 111.646 97.6407 111.85 97.3592 111.82Z" fill="#B3CEF6"/>
<path d="M86.8428 110.689C86.5614 110.658 86.3572 110.406 86.3878 110.124L91.0532 66.6677C91.0838 66.3861 91.3361 66.1819 91.6176 66.2125C91.8991 66.2432 92.1032 66.4956 92.0726 66.7771L87.4072 110.234C87.3766 110.515 87.1243 110.719 86.8428 110.689Z" fill="#B3CEF6"/>
<path d="M112.315 61.8984L83.5177 58.8038C82.2853 58.671 81.3943 57.5651 81.5255 56.3322C81.6582 55.0994 82.7637 54.2079 83.996 54.3392L112.793 57.4338C114.026 57.5666 114.917 58.6725 114.786 59.9053C114.653 61.1382 113.547 62.0297 112.315 61.8984Z" fill="#B3CEF6"/>
<path d="M103.588 124.573L76.1922 121.63C75.2764 121.532 74.6142 120.709 74.712 119.793C74.8097 118.877 75.6322 118.215 76.5481 118.312L103.944 121.255C104.86 121.353 105.522 122.176 105.424 123.092C105.326 124.008 104.504 124.671 103.588 124.573Z" fill="#B3CEF6"/>
<path d="M136.145 136.071L75.3433 129.539C74.4275 129.442 73.7654 128.619 73.8631 127.702C73.9608 126.786 74.7833 126.124 75.6992 126.221L136.501 132.753C137.417 132.851 138.079 133.674 137.981 134.59C137.883 135.507 137.061 136.169 136.145 136.071Z" fill="#B3CEF6"/>
<path d="M135.296 143.979L74.4947 137.447C73.5788 137.349 72.9167 136.526 73.0144 135.61C73.1122 134.694 73.9347 134.031 74.8506 134.129L135.652 140.661C136.568 140.759 137.23 141.582 137.133 142.498C137.035 143.414 136.212 144.077 135.296 143.979Z" fill="#B3CEF6"/>
<path d="M52.4248 162.323C50.6805 162.323 49.0661 161.184 48.5454 159.427L21.0519 66.735C20.7442 65.6991 20.8594 64.6049 21.3742 63.6551C21.889 62.7052 22.7436 62.0122 23.7791 61.7058L95.4429 40.4321C96.4783 40.1242 97.5721 40.2395 98.5216 40.7545C99.471 41.2695 100.164 42.1245 100.471 43.1604L127.965 135.852C128.273 136.888 128.158 137.983 127.643 138.932C127.128 139.882 126.273 140.575 125.238 140.882L53.574 162.155C53.1919 162.269 52.8054 162.323 52.4248 162.323ZM96.5979 41.1134C96.2931 41.1134 95.9854 41.1572 95.685 41.2477L24.0212 62.5214C23.203 62.7636 22.5292 63.3107 22.1223 64.0607C21.7154 64.8106 21.625 65.6743 21.8686 66.4928L49.3621 159.185C49.8638 160.874 51.6445 161.84 53.3333 161.34L124.997 140.066C125.815 139.824 126.489 139.277 126.896 138.527C127.303 137.777 127.393 136.913 127.15 136.095L99.6562 43.4026C99.4141 42.5841 98.8672 41.91 98.1176 41.503C97.6436 41.2462 97.1244 41.1149 96.5994 41.1149L96.5979 41.1134Z" fill="#444444"/>
<path d="M82.6411 10.0759L83.5993 26.9829L72.7868 37.6117L71.8286 20.7048L82.6411 10.0759Z" fill="#FAB222"/>
<path d="M71.8286 20.7048L72.7868 37.6118L61.5937 27.6701L60.6355 10.7632L71.8286 20.7048Z" fill="#C88E1B"/>
<path d="M82.6411 10.0759L71.8286 20.7048L60.6355 10.7631L71.4465 0.132812L82.6411 10.0759Z" fill="#FBC14E"/>
<path d="M40.6133 19.7449L41.659 31.0128L29.8621 42.6104L28.8164 31.3425L40.6133 19.7449Z" fill="#B02A2A"/>
<path d="M28.8163 31.3423L29.862 42.6102L17.648 31.7625L16.6023 20.4946L28.8163 31.3423Z" fill="#842020"/>
<path d="M40.6132 19.7447L28.8163 31.3423L16.6023 20.4946L28.3992 8.89551L40.6132 19.7447Z" fill="#DC3535"/>
<g style="mix-blend-mode:multiply" opacity="0.2">
<path d="M134.112 138.852L122.114 42.9137C121.866 40.9295 120.058 39.523 118.074 39.771L43.9004 49.0547C41.917 49.3027 40.5111 51.1133 40.7591 53.0961L52.7572 149.034C53.0052 151.019 54.8136 152.425 56.797 152.177L130.971 142.894C132.954 142.645 134.36 140.836 134.112 138.852Z" fill="#3A7EC1"/>
</g>
<path d="M128.216 140.971L54.0421 150.254C52.0587 150.502 50.2503 149.096 50.0023 147.112L38.0042 51.1733C37.7562 49.189 39.1621 47.3799 41.1455 47.1318L115.319 37.8482C117.303 37.6002 119.111 39.0066 119.359 40.9909L131.357 136.929C131.605 138.913 130.199 140.723 128.216 140.971Z" fill="white"/>
<path d="M117.72 102.545L54.7509 110.426C54.4694 110.461 54.2127 110.262 54.1777 109.981L48.754 66.6125C48.719 66.3309 48.9188 66.0741 49.1988 66.0391L112.168 58.1575C112.449 58.1225 112.706 58.3224 112.741 58.6025L118.165 101.971C118.2 102.253 118 102.51 117.72 102.545ZM55.133 109.344L117.084 101.591L111.789 59.2401L49.8376 66.9933L55.133 109.344Z" fill="#E4ECF9"/>
<path d="M116.816 95.3168L53.8467 103.198C53.5652 103.233 53.3085 103.033 53.2735 102.753C53.2385 102.472 53.4383 102.215 53.7183 102.18L116.687 94.2984C116.969 94.2634 117.225 94.4633 117.26 94.7434C117.295 95.0235 117.096 95.2818 116.816 95.3168Z" fill="#E4ECF9"/>
<path d="M115.912 88.089L52.9426 95.9706C52.6611 96.0056 52.4045 95.8057 52.3695 95.5256C52.3345 95.244 52.5343 94.9872 52.8143 94.9522L115.783 87.0706C116.065 87.0356 116.321 87.2355 116.356 87.5156C116.391 87.7972 116.192 88.054 115.912 88.089Z" fill="#E4ECF9"/>
<path d="M115.009 80.861L52.0398 88.7425C51.7583 88.7776 51.5016 88.5777 51.4666 88.2975C51.4316 88.0174 51.6314 87.7592 51.9114 87.7241L114.88 79.8426C115.162 79.8076 115.418 80.0075 115.453 80.2876C115.488 80.5677 115.289 80.826 115.009 80.861Z" fill="#E4ECF9"/>
<path d="M114.104 73.6332L51.1355 81.5147C50.854 81.5498 50.5973 81.3499 50.5623 81.0698C50.5273 80.7896 50.7271 80.5314 51.0071 80.4964L113.976 72.6148C114.258 72.5798 114.514 72.7797 114.549 73.0598C114.584 73.3399 114.384 73.5982 114.104 73.6332Z" fill="#E4ECF9"/>
<path d="M113.2 66.4037L50.2314 74.2853C49.95 74.3203 49.6933 74.1204 49.6583 73.8403C49.6233 73.5601 49.8231 73.3019 50.1031 73.2669L113.072 65.3853C113.353 65.3503 113.61 65.5502 113.645 65.8303C113.68 66.1119 113.48 66.3687 113.2 66.4037Z" fill="#E4ECF9"/>
<path d="M107.225 103.858C106.944 103.893 106.687 103.693 106.652 103.413L101.228 60.0439C101.193 59.7623 101.393 59.5056 101.673 59.4705C101.953 59.4355 102.211 59.6354 102.246 59.9155L107.67 103.284C107.705 103.566 107.505 103.823 107.225 103.858Z" fill="#E4ECF9"/>
<path d="M96.7306 105.173C96.4491 105.208 96.1925 105.008 96.1575 104.728L90.7337 61.3586C90.6987 61.077 90.8985 60.8202 91.1785 60.7852C91.4585 60.7502 91.7167 60.9501 91.7517 61.2302L97.1754 104.599C97.2104 104.881 97.0106 105.138 96.7306 105.173Z" fill="#E4ECF9"/>
<path d="M86.2348 106.486C85.9533 106.521 85.6966 106.321 85.6616 106.041L80.2379 62.6716C80.2029 62.39 80.4027 62.1332 80.6827 62.0982C80.9642 62.0632 81.2208 62.2631 81.2558 62.5432L86.6796 105.912C86.7146 106.194 86.5148 106.451 86.2348 106.486Z" fill="#E4ECF9"/>
<path d="M75.7401 107.799C75.4587 107.834 75.202 107.634 75.167 107.354L69.7432 63.9846C69.7082 63.703 69.908 63.4462 70.188 63.4112C70.4695 63.3762 70.7262 63.5761 70.7612 63.8562L76.1849 107.225C76.2199 107.507 76.0201 107.764 75.7401 107.799Z" fill="#E4ECF9"/>
<path d="M65.2455 109.113C64.964 109.148 64.7074 108.948 64.6724 108.668L59.2486 65.2993C59.2136 65.0177 59.4134 64.7609 59.6934 64.7259C59.9749 64.6909 60.2316 64.8908 60.2666 65.1709L65.6903 108.54C65.7253 108.821 65.5255 109.078 65.2455 109.113Z" fill="#E4ECF9"/>
<path d="M78.8509 55.7763L50.1119 59.3727C48.8824 59.5274 47.7609 58.6534 47.6064 57.4235C47.4518 56.1936 48.3253 55.0716 49.5548 54.9169L78.2938 51.3205C79.5232 51.1658 80.6447 52.0398 80.7993 53.2697C80.9539 54.4996 80.0803 55.6216 78.8509 55.7763Z" fill="#52D1BD"/>
<path d="M84.7268 118.783L57.3878 122.205C56.4748 122.319 55.6406 121.671 55.5269 120.757C55.4131 119.844 56.0607 119.01 56.9736 118.896L84.3126 115.474C85.2255 115.361 86.0597 116.008 86.1735 116.922C86.2872 117.835 85.6397 118.67 84.7268 118.783Z" fill="#E4ECF9"/>
<path d="M119.053 122.504L58.3751 130.098C57.4621 130.212 56.6279 129.564 56.5142 128.651C56.4004 127.737 57.048 126.903 57.9609 126.789L118.639 119.195C119.552 119.081 120.386 119.729 120.5 120.642C120.613 121.556 119.966 122.39 119.053 122.504Z" fill="#E4ECF9"/>
<path d="M120.04 130.396L59.3624 137.99C58.4494 138.104 57.6152 137.456 57.5015 136.543C57.3877 135.629 58.0353 134.795 58.9482 134.681L119.626 127.087C120.539 126.973 121.373 127.621 121.487 128.534C121.601 129.447 120.953 130.282 120.04 130.396Z" fill="#E4ECF9"/>
<path d="M53.892 103.573C53.6456 103.573 53.402 103.473 53.2241 103.276C52.893 102.907 52.9222 102.339 53.2912 102.008L62.7736 93.4799C63.0522 93.2305 63.4547 93.1779 63.7872 93.3501L74.4087 98.8608L82.6734 83.8578C82.723 83.7688 82.7871 83.6886 82.863 83.62L92.4533 75.079C92.7319 74.8309 93.1329 74.7813 93.464 74.952L104.083 80.4612L112.264 65.4743C112.502 65.0396 113.047 64.8791 113.482 65.1169C113.916 65.3547 114.077 65.9004 113.839 66.3352L105.238 82.0939C105.004 82.5228 104.47 82.6848 104.036 82.4601L93.1854 76.8298L84.1711 84.8572L75.5579 100.492C75.3231 100.918 74.7908 101.08 74.3591 100.855L63.5116 95.2264L54.4914 103.338C54.3194 103.493 54.105 103.569 53.892 103.569V103.573Z" fill="#52D1BD"/>
<path d="M25.9725 51.8093L30.177 79.1817L18.3801 90.7794L14.1755 63.4084L25.9725 51.8093Z" fill="#16B975"/>
<path d="M14.1757 63.4085L18.3802 90.7794L6.16621 79.9317L1.96313 52.5593L14.1757 63.4085Z" fill="#12945E"/>
<path d="M25.9726 51.8094L14.1757 63.4085L1.96313 52.5593L13.7586 40.9617L25.9726 51.8094Z" fill="#45C791"/>
<g style="mix-blend-mode:multiply" opacity="0.2">
<path d="M30.177 79.1816L69.7402 91.9523L57.7552 104.724L18.3801 90.7793L30.177 79.1816Z" fill="#3A7EC1"/>
</g>
<g style="mix-blend-mode:multiply" opacity="0.2">
<path d="M41.659 31.0127L61.3341 37.9736L50.2139 48.9585L29.8621 42.6103L41.659 31.0127Z" fill="#3A7EC1"/>
</g>
<g style="mix-blend-mode:multiply" opacity="0.2">
<path d="M83.5994 26.9829L105.921 34.5814L97.1799 44.6733L72.7869 37.6118L83.5994 26.9829Z" fill="#3A7EC1"/>
</g>
<g style="mix-blend-mode:multiply" opacity="0.2">
<path d="M96.5733 108.62C104.405 104.199 114.353 106.881 118.792 114.611C122.711 121.436 121.022 129.908 115.181 134.843L128.057 157.271C128.684 158.362 128.293 159.765 127.186 160.39L127.011 160.489C125.904 161.114 124.488 160.73 123.863 159.638L111.086 137.386C103.534 140.661 94.5738 137.851 90.4247 130.625C85.9868 122.895 88.7388 113.044 96.5733 108.621V108.62ZM110.705 133.232C116.645 129.879 118.732 122.405 115.366 116.544C112 110.682 104.454 108.646 98.5129 111.999C92.57 115.353 90.4831 122.826 93.849 128.689C97.215 134.551 104.761 136.586 110.704 133.232" fill="#3A7EC1"/>
</g>
<path d="M114.035 118.575L114.387 120.569C114.15 119.227 113.68 117.904 112.963 116.653C109.597 110.791 102.051 108.756 96.1095 112.108C91.4353 114.748 89.1457 119.935 90.0207 124.882L89.6678 122.888C88.7927 117.94 91.081 112.753 95.7566 110.114C101.697 106.761 109.244 108.797 112.61 114.659C113.327 115.909 113.798 117.234 114.035 118.575Z" fill="#E5A755"/>
<path d="M117.914 117.888L118.267 119.882C119.248 125.432 117.207 131.21 112.777 134.952L112.425 132.958C116.855 129.215 118.895 123.439 117.914 117.888Z" fill="#E5A755"/>
<path d="M86.1415 125.569L85.7886 123.575C86.1007 125.343 86.7205 127.089 87.6684 128.738C91.8176 135.965 100.779 138.776 108.329 135.499L108.682 137.494C101.131 140.769 92.1705 137.959 88.0214 130.733C87.0749 129.084 86.4551 127.337 86.1415 125.569Z" fill="#E5A755"/>
<path d="M121.106 157.752L121.459 159.746L108.682 137.494L108.329 135.499L121.106 157.752Z" fill="#E5A755"/>
<path d="M125.566 156.114L125.919 158.108C126.082 159.033 125.655 160.008 124.784 160.499L124.431 158.505C125.302 158.013 125.729 157.039 125.566 156.114Z" fill="#E5A755"/>
<path d="M124.43 158.503L124.783 160.499L124.609 160.597L124.256 158.603L124.43 158.503Z" fill="#E5A755"/>
<path d="M124.257 158.603L124.609 160.597C123.503 161.221 122.086 160.838 121.461 159.746L121.108 157.752C121.735 158.843 123.151 159.227 124.257 158.603Z" fill="#E5A755"/>
<path d="M93.8169 106.735C101.649 102.314 111.596 104.996 116.036 112.726C119.954 119.551 118.265 128.023 112.425 132.958L125.301 155.386C125.928 156.477 125.537 157.88 124.43 158.505L124.255 158.604C123.148 159.229 121.732 158.845 121.106 157.753L108.329 135.501C100.778 138.776 91.8175 135.966 87.6684 128.74C83.2305 121.01 85.9825 111.159 93.8169 106.736V106.735ZM107.949 131.347C113.889 127.994 115.976 120.52 112.61 114.659C109.244 108.797 101.698 106.761 95.7566 110.114C89.8137 113.468 87.7267 120.941 91.0927 126.804C94.4586 132.666 102.004 134.701 107.947 131.347" fill="#F9C067"/>
<g style="mix-blend-mode:multiply" opacity="0.2">
<path d="M107.949 131.347C113.889 127.994 115.976 120.52 112.61 114.659C109.244 108.797 101.698 106.761 95.7566 110.114C89.8136 113.468 87.7267 120.941 91.0926 126.804C94.4586 132.666 102.004 134.701 107.947 131.347" fill="#3A7EC1"/>
</g>
<path d="M9.46634 129.574C12.7787 128.607 14.6802 125.137 13.7135 121.823C12.7468 118.509 9.2779 116.607 5.96555 117.574C2.65321 118.541 0.751696 122.012 1.71841 125.325C2.68513 128.639 6.15399 130.541 9.46634 129.574Z" fill="#3A7EC1"/>
<path d="M161.655 146.025C163.178 146.025 164.413 144.789 164.413 143.266C164.413 141.742 163.178 140.507 161.655 140.507C160.132 140.507 158.897 141.742 158.897 143.266C158.897 144.789 160.132 146.025 161.655 146.025Z" fill="#3A7EC1"/>
<path d="M113.649 29.7418C115.173 29.7418 116.407 28.5066 116.407 26.9829C116.407 25.4591 115.173 24.2239 113.649 24.2239C112.126 24.2239 110.892 25.4591 110.892 26.9829C110.892 28.5066 112.126 29.7418 113.649 29.7418Z" fill="#3A7EC1"/>
</g>
<defs>
<clipPath id="clip0_2_5841">
<rect width="163.827" height="162.891" fill="white" transform="translate(0.586426 0.132812)"/>
</clipPath>
</defs>
</svg>
