<svg width="191" height="166" viewBox="0 0 191 166" fill="none" xmlns="http://www.w3.org/2000/svg">
<g clip-path="url(#clip0_2_6348)">
<path d="M49.4294 49.77C49.1764 49.77 48.9407 49.6085 48.8575 49.3549C48.2499 47.5059 49.0316 45.308 51.1798 42.8228C53.1496 40.5436 56.2113 38.0758 60.2807 35.4855C68.5891 30.1988 80.2123 24.9597 93.0117 20.7361C105.81 16.5126 118.265 13.8031 128.081 13.1084C132.889 12.768 136.816 12.9306 139.751 13.5906C142.952 14.3103 144.883 15.613 145.489 17.462C145.593 17.7784 145.421 18.1209 145.106 18.225C144.79 18.329 144.448 18.1567 144.345 17.8402C143.392 14.94 137.495 13.6546 128.167 14.3146C118.447 15.0018 106.097 17.6907 93.389 21.8839C80.6826 26.0782 69.1535 31.2706 60.9272 36.5054C53.0317 41.5299 49.0499 46.0753 50.0024 48.9766C50.1062 49.2931 49.9343 49.6356 49.6186 49.7396C49.5559 49.7602 49.4921 49.77 49.4305 49.77H49.4294Z" fill="#1F3A6F"/>
<path d="M58.2092 17.8922C57.8914 17.8922 57.6254 17.6429 57.6081 17.3199C57.4232 13.8648 63.1824 11.3341 68.0453 9.82003C74.6769 7.7554 83.5562 6.33671 93.0463 5.82732C107.743 5.03724 120.893 6.59465 126.548 9.79402C126.838 9.95767 126.941 10.3262 126.776 10.6166C126.613 10.9071 126.245 11.01 125.956 10.8453C123.355 9.37351 118.936 8.22902 113.178 7.53539C107.239 6.82008 100.301 6.64667 93.1112 7.03251C83.7173 7.53756 74.9429 8.93674 68.4031 10.9732C62.2883 12.8774 58.7033 15.2249 58.8114 17.2538C58.8298 17.5876 58.5746 17.8716 58.2416 17.89C58.2308 17.89 58.22 17.89 58.2092 17.89V17.8922Z" fill="#1F3A6F"/>
<path d="M51.8987 150.86L171.238 135.375C186.294 133.421 193.595 115.86 184.379 103.766L111.331 7.90285C102.115 -4.19233 83.2945 -1.74945 77.4543 12.2987L31.1627 123.647C25.3225 137.695 36.8429 152.814 51.8987 150.86Z" fill="#ECF3FE"/>
<path d="M38.4182 83.6104C37.6842 82.9785 36.5576 83.1747 36.07 84.0124C29.5984 95.1225 34.3727 130.658 36.7955 145.802L36.2657 145.872C34.8376 139.91 32.4645 128.987 28.7649 109.314C23.9636 83.7859 18.4218 76.9472 15.2951 75.2098C14.0756 74.5325 12.5491 75.2391 12.268 76.608C9.13922 91.805 27.1108 130.524 34.7748 146.071L34.1273 146.157C31.3412 142.181 27.0718 135.872 20.6272 125.932C9.76086 109.173 4.06766 106.609 1.65351 106.555C0.822124 106.537 0.181017 107.285 0.312914 108.107C1.92703 118.164 21.1538 136.757 31.8839 146.455L28.4557 146.912L32.1001 160.833L43.679 159.293L43.5752 144.901L38.2517 145.61C38.6161 140.192 39.4258 130.873 41.1935 115.072C43.7774 91.9664 40.5513 85.4474 38.4204 83.6125L38.4182 83.6104Z" fill="#C4D7F2"/>
<path d="M102.007 165.047C148.672 165.047 186.501 163.519 186.501 161.634C186.501 159.749 148.672 158.221 102.007 158.221C55.3418 158.221 17.5125 159.749 17.5125 161.634C17.5125 163.519 55.3418 165.047 102.007 165.047Z" fill="#D7E4F9"/>
<path d="M141.39 114.343C141.293 114.343 141.195 114.324 141.101 114.286L130.044 109.771C129.743 109.649 129.553 109.35 129.568 109.025L129.889 101.896L123.683 95.7479L116.576 96.1543C116.254 96.1738 115.952 95.9852 115.827 95.6861L111.192 84.6552C111.067 84.3561 111.142 84.0093 111.381 83.7903L116.637 78.9761L116.585 70.2299L111.272 65.4785C111.03 65.2618 110.95 64.9171 111.073 64.6158L111.083 64.5909L115.576 53.5318C115.698 53.2305 115.998 53.0419 116.32 53.0539L123.431 53.3757L129.565 47.1547L129.159 40.0299C129.141 39.7058 129.328 39.4045 129.626 39.2788L140.63 34.6326C140.928 34.5068 141.274 34.5827 141.493 34.8222L146.294 40.0916C149.422 40.0721 151.265 40.0613 154.173 40.044L155.019 40.0385L159.758 34.7128C159.973 34.47 160.318 34.3909 160.619 34.5133L171.677 39.0284C171.977 39.1509 172.167 39.45 172.152 39.7741L171.83 46.9033L178.036 53.0517L185.143 52.6463C185.47 52.6268 185.767 52.8154 185.892 53.1145L190.527 64.1454C190.653 64.4446 190.577 64.7914 190.338 65.0103L185.082 69.8245C185.102 73.2526 185.113 75.1416 185.132 78.5708L190.445 83.3211C190.687 83.5378 190.767 83.8825 190.645 84.1838L186.141 95.2689C186.019 95.5701 185.722 95.762 185.397 95.7457L178.286 95.4238L172.152 101.645L172.558 108.77C172.576 109.094 172.389 109.395 172.091 109.521L161.088 114.166C160.79 114.292 160.444 114.216 160.225 113.976L155.423 108.707L146.698 108.759L141.959 114.085C141.811 114.252 141.601 114.342 141.387 114.342L141.39 114.343ZM131.123 108.553L141.179 112.659L145.786 107.484C145.93 107.322 146.136 107.229 146.352 107.227L155.757 107.172H155.761C155.977 107.172 156.182 107.263 156.327 107.423L160.994 112.543L171.001 108.319L170.607 101.393C170.596 101.177 170.674 100.964 170.827 100.81L177.438 94.1038C177.59 93.9488 177.801 93.8664 178.017 93.8762L184.93 94.1883L189.027 84.1068L183.863 79.4898C183.701 79.3457 183.608 79.1387 183.607 78.9208C183.585 75.1568 183.574 73.2558 183.553 69.4918C183.552 69.2751 183.643 69.067 183.803 68.9206L188.911 64.2419L184.696 54.2092L177.787 54.6037C177.57 54.6156 177.359 54.5354 177.206 54.3837L170.516 47.7563C170.361 47.6034 170.279 47.3921 170.288 47.1753L170.601 40.2466L160.544 36.1401L155.938 41.3152C155.794 41.4778 155.587 41.571 155.371 41.5721L154.185 41.5786C151.173 41.596 149.304 41.6079 145.965 41.6285H145.961C145.746 41.6285 145.54 41.5374 145.396 41.3781L140.729 36.2561L130.721 40.4807L131.115 47.4062C131.127 47.6229 131.048 47.8354 130.896 47.9893L124.283 54.6958C124.131 54.8508 123.919 54.9321 123.704 54.9234L116.792 54.6102L112.697 64.6906L117.859 69.3087C118.022 69.4528 118.114 69.6598 118.116 69.8766L118.171 79.3045C118.172 79.5213 118.081 79.7294 117.921 79.8757L112.813 84.5544L117.027 94.5861L123.934 94.1905C124.15 94.1775 124.362 94.2577 124.516 94.4105L131.206 101.039C131.36 101.192 131.443 101.403 131.433 101.62L131.121 108.549L131.123 108.553ZM150.859 90.6334C146.57 90.6334 142.532 88.9709 139.479 85.946C133.128 79.6546 133.069 69.3563 139.345 62.9901C145.62 56.6239 155.893 56.5621 162.244 62.8536C168.594 69.145 168.655 79.4443 162.379 85.8106C159.339 88.895 155.282 90.6074 150.957 90.6324C150.924 90.6324 150.891 90.6324 150.859 90.6324V90.6334ZM150.863 59.7105C147.079 59.7105 143.297 61.165 140.433 64.0707C134.751 69.8354 134.805 79.1582 140.554 84.8546C143.319 87.5934 146.975 89.0988 150.857 89.0988C150.888 89.0988 150.917 89.0988 150.947 89.0988C154.863 89.076 158.536 87.5251 161.288 84.7322C166.971 78.9675 166.915 69.6435 161.166 63.9471C158.314 61.1216 154.587 59.7105 150.862 59.7105H150.863Z" fill="#C4D7F2"/>
<path d="M91.5792 163.638C91.3435 163.638 91.1154 163.529 90.9673 163.332L88.685 160.299L84.1757 159.9L81.3993 162.485C81.1615 162.706 80.8112 162.754 80.5236 162.603L74.6618 159.538C74.3742 159.387 74.212 159.073 74.2574 158.751L74.7829 154.988L71.8757 151.509L68.0885 151.368C67.7642 151.356 67.4831 151.141 67.3858 150.831L65.403 144.509C65.3057 144.199 65.4138 143.861 65.6722 143.666L68.6983 141.378L69.0961 136.857L66.5177 134.073C66.2971 133.835 66.2495 133.484 66.3998 133.195L69.4572 127.319C69.6064 127.031 69.921 126.868 70.2421 126.914L73.9958 127.441L77.4662 124.526L77.6068 120.729C77.6186 120.404 77.8338 120.122 78.143 120.025L84.4503 118.037C84.7595 117.94 85.0968 118.048 85.2914 118.307L87.5736 121.341L92.083 121.739L94.8604 119.155C95.0983 118.934 95.4486 118.886 95.7361 119.037L101.598 122.101C101.886 122.252 102.048 122.566 102.002 122.888L101.477 126.651C102.6 127.995 103.261 128.786 104.384 130.13L108.171 130.27C108.496 130.282 108.777 130.497 108.874 130.808L110.857 137.131C110.954 137.44 110.846 137.779 110.588 137.974L107.561 140.262L107.164 144.782L109.742 147.566C109.963 147.805 110.01 148.156 109.86 148.444L106.803 154.32C106.652 154.608 106.338 154.77 106.018 154.725L102.264 154.198L98.7936 157.112L98.653 160.909C98.6411 161.234 98.426 161.516 98.1168 161.613L91.8095 163.601C91.7338 163.625 91.656 163.637 91.5803 163.637L91.5792 163.638ZM83.9032 158.337C83.9259 158.337 83.9486 158.337 83.9702 158.34L89.1586 158.8C89.3748 158.819 89.5726 158.929 89.7024 159.102L91.8646 161.975L97.1405 160.313L97.2735 156.717C97.2811 156.5 97.3805 156.296 97.547 156.157L101.539 152.804C101.705 152.665 101.921 152.603 102.136 152.632L105.691 153.131L108.248 148.216L105.806 145.579C105.659 145.419 105.585 145.205 105.604 144.989L106.062 139.788C106.081 139.571 106.191 139.373 106.364 139.243L109.23 137.075L107.571 131.786L103.984 131.653C103.768 131.645 103.565 131.546 103.425 131.379C102.105 129.798 101.43 128.991 100.124 127.427L100.081 127.376C99.9417 127.209 99.8801 126.992 99.9093 126.777L100.407 123.213L95.5037 120.649L92.8733 123.097C92.7144 123.245 92.5014 123.319 92.2852 123.3L87.0969 122.841C86.8806 122.821 86.6828 122.712 86.5531 122.538L84.3919 119.665L79.116 121.328L78.983 124.924C78.9755 125.14 78.876 125.344 78.7095 125.484L74.718 128.837C74.5515 128.977 74.3342 129.039 74.1201 129.01L70.5654 128.51L68.0085 133.425L70.4508 136.062C70.5978 136.221 70.6713 136.436 70.653 136.651L70.1946 141.853C70.1751 142.069 70.0659 142.268 69.8929 142.398L67.0269 144.565L68.6853 149.853L72.2725 149.987C72.4887 149.994 72.692 150.094 72.8314 150.261L76.1753 154.262C76.3148 154.429 76.3764 154.647 76.3472 154.861L75.8499 158.425L80.7528 160.989L83.3832 158.541C83.5259 158.409 83.7119 158.336 83.9043 158.336L83.9032 158.337ZM88.1347 150.152C87.8612 150.152 87.5866 150.14 87.3088 150.115C84.8319 149.897 82.5886 148.723 80.9928 146.812C79.396 144.901 78.6381 142.482 78.8565 139.999C79.0749 137.516 80.2447 135.267 82.1507 133.668C84.0567 132.067 86.4687 131.307 88.9467 131.525C94.0593 131.978 97.8519 136.516 97.4 141.641C96.9729 146.488 92.9003 150.152 88.1347 150.152ZM88.1142 133.025C86.2936 133.025 84.5465 133.659 83.1345 134.846C81.542 136.183 80.5647 138.061 80.382 140.136C80.1993 142.21 80.8328 144.232 82.1669 145.827C83.501 147.423 85.3746 148.403 87.4439 148.586C91.7143 148.964 95.4972 145.789 95.8734 141.507C96.2508 137.225 93.0831 133.434 88.8115 133.057C88.578 133.036 88.3456 133.025 88.1142 133.025Z" fill="#C4D7F2"/>
<g style="mix-blend-mode:multiply" opacity="0.22">
<path d="M150.398 29.7197H114.164C112.317 29.7197 110.567 31.1395 110.128 32.9407C110.293 31.1395 109.019 29.7197 107.173 29.7197H70.9384C69.1513 29.7197 67.455 31.0484 66.949 32.7663C66.9069 32.9104 66.8712 33.0578 66.8463 33.2063L66.8366 33.2626L60.8017 69.2371C60.4785 71.163 61.7867 72.7237 63.7229 72.7237H73.6834C72.906 73.9094 72.359 75.2403 72.1233 76.647C71.2887 81.6217 74.6683 85.6545 79.6706 85.6545C80.8955 85.6545 82.1042 85.4117 83.2448 84.9739C83.5573 84.8535 83.8643 84.7192 84.1649 84.5707C87.2482 83.0458 89.6667 80.0697 90.2408 76.647C90.2624 76.5202 90.2797 76.3934 90.2959 76.2677C90.3165 76.1008 90.3338 75.935 90.3446 75.7713C90.4213 74.6886 90.2959 73.6612 89.9964 72.7248H99.9579C99.9579 72.7248 99.9612 72.7248 99.9622 72.7248C101.807 72.7226 103.555 71.3039 103.994 69.5037C103.828 71.305 105.102 72.7248 106.95 72.7248H117.205C116.666 71.4058 116.486 69.8755 116.76 68.2454C117.594 63.2697 122.326 59.238 127.329 59.238C132.331 59.238 135.711 63.2708 134.876 68.2454C134.603 69.8755 133.911 71.4058 132.928 72.7248H143.183C145.121 72.7248 146.952 71.163 147.276 69.2371L153.32 33.2052C153.643 31.2793 152.335 29.7175 150.398 29.7175V29.7197ZM101.377 60.2243C101.37 60.2243 101.363 60.2243 101.356 60.2243C101.362 60.2243 101.37 60.2243 101.377 60.2243ZM93.7025 50.3227C93.7004 50.3292 93.6993 50.3346 93.6982 50.3411C93.7004 50.3346 93.7015 50.3292 93.7025 50.3227Z" fill="#003889"/>
</g>
<path d="M86.9976 51.0109C86.9976 45.9961 91.0583 41.7444 96.0606 41.7444C97.4758 41.7444 99.3462 42.256 100.54 42.8347V32.8486C100.54 30.9075 102.11 29.3328 104.047 29.3328H140.281C142.218 29.3328 143.788 30.9075 143.788 32.8486V69.1731C143.788 71.1142 142.218 72.689 140.281 72.689H130.025C130.786 71.3592 131.222 69.8169 131.222 68.1728C131.222 63.157 127.167 59.0917 122.163 59.0917C117.16 59.0917 113.106 63.157 113.106 68.1728C113.106 69.8158 113.541 71.3592 114.302 72.689H104.047C102.11 72.689 100.54 71.1142 100.54 69.1731V59.187C99.3472 59.7669 97.4715 60.0909 96.0574 60.0909C91.055 60.0909 86.9986 56.0256 86.9986 51.0098L86.9976 51.0109Z" fill="white"/>
<path d="M60.8288 72.6207H70.7892C70.2119 73.8162 69.8876 75.1579 69.8876 76.5755C69.8876 81.5913 73.9429 85.6567 78.9463 85.6567C80.1712 85.6567 81.3399 85.4128 82.4059 84.9706C82.6978 84.8492 82.9822 84.7137 83.2579 84.5642C86.085 83.0274 88.0051 80.0263 88.0051 76.5755C88.0051 76.4476 88.0018 76.3197 87.9964 76.1929C87.9899 76.0249 87.978 75.858 87.9618 75.6922C87.857 74.6008 87.5597 73.5647 87.1034 72.6207H97.0649C97.0649 72.6207 97.0681 72.6207 97.0692 72.6207C99.0034 72.6186 100.571 71.046 100.571 69.1049V58.8229C99.2444 59.587 97.706 60.0238 96.0659 60.0238C91.0625 60.0238 87.0072 55.9584 87.0072 50.9426C87.0072 49.3169 87.4342 47.7909 88.1802 46.4709C88.3359 46.1956 88.5056 45.929 88.6883 45.6721C90.3306 43.3658 93.0237 41.8615 96.0659 41.8615C96.2368 41.8615 96.4065 41.8669 96.5741 41.8767C96.7416 41.8864 96.9081 41.8994 97.0735 41.9178C98.3352 42.0577 99.5191 42.4565 100.571 43.0613V32.7793C100.571 30.8382 99.0012 29.2634 97.0649 29.2634H60.8299C59.0428 29.2634 57.5703 30.603 57.3519 32.3349C57.3336 32.4801 57.3228 32.6286 57.3228 32.7793V69.1038C57.3228 71.0449 58.8925 72.6197 60.8299 72.6197L60.8288 72.6207Z" fill="#33DA82"/>
<g style="mix-blend-mode:multiply" opacity="0.22">
<path d="M105.472 103.967C104.057 103.967 102.694 104.289 101.455 104.864L102.234 94.9633C102.385 93.0384 100.939 91.4778 99.0013 91.4778H88.7458C89.4031 92.7967 89.7188 94.326 89.5901 95.9549C89.1987 100.928 84.8267 104.958 79.8243 104.958C74.8219 104.958 71.0823 100.927 71.4737 95.9549C71.6024 94.3249 72.158 92.7957 73.0229 91.4778H62.7674C60.83 91.4778 59.1381 93.0384 58.9867 94.9633L57.671 111.695C57.3823 111.794 57.1174 111.885 56.8872 111.965C55.166 110.476 52.8913 106.355 51.9129 104.494C51.9302 104.143 51.9702 103.807 52.0243 103.494C52.0643 103.259 52.1108 103.036 52.1616 102.831C52.1778 102.762 52.1951 102.695 52.2124 102.63C52.247 102.5 52.2816 102.378 52.3162 102.265C52.3313 102.214 52.3475 102.166 52.3627 102.118C53.9508 102.726 54.433 101.114 54.3757 100.221C54.3141 99.2724 55.4439 100.492 55.446 98.7316C55.4482 97.4018 54.7682 95.8411 54.4352 95.1573C54.4946 94.8657 54.4244 94.5731 54.2471 94.3487C52.9994 92.7718 51.3086 92.7772 49.9172 93.3842C49.7031 92.425 48.9344 89.6386 46.0067 91.4875C42.5482 93.6714 44.931 98.6644 44.1667 99.7298C43.4012 100.796 45.2943 100.339 45.6056 99.1879C45.6056 99.1879 46.1959 97.4484 47.0576 96.3473C46.5862 97.5806 46.6803 98.918 47.6306 100.017C48.009 100.455 48.3614 100.658 48.6793 100.715C48.4684 101.09 48.2425 101.534 48.0068 102.035C47.8782 101.9 47.6511 101.901 47.503 102.047C46.3203 103.221 42.1925 107.638 41.6898 112.542C41.1027 118.275 34.6646 121.615 35.9771 121.659C36.5317 121.679 37.8259 122.649 39.1383 123.764L38.5816 124.871L31.6699 138.608L23.6847 150.929L23.9345 151.118C23.7291 151.341 23.4523 151.646 23.142 151.993C22.2447 152.993 21.0619 154.33 20.4835 154.986C20.4857 154.967 20.4889 154.947 20.4922 154.929C20.5138 154.801 20.3895 154.708 20.2662 154.756C15.7752 156.532 19.3862 157.982 20.9538 160.104C22.555 162.27 24.4675 161.762 24.6513 161.593C24.8351 161.424 25.1843 160.882 24.0134 160.171C22.8436 159.46 23.0112 156.887 23.0112 156.887C22.7312 156.875 22.4836 156.849 22.2598 156.811C22.8977 156.303 23.8999 155.515 24.8664 154.756C25.5746 154.203 26.2621 153.664 26.7768 153.262L27.5422 153.839L38.2205 141.924L43.2509 133.394L41.7784 141.722L41.6422 143.352L40.6454 155.261C40.6454 155.261 40.9027 155.277 41.2973 155.297C41.2822 155.674 41.2682 156.079 41.253 156.481C41.2152 157.584 41.1817 158.671 41.1676 159.142C41.0476 159.04 40.959 158.928 40.8952 158.832C40.8271 158.73 40.666 158.746 40.5989 158.861C38.1837 163.052 42.0509 161.693 44.7267 162.146C47.4598 162.608 48.6555 160.997 48.689 160.758C48.7236 160.52 48.6403 159.912 47.2262 160.184C45.8121 160.456 44.2261 158.547 44.2261 158.547C44.1007 158.642 43.9807 158.727 43.8639 158.805C44.038 158.028 44.2953 156.907 44.545 155.825C44.5796 155.673 44.6142 155.522 44.6488 155.373C45.0283 155.358 45.2932 155.324 45.344 155.264C45.57 154.993 49.449 140.767 49.449 140.767L51.567 123.991C53.1259 124.337 54.3919 124.625 55.0503 124.715C55.2925 124.747 55.5282 124.57 55.5671 124.325C55.9477 121.939 55.4558 119.306 55.0579 117.738C55.7866 117.692 56.512 117.56 57.2212 117.369L56.1509 130.978C55.9996 132.903 57.4461 134.463 59.3835 134.463H95.6174C97.5548 134.463 99.2467 132.903 99.3981 130.978L100.176 121.077C101.325 121.652 102.637 121.974 104.051 121.974C109.054 121.974 113.427 117.942 113.818 112.971C114.209 107.998 110.47 103.967 105.468 103.967H105.472Z" fill="#003889"/>
</g>
<path d="M60.5554 108.409C60.5554 108.409 61.5998 105.893 62.4787 106.034C63.3577 106.175 62.2874 107.311 62.2874 107.311C62.2874 107.311 64.3123 105.613 65.0259 106.686C65.7394 107.758 65.7643 109.226 63.5869 109.801C61.4084 110.376 61.3198 110.312 61.3198 110.312L60.5554 108.41V108.409Z" fill="#FDC8AA"/>
<path d="M47.5992 103.056C47.5992 103.056 51.6178 110.113 54.0027 111.751L60.4744 107.654L62.1544 109.589C62.1544 109.589 57.8861 116.054 52.6632 115.074C47.4414 114.095 47.2371 114.778 46.8727 112.866C46.5095 110.955 47.5992 103.056 47.5992 103.056Z" fill="#E59D29"/>
<path d="M110.728 112.547C110.728 117.562 106.672 121.628 101.669 121.628C100.254 121.628 98.9168 121.303 97.7243 120.724V130.71C97.7243 132.651 96.1545 134.226 94.2171 134.226H57.9832C56.0459 134.226 54.4761 132.651 54.4761 130.71V94.3856C54.4761 92.4445 56.0459 90.8698 57.9832 90.8698H68.2388C67.4777 92.1996 67.042 93.7418 67.042 95.3859C67.042 100.402 71.0973 104.467 76.1007 104.467C81.1042 104.467 85.1584 100.402 85.1584 95.3859C85.1584 93.7429 84.7227 92.1996 83.9616 90.8698H94.2171C96.1545 90.8698 97.7243 92.4445 97.7243 94.3856V104.372C98.9168 103.792 100.255 103.468 101.669 103.468C106.672 103.468 110.728 107.533 110.728 112.549V112.547Z" fill="white"/>
<path d="M45.332 152.419C45.332 152.419 45.2834 152.743 45.2044 153.255C45.1082 153.89 44.9677 154.815 44.8239 155.77C44.5341 157.688 44.2314 159.732 44.2433 159.793C44.266 159.909 41.7189 159.362 41.7189 159.362C41.7189 159.362 41.6475 157.911 41.5827 156.432C41.534 155.282 41.4875 154.116 41.4821 153.599C41.4789 153.484 41.481 153.4 41.4832 153.358L45.332 152.417V152.419Z" fill="#FDC8AA"/>
<path d="M41.4097 158.804C41.7578 159.278 42.7416 160.121 44.719 158.516C44.719 158.516 46.4553 160.441 47.8478 160.167C49.2403 159.892 49.3711 160.506 49.356 160.746C49.3408 160.987 48.2727 162.613 45.5028 162.146C42.7914 161.688 39.0301 163.058 41.1167 158.832C41.174 158.716 41.334 158.7 41.4108 158.804H41.4097Z" fill="#15315E"/>
<path d="M45.2045 153.255C45.1083 153.89 44.9677 154.815 44.8239 155.77L41.5827 156.432C41.5341 155.282 41.4876 154.116 41.4822 153.599C42.5103 153.505 44.0098 153.358 45.2045 153.254V153.255Z" fill="#EFA37D"/>
<path d="M27.6643 152.506C27.6643 152.506 26.3983 153.569 25.061 154.695C23.5831 155.941 22.0176 157.268 21.9863 157.321C21.9279 157.424 20.3765 155.325 20.3765 155.325C20.3765 155.325 21.9917 153.293 23.1193 151.906C23.6361 151.271 24.048 150.771 24.1572 150.663L27.6654 152.506H27.6643Z" fill="#FDC8AA"/>
<path d="M20.6987 154.867C20.6479 155.453 20.8306 156.737 23.3723 156.843C23.3723 156.843 23.4069 159.437 24.6329 160.155C25.8589 160.872 25.5529 161.418 25.3821 161.589C25.2113 161.76 23.3388 162.271 21.5679 160.086C19.8338 157.947 16.1082 156.484 20.4598 154.693C20.5787 154.645 20.7095 154.738 20.6987 154.867Z" fill="#15315E"/>
<path d="M27.6643 152.506C27.6643 152.506 26.3983 153.569 25.0609 154.695C24.5171 153.938 23.6479 152.678 23.1182 151.906C23.6349 151.271 24.0469 150.771 24.156 150.663L27.6643 152.506Z" fill="#EFA37D"/>
<path d="M51.8231 115.939C51.8231 115.939 53.6675 120.268 53.3691 123.999C53.3496 124.245 53.1269 124.424 52.8826 124.392C50.4587 124.063 39.7837 121.09 36.537 122.2C36.297 122.282 36.0408 122.132 35.9922 121.881L34.4526 120.946L48.5981 111.386L51.822 115.938L51.8231 115.939Z" fill="#E59D29"/>
<path d="M49.4965 120.37L49.4868 120.58L49.4457 121.428L48.543 140.582C48.543 140.582 45.7829 154.931 45.5785 155.204C45.3742 155.477 40.8789 155.204 40.8789 155.204L40.9383 143.191L40.947 141.547L41.7643 133.148L37.4052 141.752L27.6643 153.77L23.5776 150.834L30.5941 138.406L36.4246 124.551L37.6333 121.68L38.9004 118.67L44.6001 119.585L48.5808 120.222L49.4976 120.37H49.4965Z" fill="#1F3A6F"/>
<path d="M49.4879 120.58L49.4468 121.427L44.5244 121.357L44.599 119.584L44.6369 118.669L48.5797 120.221L49.4879 120.58Z" fill="#072542"/>
<path d="M48.2715 105.153C48.1299 104.383 48.1266 103.637 48.185 102.989C48.2996 101.724 48.6445 100.825 48.6445 100.825L45.5557 98.8671C45.3103 98.9733 45.0227 99.3819 44.7038 100.017C44.426 100.573 44.1243 101.303 43.8108 102.157C44.8768 103.411 46.7666 105.321 48.2715 105.153Z" fill="#FDC8AA"/>
<path d="M49.757 113.275C49.7505 113.076 49.7418 112.877 49.7321 112.68C49.6175 110.222 49.3591 107.907 48.825 106.835C48.5483 106.279 48.3742 105.71 48.2715 105.154C46.7655 105.322 44.8757 103.413 43.8108 102.159C41.5307 108.359 38.563 121.084 38.563 121.084C42.5134 118.853 49.7234 121.084 49.7234 121.084C49.7234 121.084 49.7915 119.552 49.8088 117.474C49.8099 117.325 49.8121 117.173 49.8121 117.019C49.8175 115.858 49.8056 114.559 49.758 113.275H49.757Z" fill="white"/>
<path d="M61.1284 109.775C61.1284 109.775 62.1728 107.26 63.0517 107.401C63.9307 107.542 62.8604 108.678 62.8604 108.678C62.8604 108.678 64.8853 106.979 65.5989 108.052C66.3124 109.125 66.3373 110.593 64.1599 111.168C61.9814 111.743 61.8928 111.679 61.8928 111.679L61.1284 109.777V109.775Z" fill="#FDC8AA"/>
<path d="M40.9384 123.836L40.4529 126.326C40.2713 126.288 37.6561 125.108 36.4236 124.55L37.6323 121.679L40.9384 123.836Z" fill="#072542"/>
<path d="M47.1245 115.262C46.6337 117.055 44.5363 124.667 41.0172 126.671C40.8842 126.748 40.7177 126.729 40.6042 126.627C39.5999 125.714 34.7456 121.351 33.5661 121.31C32.2504 121.265 38.4258 117.896 38.562 112.115C38.6787 107.169 42.4594 102.713 43.5492 101.53C43.6995 101.368 43.9579 101.381 44.0898 101.558C45.3136 103.197 50.7182 110.367 52.6436 111.761C52.7366 111.828 52.8577 111.843 52.9647 111.803C53.9431 111.446 58.9401 109.636 60.6894 109.288C60.831 109.26 60.9737 109.32 61.0526 109.441L62.4732 111.626C62.564 111.766 62.5435 111.952 62.4257 112.07C61.4094 113.073 56.7184 117.418 51.6847 117.374C51.6317 117.373 51.5798 117.36 51.5322 117.338L47.6478 115.504L47.1223 115.261L47.1245 115.262Z" fill="#F4B545"/>
<path d="M48.6446 100.825C48.6446 100.825 48.2997 101.724 48.1851 102.989C46.3061 102.321 45.2098 100.868 44.7039 100.017C45.0228 99.3819 45.3104 98.9733 45.5558 98.8671L48.6446 100.825Z" fill="#EFA37D"/>
<path d="M49.7333 94.2241C49.7333 94.2241 51.0956 96.409 51.2318 98.1843C51.368 99.9595 50.142 98.7305 50.2782 99.6864C50.4144 100.642 50.0058 102.418 48.0987 101.462C46.1916 100.506 44.9656 99.9595 44.8294 98.0477C44.6931 96.1359 46.6002 93.4047 49.7333 94.2241Z" fill="#FDC8AA"/>
<path d="M49.9334 94.6402C49.8166 95.259 49.3301 96.3829 47.5711 97.9967C47.5711 97.9967 46.3181 96.3006 45.8089 97.3562C45.2975 98.4151 46.3624 98.9862 46.1581 99.2593C45.9538 99.5324 45.0337 101.103 43.5191 99.4815C42.0033 97.8601 42.2758 95.7261 43.5191 94.1557C44.7148 92.6449 47.5798 91.3162 49.6901 93.7634C49.8988 94.0051 49.9929 94.3259 49.9334 94.6402Z" fill="#1F3A6F"/>
<path d="M45.3785 93.098C45.2931 92.9961 44.5104 88.6761 41.2238 90.8784C37.9372 93.0806 40.7124 98.1171 40.0313 99.1922C39.3502 100.267 41.2065 99.8067 41.4281 98.6459C41.4281 98.6459 42.4163 94.8223 43.9655 94.8906C45.5148 94.9589 45.3785 93.098 45.3785 93.098Z" fill="#1F3A6F"/>
<path d="M47.1234 115.262C46.9309 115.179 43.7297 113.472 43.7297 113.472V114.952L47.0207 115.636L47.1234 115.262Z" fill="#E59D29"/>
<path d="M49.4629 117.415C49.4629 117.556 49.3483 117.671 49.2078 117.671C49.0672 117.671 48.9526 117.556 48.9526 117.415C48.9526 117.274 49.0672 117.159 49.2078 117.159C49.3483 117.159 49.4629 117.274 49.4629 117.415Z" fill="#1F3A6F"/>
<path d="M49.3604 119.601C49.3604 119.742 49.2458 119.857 49.1052 119.857C48.9647 119.857 48.8501 119.742 48.8501 119.601C48.8501 119.46 48.9647 119.345 49.1052 119.345C49.2458 119.345 49.3604 119.46 49.3604 119.601Z" fill="#1F3A6F"/>
<path d="M42.5945 122.913L39.6885 120.709L40.2636 119.947L43.1697 122.151L42.5945 122.913ZM39.8788 120.683L42.5675 122.723L42.9783 122.178L40.2896 120.139L39.8788 120.684V120.683Z" fill="#1F3A6F"/>
<path d="M44.7947 128.278C44.4369 128.83 42.0519 139.327 40.9395 143.19L40.9481 141.546L41.7654 133.146C41.7654 133.146 45.2402 127.595 44.7958 128.278H44.7947Z" fill="#072542"/>
<g style="mix-blend-mode:multiply" opacity="0.22">
<path d="M183.089 154.898L181.315 153.371L180.22 152.428L180.904 151.87L174.23 140.414L177.272 125.448L177.614 123.766L180.617 123.251L178.571 101.571C178.522 101.228 178.386 100.966 178.084 100.825C178.049 100.808 178.011 100.795 177.972 100.783L177.945 100.774C177.817 100.724 177.681 100.7 177.542 100.7L177.352 98.8312L177.374 98.6166C177.619 98.5115 177.977 98.2503 178.31 97.8872C178.696 97.4678 179.049 96.914 179.153 96.3201C179.37 95.0694 179.658 93.4654 178.558 92.4282C177.457 91.392 175.368 90.4773 173.999 90.8967C172.63 91.3162 174.184 92.6818 173.961 92.7891C173.767 92.8812 173.261 93.4057 173.263 93.7363C173.263 93.7862 173.276 93.8328 173.303 93.8718C173.366 93.9639 173.457 94.095 173.601 94.2478C173.468 94.3887 173.304 94.5654 173.127 94.754C172.525 95.3967 171.739 96.1337 171.548 96.2854C171.207 96.5542 172.411 97.3584 172.4 97.5654C172.39 97.755 172.158 100.535 174.085 100.197L173.944 101.084L173.881 101.479L173.722 101.514C173.634 101.541 173.548 101.572 173.463 101.608C172.913 101.839 172.443 102.241 172.128 102.747L170.671 105.094L164.822 111.092L163.682 111.532L165.26 95.1311C165.445 93.2107 164.024 91.6543 162.088 91.6543H152.128C152.82 90.4719 153.271 89.1453 153.407 87.7429C153.884 82.7824 150.215 78.7615 145.213 78.7615C143.988 78.7615 142.796 79.0032 141.688 79.4399C141.385 79.5592 141.087 79.6935 140.797 79.842C137.824 81.3615 135.619 84.33 135.29 87.7429C135.278 87.8697 135.27 87.9954 135.262 88.1211C135.253 88.287 135.249 88.4528 135.249 88.6164C135.25 89.6959 135.449 90.7201 135.816 91.6543H125.854C125.854 91.6543 125.851 91.6543 125.85 91.6543C123.916 91.6565 122.198 93.2128 122.013 95.1311L121.035 105.3C122.435 104.545 124.014 104.113 125.654 104.113C130.658 104.113 134.326 108.133 133.848 113.094C133.693 114.702 133.121 116.211 132.249 117.517C132.067 117.789 131.872 118.053 131.665 118.307C129.802 120.588 126.968 122.077 123.924 122.077C123.754 122.077 123.585 122.071 123.417 122.061C123.251 122.052 123.085 122.039 122.922 122.02C121.673 121.881 120.527 121.487 119.534 120.889L118.555 131.058C118.371 132.978 119.791 134.535 121.728 134.535H157.962C159.75 134.535 161.35 133.209 161.732 131.497C161.765 131.353 161.79 131.206 161.804 131.058L161.809 131.002L163.117 117.417L168.194 115.554L166.685 121.071C166.616 121.328 166.817 121.552 167.081 121.513L167.141 121.504L166.887 122.397L156.494 158.816L156.834 158.862L156.311 159.546L150.892 160.561C150.535 160.628 150.254 160.936 150.227 161.289L150.224 161.337C150.196 161.709 150.456 162.016 150.827 162.047L157.962 162.652C158.291 162.68 158.619 162.483 158.761 162.173L159.631 160.271L160.075 159.3L160.4 159.344L167.607 144.123L176.971 155.087L177.654 154.529L177.532 157.577C177.528 157.69 177.462 157.798 177.359 157.859L174.839 159.356C174.765 159.4 174.709 159.469 174.682 159.549L174.403 160.388C174.33 160.608 174.504 160.808 174.732 160.767L179.103 159.974C179.183 159.96 179.257 159.915 179.31 159.851L183.106 155.33C183.22 155.194 183.213 155.004 183.091 154.899L183.089 154.898Z" fill="#003889"/>
</g>
<path d="M150.254 118.543C150.748 119.08 151.852 119.66 152.462 119.538C153.414 119.345 155.168 117.89 155.168 117.89L155.204 117.875L155.443 117.785L156.023 117.567C155.781 117.043 155.301 116.047 155.049 115.525C154.975 115.565 154.905 115.604 154.836 115.641C154.822 115.649 154.808 115.657 154.794 115.664C154.24 115.963 153.84 116.194 153.693 116.253C153.404 116.366 152.094 116.166 151.351 116.212C151.022 116.233 150.803 116.303 150.829 116.467C150.852 116.634 150.969 116.703 151.122 116.739C151.467 116.82 152 116.733 152.067 117.19C152.142 117.703 151.484 117.563 150.788 117.66C150.592 117.686 150.39 117.733 150.2 117.819C149.894 117.958 149.976 118.245 150.254 118.544V118.543Z" fill="#FDC8AA"/>
<path d="M162.271 111.287L166.288 105.395L167.845 111.214L165.142 114.384L155.314 118.164L153.958 115.855L162.271 111.287Z" fill="#E59D29"/>
<path d="M155.047 90.8686H145.086C145.664 89.6731 145.988 88.3314 145.988 86.9138C145.988 81.898 141.933 77.8326 136.929 77.8326C135.704 77.8326 134.536 78.0765 133.47 78.5187C133.178 78.6401 132.893 78.7755 132.618 78.9251C129.791 80.4619 127.871 83.463 127.871 86.9138C127.871 87.0417 127.874 87.1696 127.879 87.2964C127.886 87.4643 127.898 87.6313 127.914 87.7971C128.019 88.8885 128.316 89.9246 128.772 90.8686H118.811C118.811 90.8686 118.808 90.8686 118.806 90.8686C116.872 90.8707 115.305 92.4433 115.305 94.3844V104.666C116.631 103.902 118.17 103.466 119.81 103.466C124.813 103.466 128.868 107.531 128.868 112.547C128.868 114.172 128.441 115.698 127.695 117.018C127.54 117.294 127.37 117.56 127.187 117.817C125.545 120.123 122.852 121.628 119.81 121.628C119.639 121.628 119.469 121.622 119.302 121.613C119.134 121.603 118.968 121.59 118.802 121.571C117.54 121.432 116.357 121.033 115.305 120.428V130.71C115.305 132.651 116.874 134.226 118.811 134.226H155.046C156.833 134.226 158.305 132.886 158.524 131.154C158.542 131.009 158.553 130.861 158.553 130.71V94.3855C158.553 92.4444 156.983 90.8696 155.046 90.8696L155.047 90.8686Z" fill="#3B82F4"/>
<path d="M174.34 160.745L178.634 159.943C178.713 159.928 178.783 159.885 178.83 159.82L182.191 155.248C182.291 155.112 182.266 154.92 182.134 154.814L180.214 153.27L178.856 152.179C178.732 152.078 178.552 152.088 178.438 152.201L176.737 153.878C176.673 153.942 176.639 154.031 176.643 154.121L176.833 157.521C176.839 157.636 176.783 157.744 176.687 157.806L174.31 159.32C174.24 159.365 174.191 159.435 174.172 159.515L173.974 160.364C173.922 160.586 174.116 160.789 174.34 160.746V160.745Z" fill="#072542"/>
<path d="M176.617 122.817L169.041 124.153L173.59 118.824L176.617 122.817Z" fill="#E59D29"/>
<path d="M155.915 158.773L159.871 159.306L165.611 143.917L176.031 155.002L179.658 151.752L171.881 140.17L173.483 125.039L173.764 122.388L171.321 121.546L170.972 121.28L169.324 120.027L168.601 119.477L167.866 118.916L163.273 119.434L163.188 119.89L162.803 121.952L155.915 158.773Z" fill="#1F3A6F"/>
<path d="M169.457 121.353L173.483 125.039L173.764 122.388L171.321 121.545L170.972 121.28L169.457 121.353Z" fill="#072542"/>
<path d="M162.803 121.952C164.469 121.563 168.753 120.565 169.043 120.515L169.325 120.027L169.692 119.393L168.602 119.477L163.189 119.889L162.803 121.953V121.952Z" fill="#072542"/>
<path d="M150.558 162.039L157.752 162.651C158.083 162.679 158.392 162.479 158.504 162.166L159.191 160.244L159.653 158.95L156.384 158.631L155.801 159.512L150.481 160.538C150.131 160.606 149.879 160.917 149.886 161.275V161.323C149.895 161.699 150.185 162.009 150.559 162.04L150.558 162.039Z" fill="#072542"/>
<path d="M146.87 116.318C147.298 116.909 148.326 117.615 148.947 117.565C149.916 117.484 151.827 116.245 151.827 116.245L151.865 116.234L152.112 116.172L152.712 116.024C152.533 115.475 152.173 114.43 151.984 113.881C151.906 113.912 151.831 113.943 151.759 113.972C151.744 113.977 151.729 113.984 151.715 113.989C151.13 114.221 150.705 114.403 150.553 114.446C150.254 114.524 148.976 114.171 148.232 114.13C147.903 114.112 147.678 114.156 147.684 114.322C147.687 114.49 147.794 114.573 147.944 114.626C148.277 114.747 148.816 114.725 148.83 115.185C148.844 115.703 148.207 115.486 147.505 115.501C147.307 115.504 147.1 115.527 146.902 115.59C146.582 115.692 146.631 115.987 146.871 116.316L146.87 116.318Z" fill="#FDC8AA"/>
<path d="M167.889 99.1261L167.74 101.52L171.525 100.8L171.002 98.1258L171.007 97.2371L167.889 99.1261Z" fill="#FDC8AA"/>
<path d="M167.889 99.1261L167.811 100.403C168.82 100.337 170.432 98.6633 171.003 98.1258L171.009 97.2371L167.891 99.1261H167.889Z" fill="#EFA37D"/>
<path d="M171.659 96.8751C171.434 97.2392 171.122 97.599 170.722 97.9448C170.615 98.0369 170.503 98.1279 170.383 98.2179C169.861 98.6135 169.218 98.9852 168.457 99.319C165.978 100.406 165.937 97.056 165.927 96.8458C165.919 96.6366 164.637 95.8238 164.952 95.5517C165.129 95.3989 165.844 94.6533 166.385 94.003C166.543 93.8122 166.69 93.6345 166.809 93.4914C166.959 93.3126 167.066 93.188 167.1 93.1598C167.697 92.671 168.838 92.839 169.879 93.2964C171.034 93.8025 172.067 94.6663 172.093 95.3827C172.111 95.8725 171.966 96.3776 171.659 96.8751Z" fill="#FDC8AA"/>
<path d="M169.178 94.3953C168.997 94.481 168.807 94.5319 168.615 94.5579C167.777 94.6674 166.886 94.2761 166.387 94.0041C166.546 93.8133 166.693 93.6356 166.812 93.4925C166.654 93.3375 166.55 93.2053 166.478 93.1121C166.447 93.0731 166.43 93.0254 166.425 92.9756C166.819 92.8379 167.178 92.7165 167.242 92.6905C167.394 92.6287 169.157 92.5615 169.374 92.5702C169.487 92.5746 169.801 92.8975 169.88 93.2964C169.952 93.6605 169.829 94.0886 169.178 94.3953Z" fill="#EFA37D"/>
<path d="M172.561 95.5874C172.515 96.1879 172.215 96.7471 171.87 97.1719C171.489 97.6412 171.051 97.9447 170.831 97.9599C170.799 97.9631 170.762 97.9566 170.722 97.9447C170.378 97.8352 169.83 97.1969 169.557 96.7904C169.469 96.6593 169.408 96.5531 169.393 96.4957C169.381 96.4556 169.395 96.41 169.428 96.3591C169.44 96.3396 169.454 96.3201 169.471 96.2984C169.694 96.0177 170.297 95.5766 170.316 94.8461C170.341 93.9173 168.908 94.6619 168.908 94.6619C168.805 94.6272 168.708 94.5925 168.614 94.5567C167.667 94.2002 167.128 93.8013 166.81 93.4914C166.653 93.3364 166.549 93.2042 166.476 93.111C166.446 93.0719 166.429 93.0242 166.423 92.9744C166.39 92.6395 166.846 92.1106 167.03 92.0163C167.243 91.9079 165.557 90.5272 166.886 90.1034C168.214 89.6796 170.392 90.6041 171.592 91.6522C172.792 92.7002 172.658 94.3226 172.561 95.5863V95.5874Z" fill="#1F3A6F"/>
<path d="M164.087 111.412L162.474 120.612C162.43 120.872 162.653 121.099 162.912 121.059L170.033 120.02L168.014 116.318L166.231 109.702L164.088 111.412H164.087Z" fill="white"/>
<path d="M170.12 131.097L168.788 142.899L176.575 154.515L176.114 154.929L165.596 143.809L170.12 131.097Z" fill="#072542"/>
<path d="M167.379 100.933C166.852 101.166 166.42 101.572 166.154 102.085L164.923 104.458L159.651 110.522L150.862 114.082L151.938 116.535L162.142 113.934L166.194 110.176L166.863 114.668C167.168 116.718 167.782 118.709 168.683 120.575L169.21 121.669L176.617 122.816L172.484 100.896C172.402 100.548 172.241 100.285 171.926 100.142C171.888 100.124 171.849 100.111 171.811 100.099L171.782 100.091C171.551 100.002 171.298 99.9898 171.061 100.057C171.035 100.065 171.009 100.072 170.983 100.078L167.631 100.837C167.546 100.864 167.462 100.897 167.38 100.933H167.379Z" fill="#F4B545"/>
<path d="M61.2106 53.8775C61.2106 53.8775 61.2062 53.8775 61.2052 53.8775C54.0773 53.8093 49.8069 52.2453 48.8576 49.3548C48.7539 49.0384 48.9258 48.6959 49.2414 48.5918C49.5571 48.4878 49.8988 48.6601 50.0026 48.9766C50.7647 51.2959 54.7465 52.6073 61.216 52.6691C61.549 52.6723 61.816 52.9455 61.8128 53.2793C61.8095 53.6109 61.5403 53.8775 61.2106 53.8775Z" fill="#1F3A6F"/>
<path d="M74.2392 52.784C73.9473 52.784 73.69 52.5705 73.6446 52.2714C73.5938 51.9419 73.8197 51.633 74.1484 51.5821C82.3401 50.3173 91.6096 48.0174 100.958 44.933C113.665 40.7387 125.194 35.5462 133.42 30.3115C141.315 25.287 145.297 20.7415 144.345 17.8402C144.241 17.5237 144.413 17.1812 144.729 17.0772C145.044 16.9732 145.386 17.1455 145.49 17.4619C146.097 19.3109 145.316 21.5088 143.167 23.994C141.198 26.2732 138.136 28.741 134.066 31.3313C125.758 36.6181 114.135 41.8571 101.335 46.0807C91.9253 49.1858 82.5887 51.5019 74.3322 52.7764C74.3008 52.7807 74.2706 52.784 74.2392 52.784Z" fill="#1F3A6F"/>
<path d="M76.5991 24.7277C76.5818 24.7277 76.5635 24.7277 76.5451 24.7255C71.0951 24.2411 66.4841 23.3567 63.2116 22.1678C59.5952 20.8542 57.7097 19.2231 57.6081 17.3189C57.5897 16.9851 57.8449 16.7011 58.1779 16.6827C58.5098 16.6632 58.7941 16.92 58.8125 17.2538C58.8838 18.5891 60.592 19.9297 63.6235 21.0309C66.7998 22.184 71.3049 23.0457 76.6521 23.5204C76.984 23.5496 77.2284 23.8433 77.1992 24.175C77.1711 24.4893 76.9083 24.7255 76.5991 24.7255V24.7277Z" fill="#1F3A6F"/>
</g>
<defs>
<clipPath id="clip0_2_6348">
<rect width="190.413" height="164.917" fill="white" transform="translate(0.293457 0.129883)"/>
</clipPath>
</defs>
</svg>
